DINishExpanded-BoldItalic.ufo
<glyph name="exclam" format="2">
  <advance width="254"/>
  <unicode hex="0021"/>
  <outline>
    <contour>
      <point x="74" y="236" type="line"/>
      <point x="169" y="236" type="line"/>
      <point x="292" y="707" type="line"/>
      <point x="147" y="707" type="line"/>
    </contour>
    <contour>
      <point x="5" y="0" type="line"/>
      <point x="140" y="0" type="line"/>
      <point x="168" y="133" type="line"/>
      <point x="33" y="133" type="line"/>
    </contour>
  </outline>
</glyph>
<glyph name="quotedbl" format="2">
  <advance width="405"/>
  <unicode hex="0022"/>
  <outline>
    <contour>
      <point x="67" y="401" type="line"/>
      <point x="187" y="401" type="line"/>
      <point x="251" y="707" type="line"/>
      <point x="131" y="707" type="line"/>
    </contour>
    <contour>
      <point x="276" y="401" type="line"/>
      <point x="395" y="401" type="line"/>
      <point x="459" y="707" type="line"/>
      <point x="340" y="707" type="line"/>
    </contour>
  </outline>
</glyph>
<glyph name="numbersign" format="2">
  <advance width="616"/>
  <unicode hex="0023"/>
  <outline>
    <contour>
      <point x="510" y="416" type="line"/>
      <point x="473" y="303" type="line"/>
      <point x="577" y="303" type="line"/>
      <point x="557" y="209" type="line"/>
      <point x="441" y="209" type="line"/>
      <point x="370" y="0" type="line"/>
      <point x="263" y="0" type="line"/>
      <point x="334" y="209" type="line"/>
      <point x="219" y="209" type="line"/>
      <point x="149" y="0" type="line"/>
      <point x="43" y="0" type="line"/>
      <point x="114" y="209" type="line"/>
      <point x="6" y="209" type="line"/>
      <point x="26" y="303" type="line"/>
      <point x="146" y="303" type="line"/>
      <point x="185" y="416" type="line"/>
      <point x="78" y="416" type="line"/>
      <point x="98" y="510" type="line"/>
      <point x="217" y="510" type="line"/>
      <point x="283" y="707" type="line"/>
      <point x="389" y="707" type="line"/>
      <point x="322" y="510" type="line"/>
      <point x="437" y="510" type="line"/>
      <point x="504" y="707" type="line"/>
      <point x="609" y="707" type="line"/>
      <point x="543" y="510" type="line"/>
      <point x="649" y="510" type="line"/>
      <point x="629" y="416" type="line"/>
    </contour>
    <contour>
      <point x="405" y="416" type="line"/>
      <point x="290" y="416" type="line"/>
      <point x="252" y="303" type="line"/>
      <point x="366" y="303" type="line"/>
    </contour>
  </outline>
</glyph>
<glyph name="dollar" format="2">
  <advance width="547"/>
  <unicode hex="0024"/>
  <outline>
    <contour>
      <point x="158" y="-61" type="line"/>
      <point x="249" y="-61" type="line"/>
      <point x="269" y="33" type="line"/>
      <point x="333" y="40"/>
      <point x="385" y="60"/>
      <point x="428" y="94" type="curve" smooth="yes"/>
      <point x="469" y="127"/>
      <point x="496" y="172"/>
      <point x="508" y="229" type="curve" smooth="yes"/>
      <point x="529" y="332"/>
      <point x="484" y="392"/>
      <point x="372" y="409" type="curve" smooth="yes"/>
      <point x="294" y="420" type="line" smooth="yes"/>
      <point x="262" y="425"/>
      <point x="241" y="433"/>
      <point x="229" y="446" type="curve" smooth="yes"/>
      <point x="216" y="459"/>
      <point x="213" y="476"/>
      <point x="218" y="498" type="curve" smooth="yes"/>
      <point x="223" y="523"/>
      <point x="236" y="542"/>
      <point x="256" y="555" type="curve" smooth="yes"/>
      <point x="276" y="568"/>
      <point x="303" y="574"/>
      <point x="336" y="574" type="curve" smooth="yes"/>
      <point x="372" y="574"/>
      <point x="398" y="567"/>
      <point x="414" y="554" type="curve" smooth="yes"/>
      <point x="429" y="540"/>
      <point x="435" y="519"/>
      <point x="432" y="490" type="curve"/>
      <point x="552" y="490" type="line"/>
      <point x="559" y="545"/>
      <point x="550" y="589"/>
      <point x="525" y="622" type="curve" smooth="yes"/>
      <point x="499" y="654"/>
      <point x="459" y="673"/>
      <point x="403" y="679" type="curve"/>
      <point x="420" y="758" type="line"/>
      <point x="329" y="758" type="line"/>
      <point x="312" y="678" type="line"/>
      <point x="254" y="671"/>
      <point x="204" y="650"/>
      <point x="166" y="617" type="curve" smooth="yes"/>
      <point x="127" y="584"/>
      <point x="102" y="541"/>
      <point x="91" y="488" type="curve" smooth="yes"/>
      <point x="70" y="386"/>
      <point x="120" y="327"/>
      <point x="239" y="310" type="curve" smooth="yes"/>
      <point x="314" y="300" type="line" smooth="yes"/>
      <point x="343" y="297"/>
      <point x="363" y="289"/>
      <point x="373" y="276" type="curve" smooth="yes"/>
      <point x="384" y="263"/>
      <point x="386" y="244"/>
      <point x="381" y="220" type="curve" smooth="yes"/>
      <point x="375" y="193"/>
      <point x="361" y="173"/>
      <point x="339" y="160" type="curve" smooth="yes"/>
      <point x="316" y="146"/>
      <point x="286" y="139"/>
      <point x="249" y="139" type="curve" smooth="yes"/>
      <point x="208" y="139"/>
      <point x="178" y="146"/>
      <point x="161" y="161" type="curve" smooth="yes"/>
      <point x="143" y="175"/>
      <point x="136" y="199"/>
      <point x="139" y="232" type="curve"/>
      <point x="22" y="232" type="line"/>
      <point x="13" y="173"/>
      <point x="21" y="127"/>
      <point x="48" y="93" type="curve" smooth="yes"/>
      <point x="75" y="58"/>
      <point x="118" y="38"/>
      <point x="178" y="32" type="curve"/>
    </contour>
  </outline>
</glyph>
<glyph name="percent" format="2">
  <advance width="1006"/>
  <unicode hex="0025"/>
  <outline>
    <contour>
      <point x="83" y="438" type="curve" smooth="yes"/>
      <point x="107" y="553" type="line" smooth="yes"/>
      <point x="118" y="606"/>
      <point x="139" y="646"/>
      <point x="172" y="673" type="curve" smooth="yes"/>
      <point x="205" y="700"/>
      <point x="246" y="713"/>
      <point x="297" y="713" type="curve" smooth="yes"/>
      <point x="346" y="713"/>
      <point x="381" y="701"/>
      <point x="401" y="676" type="curve" smooth="yes"/>
      <point x="423" y="650"/>
      <point x="428" y="609"/>
      <point x="416" y="553" type="curve" smooth="yes"/>
      <point x="392" y="438" type="line" smooth="yes"/>
      <point x="369" y="326"/>
      <point x="306" y="270"/>
      <point x="203" y="270" type="curve" smooth="yes"/>
      <point x="100" y="270"/>
      <point x="60" y="326"/>
    </contour>
    <contour>
      <point x="629" y="162" type="curve" smooth="yes"/>
      <point x="652" y="276" type="line" smooth="yes"/>
      <point x="663" y="329"/>
      <point x="685" y="369"/>
      <point x="717" y="396" type="curve" smooth="yes"/>
      <point x="750" y="423"/>
      <point x="792" y="436"/>
      <point x="843" y="436" type="curve" smooth="yes"/>
      <point x="892" y="436"/>
      <point x="926" y="424"/>
      <point x="946" y="399" type="curve" smooth="yes"/>
      <point x="969" y="373"/>
      <point x="973" y="332"/>
      <point x="961" y="276" type="curve" smooth="yes"/>
      <point x="938" y="162" type="line" smooth="yes"/>
      <point x="914" y="50"/>
      <point x="852" y="-6"/>
      <point x="749" y="-6" type="curve" smooth="yes"/>
      <point x="646" y="-6"/>
      <point x="605" y="50"/>
    </contour>
    <contour>
      <point x="772" y="712" type="line"/>
      <point x="876" y="712" type="line"/>
      <point x="274" y="0" type="line"/>
      <point x="170" y="0" type="line"/>
    </contour>
    <contour>
      <point x="288" y="443" type="curve" smooth="yes"/>
      <point x="308" y="540" type="line" smooth="yes"/>
      <point x="315" y="570"/>
      <point x="316" y="591"/>
      <point x="312" y="604" type="curve" smooth="yes"/>
      <point x="307" y="617"/>
      <point x="296" y="623"/>
      <point x="278" y="623" type="curve" smooth="yes"/>
      <point x="259" y="623"/>
      <point x="244" y="617"/>
      <point x="235" y="604" type="curve" smooth="yes"/>
      <point x="225" y="591"/>
      <point x="217" y="570"/>
      <point x="210" y="540" type="curve" smooth="yes"/>
      <point x="190" y="443" type="line" smooth="yes"/>
      <point x="184" y="413"/>
      <point x="184" y="392"/>
      <point x="188" y="380" type="curve" smooth="yes"/>
      <point x="192" y="367"/>
      <point x="204" y="361"/>
      <point x="223" y="361" type="curve" smooth="yes"/>
      <point x="242" y="361"/>
      <point x="255" y="367"/>
      <point x="265" y="380" type="curve" smooth="yes"/>
      <point x="275" y="392"/>
      <point x="282" y="413"/>
    </contour>
    <contour>
      <point x="834" y="167" type="curve" smooth="yes"/>
      <point x="854" y="263" type="line" smooth="yes"/>
      <point x="860" y="293"/>
      <point x="861" y="314"/>
      <point x="857" y="327" type="curve" smooth="yes"/>
      <point x="853" y="340"/>
      <point x="842" y="346"/>
      <point x="823" y="346" type="curve" smooth="yes"/>
      <point x="804" y="346"/>
      <point x="790" y="340"/>
      <point x="780" y="327" type="curve" smooth="yes"/>
      <point x="770" y="314"/>
      <point x="762" y="293"/>
      <point x="756" y="263" type="curve" smooth="yes"/>
      <point x="736" y="167" type="line" smooth="yes"/>
      <point x="729" y="137"/>
      <point x="729" y="116"/>
      <point x="734" y="104" type="curve" smooth="yes"/>
      <point x="738" y="91"/>
      <point x="750" y="85"/>
      <point x="769" y="85" type="curve" smooth="yes"/>
      <point x="788" y="85"/>
      <point x="802" y="91"/>
      <point x="812" y="104" type="curve" smooth="yes"/>
      <point x="820" y="116"/>
      <point x="827" y="137"/>
    </contour>
  </outline>
</glyph>
<glyph name="ampersand" format="2">
  <advance width="681"/>
  <unicode hex="0026"/>
  <outline>
    <contour>
      <point x="205" y="-14" type="curve" smooth="yes"/>
      <point x="241" y="-14"/>
      <point x="276" y="-8"/>
      <point x="310" y="5" type="curve" smooth="yes"/>
      <point x="344" y="17"/>
      <point x="378" y="38"/>
      <point x="415" y="67" type="curve"/>
      <point x="417" y="63" type="line" smooth="yes"/>
      <point x="432" y="39"/>
      <point x="448" y="23"/>
      <point x="464" y="14" type="curve" smooth="yes"/>
      <point x="479" y="5"/>
      <point x="499" y="0"/>
      <point x="524" y="0" type="curve" smooth="yes"/>
      <point x="579" y="0" type="line"/>
      <point x="602" y="110" type="line"/>
      <point x="579" y="110" type="line" smooth="yes"/>
      <point x="565" y="110"/>
      <point x="553" y="112"/>
      <point x="545" y="117" type="curve" smooth="yes"/>
      <point x="536" y="122"/>
      <point x="528" y="130"/>
      <point x="520" y="142" type="curve" smooth="yes"/>
      <point x="512" y="154" type="line"/>
      <point x="637" y="267" type="line"/>
      <point x="572" y="339" type="line"/>
      <point x="459" y="236" type="line"/>
      <point x="373" y="367" type="line"/>
      <point x="430" y="399"/>
      <point x="472" y="429"/>
      <point x="499" y="457" type="curve" smooth="yes"/>
      <point x="526" y="484"/>
      <point x="542" y="516"/>
      <point x="550" y="551" type="curve" smooth="yes"/>
      <point x="560" y="602"/>
      <point x="551" y="643"/>
      <point x="522" y="674" type="curve" smooth="yes"/>
      <point x="494" y="705"/>
      <point x="451" y="721"/>
      <point x="394" y="721" type="curve" smooth="yes"/>
      <point x="338" y="721"/>
      <point x="290" y="706"/>
      <point x="248" y="675" type="curve" smooth="yes"/>
      <point x="207" y="644"/>
      <point x="180" y="602"/>
      <point x="170" y="551" type="curve" smooth="yes"/>
      <point x="164" y="525"/>
      <point x="164" y="500"/>
      <point x="170" y="477" type="curve" smooth="yes"/>
      <point x="176" y="454"/>
      <point x="189" y="425"/>
      <point x="209" y="391" type="curve"/>
      <point x="156" y="361"/>
      <point x="115" y="330"/>
      <point x="87" y="297" type="curve" smooth="yes"/>
      <point x="58" y="264"/>
      <point x="39" y="227"/>
      <point x="31" y="186" type="curve" smooth="yes"/>
      <point x="18" y="127"/>
      <point x="27" y="79"/>
      <point x="59" y="42" type="curve" smooth="yes"/>
      <point x="89" y="5"/>
      <point x="138" y="-14"/>
    </contour>
    <contour>
      <point x="165" y="121" type="curve" smooth="yes"/>
      <point x="151" y="138"/>
      <point x="146" y="161"/>
      <point x="153" y="191" type="curve" smooth="yes"/>
      <point x="157" y="213"/>
      <point x="167" y="233"/>
      <point x="184" y="251" type="curve" smooth="yes"/>
      <point x="201" y="268"/>
      <point x="227" y="287"/>
      <point x="262" y="308" type="curve"/>
      <point x="363" y="150" type="line"/>
      <point x="338" y="130"/>
      <point x="315" y="116"/>
      <point x="295" y="108" type="curve" smooth="yes"/>
      <point x="275" y="99"/>
      <point x="255" y="95"/>
      <point x="234" y="95" type="curve" smooth="yes"/>
      <point x="203" y="95"/>
      <point x="180" y="104"/>
    </contour>
    <contour>
      <point x="323" y="446" type="curve"/>
      <point x="306" y="472"/>
      <point x="296" y="493"/>
      <point x="291" y="509" type="curve" smooth="yes"/>
      <point x="286" y="525"/>
      <point x="285" y="541"/>
      <point x="289" y="556" type="curve" smooth="yes"/>
      <point x="293" y="577"/>
      <point x="302" y="593"/>
      <point x="318" y="605" type="curve" smooth="yes"/>
      <point x="333" y="617"/>
      <point x="352" y="623"/>
      <point x="375" y="623" type="curve" smooth="yes"/>
      <point x="398" y="623"/>
      <point x="414" y="617"/>
      <point x="425" y="604" type="curve" smooth="yes"/>
      <point x="435" y="591"/>
      <point x="439" y="575"/>
      <point x="434" y="554" type="curve" smooth="yes"/>
      <point x="430" y="536"/>
      <point x="421" y="519"/>
      <point x="406" y="503" type="curve" smooth="yes"/>
      <point x="389" y="486"/>
      <point x="362" y="467"/>
    </contour>
  </outline>
</glyph>
<glyph name="parenleft" format="2">
  <advance width="330"/>
  <unicode hex="0028"/>
  <outline>
    <contour>
      <point x="62" y="337" type="curve" smooth="yes"/>
      <point x="79" y="417"/>
      <point x="107" y="493"/>
      <point x="146" y="564" type="curve" smooth="yes"/>
      <point x="185" y="635"/>
      <point x="234" y="699"/>
      <point x="294" y="758" type="curve"/>
      <point x="388" y="758" type="line"/>
      <point x="338" y="697"/>
      <point x="297" y="630"/>
      <point x="263" y="559" type="curve" smooth="yes"/>
      <point x="229" y="487"/>
      <point x="204" y="413"/>
      <point x="188" y="336" type="curve" smooth="yes"/>
      <point x="172" y="259"/>
      <point x="165" y="185"/>
      <point x="170" y="114" type="curve" smooth="yes"/>
      <point x="174" y="42"/>
      <point x="187" y="-25"/>
      <point x="211" y="-86" type="curve"/>
      <point x="117" y="-86" type="line"/>
      <point x="83" y="-25"/>
      <point x="62" y="41"/>
      <point x="52" y="112" type="curve" smooth="yes"/>
      <point x="42" y="183"/>
      <point x="46" y="258"/>
    </contour>
  </outline>
</glyph>
<glyph name="asterisk" format="2">
  <advance width="423"/>
  <unicode hex="002A"/>
  <outline>
    <contour>
      <point x="205" y="398" type="line"/>
      <point x="276" y="398" type="line"/>
      <point x="297" y="502" type="line"/>
      <point x="386" y="452" type="line"/>
      <point x="428" y="507" type="line"/>
      <point x="345" y="554" type="line"/>
      <point x="447" y="601" type="line"/>
      <point x="429" y="656" type="line"/>
      <point x="319" y="605" type="line"/>
      <point x="340" y="707" type="line"/>
      <point x="269" y="707" type="line"/>
      <point x="248" y="606" type="line"/>
      <point x="158" y="656" type="line"/>
      <point x="117" y="601" type="line"/>
      <point x="199" y="554" type="line"/>
      <point x="97" y="507" type="line"/>
      <point x="116" y="452" type="line"/>
      <point x="227" y="503" type="line"/>
    </contour>
  </outline>
</glyph>
<glyph name="hyphen" format="2">
  <advance width="409"/>
  <unicode hex="002D"/>
  <outline>
    <contour>
      <point x="53" y="295" type="line"/>
      <point x="370" y="295" type="line"/>
      <point x="395" y="413" type="line"/>
      <point x="78" y="413" type="line"/>
    </contour>
  </outline>
</glyph>
<glyph name="period" format="2">
  <advance width="220"/>
  <unicode hex="002E"/>
  <outline>
    <contour>
      <point x="-16" y="0" type="line"/>
      <point x="126" y="0" type="line"/>
      <point x="156" y="145" type="line"/>
      <point x="14" y="145" type="line"/>
    </contour>
  </outline>
</glyph>
<glyph name="slash" format="2">
  <advance width="455"/>
  <unicode hex="002F"/>
  <outline>
    <contour>
      <point x="395" y="712" type="line"/>
      <point x="503" y="712" type="line"/>
      <point x="97" y="-10" type="line"/>
      <point x="-10" y="-10" type="line"/>
    </contour>
  </outline>
</glyph>
<glyph name="zero" format="2">
  <advance width="577"/>
  <unicode hex="0030"/>
  <outline>
    <contour>
      <point x="237" y="-11" type="curve" smooth="yes"/>
      <point x="316" y="-11"/>
      <point x="380" y="11"/>
      <point x="428" y="55" type="curve" smooth="yes"/>
      <point x="476" y="98"/>
      <point x="510" y="163"/>
      <point x="528" y="248" type="curve" smooth="yes"/>
      <point x="573" y="467" type="line" smooth="yes"/>
      <point x="590" y="550"/>
      <point x="583" y="612"/>
      <point x="553" y="655" type="curve" smooth="yes"/>
      <point x="523" y="697"/>
      <point x="467" y="718"/>
      <point x="388" y="718" type="curve" smooth="yes"/>
      <point x="310" y="718"/>
      <point x="247" y="697"/>
      <point x="198" y="655" type="curve" smooth="yes"/>
      <point x="148" y="612"/>
      <point x="115" y="550"/>
      <point x="98" y="467" type="curve" smooth="yes"/>
      <point x="53" y="248" type="line" smooth="yes"/>
      <point x="17" y="75"/>
      <point x="78" y="-11"/>
    </contour>
    <contour>
      <point x="190" y="142" type="curve" smooth="yes"/>
      <point x="179" y="166"/>
      <point x="179" y="205"/>
      <point x="190" y="259" type="curve" smooth="yes"/>
      <point x="229" y="447" type="line" smooth="yes"/>
      <point x="240" y="501"/>
      <point x="256" y="540"/>
      <point x="277" y="564" type="curve" smooth="yes"/>
      <point x="298" y="588"/>
      <point x="327" y="600"/>
      <point x="364" y="600" type="curve" smooth="yes"/>
      <point x="401" y="600"/>
      <point x="424" y="588"/>
      <point x="435" y="564" type="curve" smooth="yes"/>
      <point x="446" y="540"/>
      <point x="446" y="501"/>
      <point x="435" y="447" type="curve" smooth="yes"/>
      <point x="396" y="259" type="line" smooth="yes"/>
      <point x="385" y="205"/>
      <point x="369" y="166"/>
      <point x="349" y="142" type="curve" smooth="yes"/>
      <point x="327" y="117"/>
      <point x="298" y="105"/>
      <point x="261" y="105" type="curve" smooth="yes"/>
      <point x="224" y="105"/>
      <point x="200" y="117"/>
    </contour>
  </outline>
</glyph>
<glyph name="one" format="2">
  <advance width="388"/>
  <unicode hex="0031"/>
  <outline>
    <contour>
      <point x="132" y="0" type="line"/>
      <point x="267" y="0" type="line"/>
      <point x="414" y="707" type="line"/>
      <point x="279" y="707" type="line"/>
      <point x="110" y="617" type="line"/>
      <point x="82" y="479" type="line"/>
      <point x="250" y="566" type="line"/>
    </contour>
  </outline>
</glyph>
<glyph name="two" format="2">
  <advance width="557"/>
  <unicode hex="0032"/>
  <outline>
    <contour>
      <point x="22" y="106" type="line"/>
      <point x="345" y="389" type="line" smooth="yes"/>
      <point x="372" y="411"/>
      <point x="393" y="431"/>
      <point x="405" y="448" type="curve" smooth="yes"/>
      <point x="418" y="465"/>
      <point x="426" y="484"/>
      <point x="430" y="505" type="curve" smooth="yes"/>
      <point x="432" y="516" type="line" smooth="yes"/>
      <point x="438" y="543"/>
      <point x="433" y="565"/>
      <point x="419" y="581" type="curve" smooth="yes"/>
      <point x="404" y="596"/>
      <point x="381" y="604"/>
      <point x="350" y="604" type="curve" smooth="yes"/>
      <point x="319" y="604"/>
      <point x="293" y="597"/>
      <point x="272" y="582" type="curve" smooth="yes"/>
      <point x="251" y="567"/>
      <point x="238" y="546"/>
      <point x="232" y="519" type="curve" smooth="yes"/>
      <point x="229" y="503" type="line"/>
      <point x="101" y="503" type="line"/>
      <point x="106" y="527" type="line" smooth="yes"/>
      <point x="118" y="585"/>
      <point x="148" y="631"/>
      <point x="196" y="666" type="curve" smooth="yes"/>
      <point x="245" y="701"/>
      <point x="304" y="718"/>
      <point x="375" y="718" type="curve" smooth="yes"/>
      <point x="423" y="718"/>
      <point x="464" y="710"/>
      <point x="495" y="693" type="curve" smooth="yes"/>
      <point x="527" y="676"/>
      <point x="549" y="653"/>
      <point x="562" y="623" type="curve" smooth="yes"/>
      <point x="574" y="593"/>
      <point x="576" y="558"/>
      <point x="568" y="519" type="curve" smooth="yes"/>
      <point x="565" y="506" type="line" smooth="yes"/>
      <point x="558" y="470"/>
      <point x="544" y="437"/>
      <point x="524" y="408" type="curve" smooth="yes"/>
      <point x="503" y="379"/>
      <point x="475" y="349"/>
      <point x="438" y="318" type="curve" smooth="yes"/>
      <point x="207" y="118" type="line"/>
      <point x="486" y="118" type="line"/>
      <point x="461" y="0" type="line"/>
      <point x="0" y="0" type="line"/>
    </contour>
  </outline>
</glyph>
<glyph name="three" format="2">
  <advance width="568"/>
  <unicode hex="0033"/>
  <outline>
    <contour>
      <point x="229" y="-11" type="curve" smooth="yes"/>
      <point x="301" y="-11"/>
      <point x="362" y="8"/>
      <point x="412" y="45" type="curve" smooth="yes"/>
      <point x="463" y="82"/>
      <point x="495" y="133"/>
      <point x="508" y="197" type="curve" smooth="yes"/>
      <point x="511" y="213" type="line" smooth="yes"/>
      <point x="520" y="253"/>
      <point x="518" y="287"/>
      <point x="505" y="316" type="curve" smooth="yes"/>
      <point x="492" y="344"/>
      <point x="469" y="364"/>
      <point x="435" y="376" type="curve"/>
      <point x="470" y="390"/>
      <point x="498" y="409"/>
      <point x="520" y="434" type="curve" smooth="yes"/>
      <point x="542" y="459"/>
      <point x="556" y="487"/>
      <point x="563" y="520" type="curve" smooth="yes"/>
      <point x="566" y="534" type="line" smooth="yes"/>
      <point x="578" y="591"/>
      <point x="567" y="636"/>
      <point x="534" y="669" type="curve" smooth="yes"/>
      <point x="500" y="702"/>
      <point x="448" y="718"/>
      <point x="377" y="718" type="curve" smooth="yes"/>
      <point x="304" y="718"/>
      <point x="246" y="701"/>
      <point x="200" y="667" type="curve" smooth="yes"/>
      <point x="154" y="633"/>
      <point x="123" y="584"/>
      <point x="110" y="521" type="curve" smooth="yes"/>
      <point x="108" y="512" type="line"/>
      <point x="231" y="512" type="line"/>
      <point x="233" y="521" type="line" smooth="yes"/>
      <point x="239" y="548"/>
      <point x="252" y="568"/>
      <point x="272" y="583" type="curve" smooth="yes"/>
      <point x="292" y="597"/>
      <point x="319" y="604"/>
      <point x="351" y="604" type="curve" smooth="yes"/>
      <point x="382" y="604"/>
      <point x="405" y="597"/>
      <point x="419" y="582" type="curve" smooth="yes"/>
      <point x="433" y="567"/>
      <point x="437" y="547"/>
      <point x="431" y="520" type="curve" smooth="yes"/>
      <point x="429" y="508" type="line" smooth="yes"/>
      <point x="423" y="480"/>
      <point x="409" y="459"/>
      <point x="388" y="444" type="curve" smooth="yes"/>
      <point x="366" y="429"/>
      <point x="339" y="421"/>
      <point x="304" y="421" type="curve" smooth="yes"/>
      <point x="265" y="421" type="line"/>
      <point x="241" y="307" type="line"/>
      <point x="281" y="307" type="line" smooth="yes"/>
      <point x="321" y="307"/>
      <point x="349" y="299"/>
      <point x="365" y="284" type="curve" smooth="yes"/>
      <point x="381" y="269"/>
      <point x="386" y="245"/>
      <point x="379" y="213" type="curve" smooth="yes"/>
      <point x="376" y="198" type="line" smooth="yes"/>
      <point x="370" y="168"/>
      <point x="356" y="145"/>
      <point x="335" y="128" type="curve" smooth="yes"/>
      <point x="312" y="111"/>
      <point x="284" y="102"/>
      <point x="250" y="102" type="curve" smooth="yes"/>
      <point x="215" y="102"/>
      <point x="190" y="109"/>
      <point x="175" y="123" type="curve" smooth="yes"/>
      <point x="158" y="137"/>
      <point x="154" y="157"/>
      <point x="159" y="184" type="curve" smooth="yes"/>
      <point x="161" y="193" type="line"/>
      <point x="36" y="193" type="line"/>
      <point x="34" y="181" type="line" smooth="yes"/>
      <point x="21" y="119"/>
      <point x="31" y="72"/>
      <point x="65" y="39" type="curve" smooth="yes"/>
      <point x="98" y="6"/>
      <point x="153" y="-11"/>
    </contour>
  </outline>
</glyph>
<glyph name="four" format="2">
  <advance width="590"/>
  <unicode hex="0034"/>
  <outline>
    <contour>
      <point x="528" y="113" type="line"/>
      <point x="464" y="113" type="line"/>
      <point x="440" y="0" type="line"/>
      <point x="305" y="0" type="line"/>
      <point x="329" y="113" type="line"/>
      <point x="9" y="113" type="line"/>
      <point x="33" y="230" type="line"/>
      <point x="358" y="707" type="line"/>
      <point x="495" y="707" type="line"/>
      <point x="169" y="230" type="line"/>
      <point x="353" y="230" type="line"/>
      <point x="387" y="396" type="line"/>
      <point x="522" y="396" type="line"/>
      <point x="488" y="230" type="line"/>
      <point x="552" y="230" type="line"/>
    </contour>
  </outline>
</glyph>
<glyph name="five" format="2">
  <advance width="560"/>
  <unicode hex="0035"/>
  <outline>
    <contour>
      <point x="223" y="-11" type="curve" smooth="yes"/>
      <point x="297" y="-11"/>
      <point x="359" y="9"/>
      <point x="408" y="48" type="curve" smooth="yes"/>
      <point x="457" y="87"/>
      <point x="488" y="141"/>
      <point x="503" y="210" type="curve" smooth="yes"/>
      <point x="511" y="249" type="line" smooth="yes"/>
      <point x="525" y="317"/>
      <point x="518" y="370"/>
      <point x="490" y="408" type="curve" smooth="yes"/>
      <point x="462" y="446"/>
      <point x="416" y="465"/>
      <point x="351" y="465" type="curve" smooth="yes"/>
      <point x="302" y="465"/>
      <point x="257" y="452"/>
      <point x="218" y="427" type="curve"/>
      <point x="252" y="592" type="line"/>
      <point x="561" y="592" type="line"/>
      <point x="585" y="707" type="line"/>
      <point x="161" y="707" type="line"/>
      <point x="77" y="304" type="line"/>
      <point x="194" y="304" type="line"/>
      <point x="207" y="320"/>
      <point x="221" y="333"/>
      <point x="240" y="342" type="curve" smooth="yes"/>
      <point x="258" y="351"/>
      <point x="278" y="355"/>
      <point x="300" y="355" type="curve" smooth="yes"/>
      <point x="333" y="355"/>
      <point x="356" y="346"/>
      <point x="369" y="327" type="curve" smooth="yes"/>
      <point x="382" y="308"/>
      <point x="385" y="280"/>
      <point x="378" y="244" type="curve" smooth="yes"/>
      <point x="371" y="212" type="line" smooth="yes"/>
      <point x="364" y="177"/>
      <point x="350" y="150"/>
      <point x="329" y="131" type="curve" smooth="yes"/>
      <point x="308" y="112"/>
      <point x="280" y="102"/>
      <point x="247" y="102" type="curve" smooth="yes"/>
      <point x="218" y="102"/>
      <point x="196" y="109"/>
      <point x="181" y="122" type="curve" smooth="yes"/>
      <point x="166" y="135"/>
      <point x="161" y="153"/>
      <point x="165" y="174" type="curve" smooth="yes"/>
      <point x="166" y="178" type="line"/>
      <point x="38" y="178" type="line"/>
      <point x="36" y="170" type="line" smooth="yes"/>
      <point x="25" y="113"/>
      <point x="35" y="69"/>
      <point x="70" y="37" type="curve" smooth="yes"/>
      <point x="103" y="5"/>
      <point x="154" y="-11"/>
    </contour>
  </outline>
</glyph>
<glyph name="six" format="2">
  <advance width="582"/>
  <unicode hex="0036"/>
  <outline>
    <contour>
      <point x="38" y="204" type="curve" smooth="yes"/>
      <point x="43" y="224" type="line" smooth="yes"/>
      <point x="53" y="276"/>
      <point x="82" y="332"/>
      <point x="129" y="392" type="curve" smooth="yes"/>
      <point x="377" y="707" type="line"/>
      <point x="522" y="707" type="line"/>
      <point x="294" y="417" type="line"/>
      <point x="315" y="426"/>
      <point x="341" y="431"/>
      <point x="372" y="431" type="curve" smooth="yes"/>
      <point x="433" y="431"/>
      <point x="479" y="413"/>
      <point x="509" y="377" type="curve" smooth="yes"/>
      <point x="539" y="340"/>
      <point x="548" y="291"/>
      <point x="535" y="229" type="curve" smooth="yes"/>
      <point x="530" y="208" type="line" smooth="yes"/>
      <point x="516" y="140"/>
      <point x="483" y="87"/>
      <point x="431" y="48" type="curve" smooth="yes"/>
      <point x="378" y="9"/>
      <point x="314" y="-11"/>
      <point x="239" y="-11" type="curve" smooth="yes"/>
      <point x="162" y="-11"/>
      <point x="106" y="8"/>
      <point x="71" y="46" type="curve" smooth="yes"/>
      <point x="35" y="83"/>
      <point x="24" y="136"/>
    </contour>
    <contour>
      <point x="395" y="203" type="curve" smooth="yes"/>
      <point x="399" y="221" type="line" smooth="yes"/>
      <point x="405" y="252"/>
      <point x="401" y="277"/>
      <point x="384" y="294" type="curve" smooth="yes"/>
      <point x="368" y="311"/>
      <point x="342" y="319"/>
      <point x="307" y="319" type="curve" smooth="yes"/>
      <point x="272" y="319"/>
      <point x="244" y="311"/>
      <point x="221" y="294" type="curve" smooth="yes"/>
      <point x="198" y="277"/>
      <point x="183" y="253"/>
      <point x="176" y="222" type="curve" smooth="yes"/>
      <point x="172" y="203" type="line" smooth="yes"/>
      <point x="166" y="172"/>
      <point x="171" y="147"/>
      <point x="187" y="129" type="curve" smooth="yes"/>
      <point x="202" y="111"/>
      <point x="227" y="102"/>
      <point x="262" y="102" type="curve" smooth="yes"/>
      <point x="297" y="102"/>
      <point x="326" y="111"/>
      <point x="350" y="129" type="curve" smooth="yes"/>
      <point x="374" y="147"/>
      <point x="389" y="172"/>
    </contour>
  </outline>
</glyph>
<glyph name="seven" format="2">
  <advance width="519"/>
  <unicode hex="0037"/>
  <outline>
    <contour>
      <point x="51" y="0" type="line"/>
      <point x="188" y="0" type="line"/>
      <point x="560" y="590" type="line"/>
      <point x="584" y="707" type="line"/>
      <point x="126" y="707" type="line"/>
      <point x="102" y="590" type="line"/>
      <point x="425" y="590" type="line"/>
    </contour>
  </outline>
</glyph>
<glyph name="eight" format="2">
  <advance width="591"/>
  <unicode hex="0038"/>
  <outline>
    <contour>
      <point x="244" y="-11" type="curve" smooth="yes"/>
      <point x="319" y="-11"/>
      <point x="382" y="8"/>
      <point x="435" y="46" type="curve" smooth="yes"/>
      <point x="486" y="84"/>
      <point x="519" y="136"/>
      <point x="533" y="201" type="curve" smooth="yes"/>
      <point x="536" y="215" type="line" smooth="yes"/>
      <point x="543" y="248"/>
      <point x="540" y="278"/>
      <point x="529" y="306" type="curve" smooth="yes"/>
      <point x="517" y="333"/>
      <point x="497" y="355"/>
      <point x="469" y="371" type="curve"/>
      <point x="498" y="384"/>
      <point x="523" y="403"/>
      <point x="543" y="428" type="curve" smooth="yes"/>
      <point x="563" y="453"/>
      <point x="577" y="480"/>
      <point x="583" y="511" type="curve" smooth="yes"/>
      <point x="586" y="522" type="line" smooth="yes"/>
      <point x="594" y="561"/>
      <point x="592" y="595"/>
      <point x="580" y="625" type="curve" smooth="yes"/>
      <point x="567" y="654"/>
      <point x="546" y="677"/>
      <point x="514" y="694" type="curve" smooth="yes"/>
      <point x="483" y="710"/>
      <point x="443" y="718"/>
      <point x="396" y="718" type="curve" smooth="yes"/>
      <point x="349" y="718"/>
      <point x="307" y="710"/>
      <point x="268" y="694" type="curve" smooth="yes"/>
      <point x="230" y="677"/>
      <point x="199" y="654"/>
      <point x="175" y="624" type="curve" smooth="yes"/>
      <point x="150" y="594"/>
      <point x="133" y="560"/>
      <point x="126" y="522" type="curve" smooth="yes"/>
      <point x="123" y="511" type="line" smooth="yes"/>
      <point x="117" y="480"/>
      <point x="119" y="452"/>
      <point x="129" y="427" type="curve" smooth="yes"/>
      <point x="139" y="402"/>
      <point x="155" y="384"/>
      <point x="178" y="371" type="curve"/>
      <point x="144" y="356"/>
      <point x="114" y="334"/>
      <point x="92" y="307" type="curve" smooth="yes"/>
      <point x="68" y="279"/>
      <point x="53" y="248"/>
      <point x="46" y="214" type="curve" smooth="yes"/>
      <point x="43" y="200" type="line" smooth="yes"/>
      <point x="29" y="135"/>
      <point x="40" y="83"/>
      <point x="78" y="46" type="curve" smooth="yes"/>
      <point x="114" y="8"/>
      <point x="169" y="-11"/>
    </contour>
    <contour>
      <point x="190" y="129" type="curve" smooth="yes"/>
      <point x="173" y="146"/>
      <point x="169" y="171"/>
      <point x="175" y="202" type="curve" smooth="yes"/>
      <point x="178" y="217" type="line" smooth="yes"/>
      <point x="184" y="247"/>
      <point x="199" y="271"/>
      <point x="224" y="288" type="curve" smooth="yes"/>
      <point x="247" y="305"/>
      <point x="277" y="313"/>
      <point x="312" y="313" type="curve" smooth="yes"/>
      <point x="347" y="313"/>
      <point x="373" y="305"/>
      <point x="390" y="288" type="curve" smooth="yes"/>
      <point x="406" y="271"/>
      <point x="411" y="247"/>
      <point x="405" y="217" type="curve" smooth="yes"/>
      <point x="402" y="202" type="line" smooth="yes"/>
      <point x="396" y="171"/>
      <point x="380" y="146"/>
      <point x="357" y="129" type="curve" smooth="yes"/>
      <point x="333" y="111"/>
      <point x="303" y="102"/>
      <point x="268" y="102" type="curve" smooth="yes"/>
      <point x="232" y="102"/>
      <point x="206" y="111"/>
    </contour>
    <contour>
      <point x="267" y="447" type="curve" smooth="yes"/>
      <point x="253" y="462"/>
      <point x="248" y="483"/>
      <point x="254" y="510" type="curve" smooth="yes"/>
      <point x="256" y="521" type="line" smooth="yes"/>
      <point x="262" y="547"/>
      <point x="275" y="567"/>
      <point x="295" y="582" type="curve" smooth="yes"/>
      <point x="315" y="597"/>
      <point x="342" y="604"/>
      <point x="373" y="604" type="curve" smooth="yes"/>
      <point x="404" y="604"/>
      <point x="426" y="597"/>
      <point x="440" y="582" type="curve" smooth="yes"/>
      <point x="454" y="567"/>
      <point x="459" y="547"/>
      <point x="453" y="521" type="curve" smooth="yes"/>
      <point x="451" y="510" type="line" smooth="yes"/>
      <point x="445" y="483"/>
      <point x="433" y="462"/>
      <point x="413" y="447" type="curve" smooth="yes"/>
      <point x="393" y="432"/>
      <point x="366" y="424"/>
      <point x="335" y="424" type="curve" smooth="yes"/>
      <point x="303" y="424"/>
      <point x="281" y="432"/>
    </contour>
  </outline>
</glyph>
<glyph name="nine" format="2">
  <advance width="582"/>
  <unicode hex="0039"/>
  <outline>
    <contour>
      <point x="335" y="290" type="line"/>
      <point x="312" y="281"/>
      <point x="286" y="276"/>
      <point x="258" y="275" type="curve" smooth="yes"/>
      <point x="197" y="275"/>
      <point x="151" y="294"/>
      <point x="122" y="331" type="curve" smooth="yes"/>
      <point x="92" y="368"/>
      <point x="83" y="417"/>
      <point x="95" y="478" type="curve" smooth="yes"/>
      <point x="100" y="500" type="line" smooth="yes"/>
      <point x="114" y="568"/>
      <point x="147" y="621"/>
      <point x="199" y="660" type="curve" smooth="yes"/>
      <point x="250" y="699"/>
      <point x="314" y="718"/>
      <point x="390" y="718" type="curve" smooth="yes"/>
      <point x="467" y="718"/>
      <point x="524" y="699"/>
      <point x="559" y="661" type="curve" smooth="yes"/>
      <point x="595" y="623"/>
      <point x="606" y="571"/>
      <point x="592" y="504" type="curve" smooth="yes"/>
      <point x="587" y="482" type="line" smooth="yes"/>
      <point x="576" y="429"/>
      <point x="547" y="373"/>
      <point x="499" y="314" type="curve" smooth="yes"/>
      <point x="252" y="0" type="line"/>
      <point x="108" y="0" type="line"/>
    </contour>
    <contour>
      <point x="453" y="485" type="curve" smooth="yes"/>
      <point x="457" y="505" type="line" smooth="yes"/>
      <point x="463" y="536"/>
      <point x="459" y="561"/>
      <point x="443" y="578" type="curve" smooth="yes"/>
      <point x="427" y="595"/>
      <point x="402" y="604"/>
      <point x="367" y="604" type="curve" smooth="yes"/>
      <point x="332" y="604"/>
      <point x="303" y="595"/>
      <point x="280" y="578" type="curve" smooth="yes"/>
      <point x="256" y="560"/>
      <point x="241" y="535"/>
      <point x="235" y="504" type="curve" smooth="yes"/>
      <point x="231" y="486" type="line" smooth="yes"/>
      <point x="225" y="455"/>
      <point x="229" y="430"/>
      <point x="246" y="413" type="curve" smooth="yes"/>
      <point x="261" y="396"/>
      <point x="286" y="387"/>
      <point x="321" y="387" type="curve" smooth="yes"/>
      <point x="356" y="387"/>
      <point x="385" y="396"/>
      <point x="409" y="413" type="curve" smooth="yes"/>
      <point x="431" y="430"/>
      <point x="446" y="454"/>
    </contour>
  </outline>
</glyph>
<glyph name="colon" format="2">
  <advance width="220"/>
  <unicode hex="003A"/>
  <outline>
    <contour>
      <point x="56" y="346" type="line"/>
      <point x="198" y="346" type="line"/>
      <point x="228" y="492" type="line"/>
      <point x="86" y="492" type="line"/>
    </contour>
    <contour>
      <point x="-16" y="0" type="line"/>
      <point x="126" y="0" type="line"/>
      <point x="156" y="145" type="line"/>
      <point x="14" y="145" type="line"/>
    </contour>
  </outline>
</glyph>
<glyph name="question" format="2">
  <advance width="512"/>
  <unicode hex="003F"/>
  <outline>
    <contour>
      <point x="180" y="245" type="line" smooth="yes"/>
      <point x="187" y="278"/>
      <point x="196" y="304"/>
      <point x="208" y="323" type="curve" smooth="yes"/>
      <point x="219" y="342"/>
      <point x="239" y="362"/>
      <point x="268" y="384" type="curve" smooth="yes"/>
      <point x="331" y="438" type="line" smooth="yes"/>
      <point x="354" y="456"/>
      <point x="371" y="472"/>
      <point x="381" y="485" type="curve" smooth="yes"/>
      <point x="391" y="498"/>
      <point x="397" y="512"/>
      <point x="401" y="527" type="curve" smooth="yes"/>
      <point x="406" y="551"/>
      <point x="401" y="569"/>
      <point x="388" y="582" type="curve" smooth="yes"/>
      <point x="374" y="595"/>
      <point x="351" y="601"/>
      <point x="318" y="601" type="curve" smooth="yes"/>
      <point x="285" y="601"/>
      <point x="260" y="594"/>
      <point x="242" y="581" type="curve" smooth="yes"/>
      <point x="224" y="568"/>
      <point x="212" y="547"/>
      <point x="205" y="520" type="curve"/>
      <point x="81" y="520" type="line"/>
      <point x="112" y="651"/>
      <point x="200" y="717"/>
      <point x="345" y="717" type="curve" smooth="yes"/>
      <point x="416" y="717"/>
      <point x="468" y="701"/>
      <point x="501" y="669" type="curve" smooth="yes"/>
      <point x="534" y="636"/>
      <point x="545" y="591"/>
      <point x="533" y="534" type="curve" smooth="yes"/>
      <point x="521" y="477"/>
      <point x="489" y="428"/>
      <point x="436" y="386" type="curve" smooth="yes"/>
      <point x="364" y="324" type="line" smooth="yes"/>
      <point x="345" y="309"/>
      <point x="331" y="295"/>
      <point x="324" y="282" type="curve" smooth="yes"/>
      <point x="315" y="269"/>
      <point x="308" y="251"/>
      <point x="304" y="229" type="curve" smooth="yes"/>
      <point x="297" y="198" type="line"/>
      <point x="170" y="198" type="line"/>
    </contour>
    <contour>
      <point x="152" y="129" type="line"/>
      <point x="286" y="129" type="line"/>
      <point x="259" y="0" type="line"/>
      <point x="125" y="0" type="line"/>
    </contour>
  </outline>
</glyph>
<glyph name="at" format="2">
  <advance width="894"/>
  <unicode hex="0040"/>
  <outline>
    <contour>
      <point x="44" y="252" type="curve" smooth="yes"/>
      <point x="59" y="324" type="line" smooth="yes"/>
      <point x="75" y="401"/>
      <point x="107" y="469"/>
      <point x="153" y="528" type="curve" smooth="yes"/>
      <point x="198" y="587"/>
      <point x="256" y="633"/>
      <point x="323" y="666" type="curve" smooth="yes"/>
      <point x="391" y="699"/>
      <point x="464" y="715"/>
      <point x="543" y="715" type="curve" smooth="yes"/>
      <point x="620" y="715"/>
      <point x="685" y="699"/>
      <point x="739" y="666" type="curve" smooth="yes"/>
      <point x="793" y="633"/>
      <point x="830" y="588"/>
      <point x="853" y="529" type="curve" smooth="yes"/>
      <point x="875" y="470"/>
      <point x="878" y="404"/>
      <point x="862" y="329" type="curve" smooth="yes"/>
      <point x="847" y="257" type="line" smooth="yes"/>
      <point x="834" y="192"/>
      <point x="808" y="142"/>
      <point x="767" y="107" type="curve" smooth="yes"/>
      <point x="727" y="72"/>
      <point x="682" y="55"/>
      <point x="632" y="55" type="curve" smooth="yes"/>
      <point x="601" y="55"/>
      <point x="577" y="61"/>
      <point x="557" y="73" type="curve" smooth="yes"/>
      <point x="537" y="84"/>
      <point x="524" y="101"/>
      <point x="517" y="122" type="curve"/>
      <point x="486" y="77"/>
      <point x="437" y="55"/>
      <point x="372" y="55" type="curve" smooth="yes"/>
      <point x="269" y="55"/>
      <point x="230" y="117"/>
      <point x="256" y="241" type="curve" smooth="yes"/>
      <point x="275" y="331" type="line" smooth="yes"/>
      <point x="287" y="390"/>
      <point x="308" y="435"/>
      <point x="340" y="468" type="curve" smooth="yes"/>
      <point x="371" y="501"/>
      <point x="411" y="517"/>
      <point x="461" y="517" type="curve" smooth="yes"/>
      <point x="486" y="517"/>
      <point x="506" y="512"/>
      <point x="524" y="503" type="curve" smooth="yes"/>
      <point x="541" y="493"/>
      <point x="551" y="480"/>
      <point x="557" y="465" type="curve"/>
      <point x="565" y="506" type="line"/>
      <point x="677" y="506" type="line"/>
      <point x="617" y="214" type="line" smooth="yes"/>
      <point x="612" y="192"/>
      <point x="614" y="176"/>
      <point x="621" y="166" type="curve" smooth="yes"/>
      <point x="627" y="155"/>
      <point x="638" y="150"/>
      <point x="653" y="150" type="curve" smooth="yes"/>
      <point x="672" y="150"/>
      <point x="689" y="158"/>
      <point x="701" y="175" type="curve" smooth="yes"/>
      <point x="714" y="192"/>
      <point x="725" y="219"/>
      <point x="732" y="256" type="curve" smooth="yes"/>
      <point x="747" y="328" type="line" smooth="yes"/>
      <point x="759" y="386"/>
      <point x="759" y="436"/>
      <point x="745" y="479" type="curve" smooth="yes"/>
      <point x="731" y="522"/>
      <point x="705" y="555"/>
      <point x="667" y="578" type="curve" smooth="yes"/>
      <point x="629" y="601"/>
      <point x="580" y="612"/>
      <point x="521" y="612" type="curve" smooth="yes"/>
      <point x="432" y="612"/>
      <point x="357" y="587"/>
      <point x="295" y="536" type="curve" smooth="yes"/>
      <point x="234" y="485"/>
      <point x="193" y="415"/>
      <point x="175" y="326" type="curve" smooth="yes"/>
      <point x="160" y="253" type="line" smooth="yes"/>
      <point x="148" y="195"/>
      <point x="148" y="144"/>
      <point x="162" y="101" type="curve" smooth="yes"/>
      <point x="176" y="57"/>
      <point x="202" y="23"/>
      <point x="240" y="-1" type="curve" smooth="yes"/>
      <point x="278" y="-25"/>
      <point x="326" y="-37"/>
      <point x="386" y="-37" type="curve" smooth="yes"/>
      <point x="427" y="-37"/>
      <point x="464" y="-33"/>
      <point x="499" y="-24" type="curve" smooth="yes"/>
      <point x="534" y="-15"/>
      <point x="570" y="-2"/>
      <point x="608" y="15" type="curve"/>
      <point x="636" y="-72" type="line"/>
      <point x="592" y="-95"/>
      <point x="548" y="-112"/>
      <point x="504" y="-123" type="curve" smooth="yes"/>
      <point x="461" y="-134"/>
      <point x="414" y="-139"/>
      <point x="365" y="-139" type="curve" smooth="yes"/>
      <point x="286" y="-139"/>
      <point x="220" y="-123"/>
      <point x="166" y="-90" type="curve" smooth="yes"/>
      <point x="112" y="-57"/>
      <point x="74" y="-11"/>
      <point x="53" y="48" type="curve" smooth="yes"/>
      <point x="31" y="107"/>
      <point x="28" y="175"/>
    </contour>
    <contour>
      <point x="509" y="244" type="curve" smooth="yes"/>
      <point x="527" y="330" type="line" smooth="yes"/>
      <point x="539" y="391"/>
      <point x="523" y="421"/>
      <point x="478" y="421" type="curve" smooth="yes"/>
      <point x="454" y="421"/>
      <point x="435" y="413"/>
      <point x="421" y="397" type="curve" smooth="yes"/>
      <point x="406" y="381"/>
      <point x="396" y="359"/>
      <point x="390" y="331" type="curve" smooth="yes"/>
      <point x="372" y="247" type="line" smooth="yes"/>
      <point x="366" y="216"/>
      <point x="367" y="193"/>
      <point x="375" y="177" type="curve" smooth="yes"/>
      <point x="382" y="160"/>
      <point x="398" y="152"/>
      <point x="422" y="152" type="curve" smooth="yes"/>
      <point x="467" y="152"/>
      <point x="496" y="183"/>
    </contour>
  </outline>
</glyph>
<glyph name="A" format="2">
  <advance width="697"/>
  <unicode hex="0041"/>
  <outline>
    <contour>
      <point x="-51" y="0" type="line"/>
      <point x="92" y="0" type="line"/>
      <point x="172" y="137" type="line"/>
      <point x="472" y="137" type="line"/>
      <point x="495" y="0" type="line"/>
      <point x="638" y="0" type="line"/>
      <point x="495" y="707" type="line"/>
      <point x="386" y="707" type="line"/>
    </contour>
    <contour>
      <point x="238" y="249" type="line"/>
      <point x="405" y="537" type="line"/>
      <point x="454" y="249" type="line"/>
    </contour>
  </outline>
</glyph>
<glyph name="B" format="2">
  <advance width="669"/>
  <unicode hex="0042"/>
  <outline>
    <contour>
      <point x="5" y="0" type="line"/>
      <point x="325" y="0" type="line" smooth="yes"/>
      <point x="404" y="0"/>
      <point x="468" y="18"/>
      <point x="517" y="53" type="curve" smooth="yes"/>
      <point x="566" y="88"/>
      <point x="598" y="138"/>
      <point x="611" y="203" type="curve" smooth="yes"/>
      <point x="619" y="241"/>
      <point x="617" y="274"/>
      <point x="604" y="301" type="curve" smooth="yes"/>
      <point x="590" y="328"/>
      <point x="567" y="349"/>
      <point x="534" y="364" type="curve"/>
      <point x="569" y="378"/>
      <point x="598" y="398"/>
      <point x="620" y="424" type="curve" smooth="yes"/>
      <point x="642" y="449"/>
      <point x="657" y="478"/>
      <point x="664" y="510" type="curve" smooth="yes"/>
      <point x="677" y="573"/>
      <point x="666" y="622"/>
      <point x="631" y="656" type="curve" smooth="yes"/>
      <point x="596" y="690"/>
      <point x="539" y="707"/>
      <point x="459" y="707" type="curve" smooth="yes"/>
      <point x="152" y="707" type="line"/>
    </contour>
    <contour>
      <point x="164" y="117" type="line"/>
      <point x="203" y="301" type="line"/>
      <point x="385" y="301" type="line" smooth="yes"/>
      <point x="460" y="301"/>
      <point x="491" y="271"/>
      <point x="479" y="212" type="curve" smooth="yes"/>
      <point x="466" y="149"/>
      <point x="423" y="117"/>
      <point x="351" y="117" type="curve" smooth="yes"/>
    </contour>
    <contour>
      <point x="227" y="418" type="line"/>
      <point x="263" y="590" type="line"/>
      <point x="441" y="590" type="line" smooth="yes"/>
      <point x="512" y="590"/>
      <point x="541" y="561"/>
      <point x="528" y="502" type="curve" smooth="yes"/>
      <point x="524" y="482"/>
      <point x="517" y="465"/>
      <point x="504" y="452" type="curve" smooth="yes"/>
      <point x="482" y="429"/>
      <point x="448" y="418"/>
      <point x="400" y="418" type="curve" smooth="yes"/>
    </contour>
  </outline>
</glyph>
<glyph name="C" format="2">
  <advance width="689"/>
  <unicode hex="0043"/>
  <outline>
    <contour>
      <point x="300" y="-11" type="curve" smooth="yes"/>
      <point x="387" y="-11"/>
      <point x="461" y="10"/>
      <point x="521" y="53" type="curve" smooth="yes"/>
      <point x="581" y="96"/>
      <point x="619" y="156"/>
      <point x="636" y="234" type="curve" smooth="yes"/>
      <point x="637" y="240" type="line"/>
      <point x="504" y="240" type="line"/>
      <point x="503" y="234" type="line" smooth="yes"/>
      <point x="495" y="195"/>
      <point x="475" y="165"/>
      <point x="445" y="143" type="curve" smooth="yes"/>
      <point x="413" y="121"/>
      <point x="374" y="110"/>
      <point x="327" y="110" type="curve" smooth="yes"/>
      <point x="271" y="110"/>
      <point x="232" y="126"/>
      <point x="211" y="157" type="curve" smooth="yes"/>
      <point x="189" y="188"/>
      <point x="185" y="236"/>
      <point x="199" y="301" type="curve" smooth="yes"/>
      <point x="220" y="402" type="line" smooth="yes"/>
      <point x="234" y="470"/>
      <point x="258" y="520"/>
      <point x="293" y="553" type="curve" smooth="yes"/>
      <point x="327" y="586"/>
      <point x="372" y="602"/>
      <point x="428" y="602" type="curve" smooth="yes"/>
      <point x="475" y="602"/>
      <point x="510" y="591"/>
      <point x="532" y="568" type="curve" smooth="yes"/>
      <point x="554" y="545"/>
      <point x="561" y="513"/>
      <point x="553" y="474" type="curve" smooth="yes"/>
      <point x="552" y="470" type="line"/>
      <point x="686" y="470" type="line"/>
      <point x="687" y="478" type="line" smooth="yes"/>
      <point x="703" y="554"/>
      <point x="689" y="613"/>
      <point x="647" y="656" type="curve" smooth="yes"/>
      <point x="604" y="699"/>
      <point x="540" y="720"/>
      <point x="453" y="720" type="curve" smooth="yes"/>
      <point x="358" y="720"/>
      <point x="278" y="694"/>
      <point x="215" y="643" type="curve" smooth="yes"/>
      <point x="151" y="591"/>
      <point x="108" y="513"/>
      <point x="86" y="410" type="curve" smooth="yes"/>
      <point x="63" y="299" type="line" smooth="yes"/>
      <point x="42" y="196"/>
      <point x="53" y="118"/>
      <point x="95" y="67" type="curve" smooth="yes"/>
      <point x="137" y="15"/>
      <point x="205" y="-11"/>
    </contour>
  </outline>
</glyph>
<glyph name="D" format="2">
  <advance width="677"/>
  <unicode hex="0044"/>
  <outline>
    <contour>
      <point x="152" y="707" type="line"/>
      <point x="428" y="707" type="line" smooth="yes"/>
      <point x="522" y="707"/>
      <point x="590" y="682"/>
      <point x="631" y="631" type="curve" smooth="yes"/>
      <point x="672" y="580"/>
      <point x="681" y="502"/>
      <point x="660" y="397" type="curve" smooth="yes"/>
      <point x="641" y="310" type="line" smooth="yes"/>
      <point x="620" y="205"/>
      <point x="577" y="127"/>
      <point x="514" y="76" type="curve" smooth="yes"/>
      <point x="450" y="25"/>
      <point x="371" y="0"/>
      <point x="276" y="0" type="curve" smooth="yes"/>
      <point x="5" y="0" type="line"/>
    </contour>
    <contour>
      <point x="304" y="117" type="line" smooth="yes"/>
      <point x="359" y="117"/>
      <point x="404" y="133"/>
      <point x="437" y="164" type="curve" smooth="yes"/>
      <point x="471" y="195"/>
      <point x="494" y="243"/>
      <point x="507" y="310" type="curve" smooth="yes"/>
      <point x="524" y="390" type="line" smooth="yes"/>
      <point x="538" y="459"/>
      <point x="536" y="510"/>
      <point x="516" y="542" type="curve" smooth="yes"/>
      <point x="495" y="574"/>
      <point x="458" y="590"/>
      <point x="403" y="590" type="curve" smooth="yes"/>
      <point x="263" y="590" type="line"/>
      <point x="164" y="117" type="line"/>
    </contour>
  </outline>
</glyph>
<glyph name="E" format="2">
  <advance width="601"/>
  <unicode hex="0045"/>
  <outline>
    <contour>
      <point x="5" y="0" type="line"/>
      <point x="510" y="0" type="line"/>
      <point x="534" y="117" type="line"/>
      <point x="164" y="117" type="line"/>
      <point x="202" y="298" type="line"/>
      <point x="520" y="298" type="line"/>
      <point x="544" y="415" type="line"/>
      <point x="226" y="415" type="line"/>
      <point x="263" y="590" type="line"/>
      <point x="633" y="590" type="line"/>
      <point x="657" y="707" type="line"/>
      <point x="152" y="707" type="line"/>
    </contour>
  </outline>
</glyph>
<glyph name="F" format="2">
  <advance width="595"/>
  <unicode hex="0046"/>
  <outline>
    <contour>
      <point x="263" y="590" type="line"/>
      <point x="225" y="409" type="line"/>
      <point x="545" y="409" type="line"/>
      <point x="521" y="292" type="line"/>
      <point x="201" y="292" type="line"/>
      <point x="140" y="0" type="line"/>
      <point x="5" y="0" type="line"/>
      <point x="152" y="707" type="line"/>
      <point x="657" y="707" type="line"/>
      <point x="633" y="590" type="line"/>
    </contour>
  </outline>
</glyph>
<glyph name="G" format="2">
  <advance width="689"/>
  <unicode hex="0047"/>
  <outline>
    <contour>
      <point x="63" y="299" type="curve" smooth="yes"/>
      <point x="86" y="410" type="line" smooth="yes"/>
      <point x="108" y="513"/>
      <point x="151" y="591"/>
      <point x="215" y="643" type="curve" smooth="yes"/>
      <point x="278" y="694"/>
      <point x="358" y="720"/>
      <point x="453" y="720" type="curve" smooth="yes"/>
      <point x="510" y="720"/>
      <point x="558" y="711"/>
      <point x="597" y="692" type="curve" smooth="yes"/>
      <point x="636" y="673"/>
      <point x="663" y="646"/>
      <point x="680" y="610" type="curve" smooth="yes"/>
      <point x="695" y="573"/>
      <point x="698" y="530"/>
      <point x="688" y="481" type="curve" smooth="yes"/>
      <point x="686" y="473" type="line"/>
      <point x="552" y="473" type="line"/>
      <point x="553" y="477" type="line" smooth="yes"/>
      <point x="561" y="514"/>
      <point x="554" y="545"/>
      <point x="532" y="568" type="curve" smooth="yes"/>
      <point x="510" y="591"/>
      <point x="475" y="602"/>
      <point x="428" y="602" type="curve" smooth="yes"/>
      <point x="372" y="602"/>
      <point x="327" y="586"/>
      <point x="293" y="554" type="curve" smooth="yes"/>
      <point x="258" y="521"/>
      <point x="234" y="471"/>
      <point x="220" y="403" type="curve" smooth="yes"/>
      <point x="199" y="302" type="line" smooth="yes"/>
      <point x="185" y="236"/>
      <point x="189" y="188"/>
      <point x="211" y="157" type="curve" smooth="yes"/>
      <point x="231" y="126"/>
      <point x="270" y="110"/>
      <point x="327" y="110" type="curve" smooth="yes"/>
      <point x="378" y="110"/>
      <point x="418" y="121"/>
      <point x="448" y="143" type="curve" smooth="yes"/>
      <point x="477" y="165"/>
      <point x="496" y="198"/>
      <point x="506" y="243" type="curve" smooth="yes"/>
      <point x="511" y="268" type="line"/>
      <point x="356" y="268" type="line"/>
      <point x="379" y="379" type="line"/>
      <point x="667" y="379" type="line"/>
      <point x="642" y="262" type="line" smooth="yes"/>
      <point x="624" y="171"/>
      <point x="584" y="102"/>
      <point x="524" y="57" type="curve" smooth="yes"/>
      <point x="464" y="12"/>
      <point x="389" y="-11"/>
      <point x="300" y="-11" type="curve" smooth="yes"/>
      <point x="206" y="-11"/>
      <point x="137" y="15"/>
      <point x="95" y="67" type="curve" smooth="yes"/>
      <point x="53" y="118"/>
      <point x="42" y="196"/>
    </contour>
  </outline>
</glyph>
<glyph name="H" format="2">
  <advance width="687"/>
  <unicode hex="0048"/>
  <outline>
    <contour>
      <point x="719" y="707" type="line"/>
      <point x="572" y="0" type="line"/>
      <point x="438" y="0" type="line"/>
      <point x="500" y="299" type="line"/>
      <point x="202" y="299" type="line"/>
      <point x="140" y="0" type="line"/>
      <point x="5" y="0" type="line"/>
      <point x="152" y="707" type="line"/>
      <point x="287" y="707" type="line"/>
      <point x="226" y="416" type="line"/>
      <point x="524" y="416" type="line"/>
      <point x="585" y="707" type="line"/>
    </contour>
  </outline>
</glyph>
<glyph name="I" format="2">
  <advance width="267"/>
  <unicode hex="0049"/>
  <outline>
    <contour>
      <point x="159" y="707" type="line"/>
      <point x="293" y="707" type="line"/>
      <point x="146" y="0" type="line"/>
      <point x="12" y="0" type="line"/>
    </contour>
  </outline>
</glyph>
<glyph name="J" format="2">
  <advance width="370"/>
  <unicode hex="004A"/>
  <outline>
    <contour>
      <point x="-30" y="0" type="line"/>
      <point x="67" y="0" type="line" smooth="yes"/>
      <point x="127" y="0"/>
      <point x="175" y="15"/>
      <point x="212" y="45" type="curve" smooth="yes"/>
      <point x="249" y="74"/>
      <point x="274" y="118"/>
      <point x="286" y="177" type="curve" smooth="yes"/>
      <point x="396" y="707" type="line"/>
      <point x="261" y="707" type="line"/>
      <point x="156" y="200" type="line" smooth="yes"/>
      <point x="149" y="169"/>
      <point x="139" y="148"/>
      <point x="125" y="136" type="curve" smooth="yes"/>
      <point x="111" y="124"/>
      <point x="88" y="118"/>
      <point x="57" y="118" type="curve" smooth="yes"/>
      <point x="-5" y="118" type="line"/>
    </contour>
  </outline>
</glyph>
<glyph name="K" format="2">
  <advance width="694"/>
  <unicode hex="004B"/>
  <outline>
    <contour>
      <point x="5" y="0" type="line"/>
      <point x="140" y="0" type="line"/>
      <point x="181" y="197" type="line"/>
      <point x="327" y="326" type="line"/>
      <point x="470" y="0" type="line"/>
      <point x="633" y="0" type="line"/>
      <point x="437" y="422" type="line"/>
      <point x="760" y="707" type="line"/>
      <point x="588" y="707" type="line"/>
      <point x="216" y="364" type="line"/>
      <point x="287" y="707" type="line"/>
      <point x="152" y="707" type="line"/>
    </contour>
  </outline>
</glyph>
<glyph name="L" format="2">
  <advance width="583"/>
  <unicode hex="004C"/>
  <outline>
    <contour>
      <point x="152" y="707" type="line"/>
      <point x="287" y="707" type="line"/>
      <point x="164" y="117" type="line"/>
      <point x="528" y="117" type="line"/>
      <point x="504" y="0" type="line"/>
      <point x="5" y="0" type="line"/>
    </contour>
  </outline>
</glyph>
<glyph name="M" format="2">
  <advance width="828"/>
  <unicode hex="004D"/>
  <outline>
    <contour>
      <point x="5" y="0" type="line"/>
      <point x="140" y="0" type="line"/>
      <point x="234" y="451" type="line"/>
      <point x="344" y="136" type="line"/>
      <point x="434" y="136" type="line"/>
      <point x="672" y="447" type="line"/>
      <point x="579" y="0" type="line"/>
      <point x="713" y="0" type="line"/>
      <point x="860" y="707" type="line"/>
      <point x="726" y="707" type="line"/>
      <point x="424" y="302" type="line"/>
      <point x="287" y="707" type="line"/>
      <point x="152" y="707" type="line"/>
    </contour>
  </outline>
</glyph>
<glyph name="N" format="2">
  <advance width="715"/>
  <unicode hex="004E"/>
  <outline>
    <contour>
      <point x="747" y="707" type="line"/>
      <point x="600" y="0" type="line"/>
      <point x="466" y="0" type="line"/>
      <point x="237" y="468" type="line"/>
      <point x="140" y="0" type="line"/>
      <point x="5" y="0" type="line"/>
      <point x="152" y="707" type="line"/>
      <point x="287" y="707" type="line"/>
      <point x="515" y="238" type="line"/>
      <point x="613" y="707" type="line"/>
    </contour>
  </outline>
</glyph>
<glyph name="O" format="2">
  <advance width="689"/>
  <unicode hex="004F"/>
  <outline>
    <contour>
      <point x="290" y="-11" type="curve" smooth="yes"/>
      <point x="381" y="-11"/>
      <point x="459" y="15"/>
      <point x="523" y="67" type="curve" smooth="yes"/>
      <point x="587" y="119"/>
      <point x="629" y="196"/>
      <point x="650" y="299" type="curve" smooth="yes"/>
      <point x="673" y="410" type="line" smooth="yes"/>
      <point x="695" y="513"/>
      <point x="685" y="590"/>
      <point x="643" y="642" type="curve" smooth="yes"/>
      <point x="602" y="694"/>
      <point x="537" y="720"/>
      <point x="446" y="720" type="curve" smooth="yes"/>
      <point x="354" y="720"/>
      <point x="276" y="694"/>
      <point x="214" y="643" type="curve" smooth="yes"/>
      <point x="150" y="591"/>
      <point x="108" y="513"/>
      <point x="86" y="410" type="curve" smooth="yes"/>
      <point x="63" y="299" type="line" smooth="yes"/>
      <point x="42" y="196"/>
      <point x="52" y="118"/>
      <point x="92" y="67" type="curve" smooth="yes"/>
      <point x="132" y="15"/>
      <point x="199" y="-11"/>
    </contour>
    <contour>
      <point x="209" y="157" type="curve" smooth="yes"/>
      <point x="188" y="188"/>
      <point x="185" y="236"/>
      <point x="199" y="301" type="curve" smooth="yes"/>
      <point x="220" y="402" type="line" smooth="yes"/>
      <point x="234" y="470"/>
      <point x="257" y="520"/>
      <point x="291" y="553" type="curve" smooth="yes"/>
      <point x="324" y="586"/>
      <point x="367" y="602"/>
      <point x="421" y="602" type="curve" smooth="yes"/>
      <point x="526" y="602"/>
      <point x="565" y="535"/>
      <point x="538" y="402" type="curve" smooth="yes"/>
      <point x="517" y="301" type="line" smooth="yes"/>
      <point x="490" y="174"/>
      <point x="424" y="110"/>
      <point x="319" y="110" type="curve" smooth="yes"/>
      <point x="265" y="110"/>
      <point x="228" y="126"/>
    </contour>
  </outline>
</glyph>
<glyph name="P" format="2">
  <advance width="643"/>
  <unicode hex="0050"/>
  <outline>
    <contour>
      <point x="5" y="0" type="line"/>
      <point x="140" y="0" type="line"/>
      <point x="196" y="268" type="line"/>
      <point x="361" y="268" type="line" smooth="yes"/>
      <point x="444" y="268"/>
      <point x="511" y="287"/>
      <point x="564" y="326" type="curve" smooth="yes"/>
      <point x="617" y="364"/>
      <point x="650" y="417"/>
      <point x="664" y="485" type="curve" smooth="yes"/>
      <point x="679" y="556"/>
      <point x="668" y="611"/>
      <point x="631" y="650" type="curve" smooth="yes"/>
      <point x="594" y="688"/>
      <point x="537" y="707"/>
      <point x="458" y="707" type="curve" smooth="yes"/>
      <point x="152" y="707" type="line"/>
    </contour>
    <contour>
      <point x="220" y="386" type="line"/>
      <point x="263" y="590" type="line"/>
      <point x="439" y="590" type="line" smooth="yes"/>
      <point x="475" y="590"/>
      <point x="501" y="581"/>
      <point x="517" y="564" type="curve" smooth="yes"/>
      <point x="533" y="547"/>
      <point x="537" y="521"/>
      <point x="530" y="486" type="curve" smooth="yes"/>
      <point x="516" y="419"/>
      <point x="471" y="386"/>
      <point x="396" y="386" type="curve" smooth="yes"/>
    </contour>
  </outline>
</glyph>
<glyph name="Q" format="2">
  <advance width="689"/>
  <unicode hex="0051"/>
  <outline>
    <contour>
      <point x="431" y="-158" type="line"/>
      <point x="546" y="-101" type="line"/>
      <point x="496" y="47" type="line"/>
      <point x="575" y="100"/>
      <point x="626" y="184"/>
      <point x="650" y="299" type="curve" smooth="yes"/>
      <point x="673" y="410" type="line" smooth="yes"/>
      <point x="695" y="513"/>
      <point x="685" y="590"/>
      <point x="643" y="642" type="curve" smooth="yes"/>
      <point x="602" y="694"/>
      <point x="537" y="720"/>
      <point x="446" y="720" type="curve" smooth="yes"/>
      <point x="354" y="720"/>
      <point x="276" y="694"/>
      <point x="214" y="643" type="curve" smooth="yes"/>
      <point x="150" y="591"/>
      <point x="108" y="513"/>
      <point x="86" y="410" type="curve" smooth="yes"/>
      <point x="63" y="299" type="line" smooth="yes"/>
      <point x="42" y="196"/>
      <point x="52" y="118"/>
      <point x="92" y="67" type="curve" smooth="yes"/>
      <point x="132" y="15"/>
      <point x="199" y="-11"/>
      <point x="290" y="-11" type="curve" smooth="yes"/>
      <point x="321" y="-11"/>
      <point x="350" y="-8"/>
      <point x="379" y="-2" type="curve"/>
    </contour>
    <contour>
      <point x="209" y="157" type="curve" smooth="yes"/>
      <point x="188" y="188"/>
      <point x="185" y="236"/>
      <point x="199" y="301" type="curve" smooth="yes"/>
      <point x="220" y="402" type="line" smooth="yes"/>
      <point x="234" y="470"/>
      <point x="257" y="520"/>
      <point x="291" y="553" type="curve" smooth="yes"/>
      <point x="324" y="586"/>
      <point x="367" y="602"/>
      <point x="421" y="602" type="curve" smooth="yes"/>
      <point x="526" y="602"/>
      <point x="565" y="535"/>
      <point x="538" y="402" type="curve" smooth="yes"/>
      <point x="517" y="301" type="line" smooth="yes"/>
      <point x="490" y="174"/>
      <point x="424" y="110"/>
      <point x="319" y="110" type="curve" smooth="yes"/>
      <point x="265" y="110"/>
      <point x="228" y="126"/>
    </contour>
  </outline>
</glyph>
<glyph name="R" format="2">
  <advance width="679"/>
  <unicode hex="0052"/>
  <outline>
    <contour>
      <point x="338" y="278" type="line"/>
      <point x="198" y="278" type="line"/>
      <point x="140" y="0" type="line"/>
      <point x="5" y="0" type="line"/>
      <point x="152" y="707" type="line"/>
      <point x="460" y="707" type="line" smooth="yes"/>
      <point x="537" y="707"/>
      <point x="594" y="689"/>
      <point x="632" y="652" type="curve" smooth="yes"/>
      <point x="668" y="615"/>
      <point x="679" y="561"/>
      <point x="664" y="492" type="curve" smooth="yes"/>
      <point x="654" y="441"/>
      <point x="633" y="399"/>
      <point x="602" y="366" type="curve" smooth="yes"/>
      <point x="571" y="333"/>
      <point x="530" y="309"/>
      <point x="480" y="294" type="curve"/>
      <point x="594" y="0" type="line"/>
      <point x="434" y="0" type="line"/>
    </contour>
    <contour>
      <point x="222" y="392" type="line"/>
      <point x="399" y="392" type="line" smooth="yes"/>
      <point x="441" y="392"/>
      <point x="473" y="402"/>
      <point x="496" y="423" type="curve" smooth="yes"/>
      <point x="513" y="440"/>
      <point x="525" y="463"/>
      <point x="531" y="492" type="curve" smooth="yes"/>
      <point x="538" y="525"/>
      <point x="533" y="549"/>
      <point x="518" y="566" type="curve" smooth="yes"/>
      <point x="501" y="582"/>
      <point x="475" y="590"/>
      <point x="440" y="590" type="curve" smooth="yes"/>
      <point x="263" y="590" type="line"/>
    </contour>
  </outline>
</glyph>
<glyph name="S" format="2">
  <advance width="622"/>
  <unicode hex="0053"/>
  <outline>
    <contour>
      <point x="19" y="215" type="curve"/>
      <point x="147" y="215" type="line"/>
      <point x="144" y="178"/>
      <point x="153" y="151"/>
      <point x="176" y="134" type="curve" smooth="yes"/>
      <point x="197" y="117"/>
      <point x="233" y="109"/>
      <point x="282" y="109" type="curve" smooth="yes"/>
      <point x="378" y="109"/>
      <point x="432" y="141"/>
      <point x="446" y="204" type="curve" smooth="yes"/>
      <point x="452" y="232"/>
      <point x="447" y="253"/>
      <point x="431" y="268" type="curve" smooth="yes"/>
      <point x="415" y="283"/>
      <point x="385" y="292"/>
      <point x="343" y="297" type="curve" smooth="yes"/>
      <point x="270" y="306" type="line" smooth="yes"/>
      <point x="130" y="324"/>
      <point x="72" y="390"/>
      <point x="96" y="504" type="curve" smooth="yes"/>
      <point x="110" y="570"/>
      <point x="144" y="622"/>
      <point x="200" y="660" type="curve" smooth="yes"/>
      <point x="255" y="698"/>
      <point x="324" y="717"/>
      <point x="407" y="717" type="curve" smooth="yes"/>
      <point x="487" y="717"/>
      <point x="546" y="699"/>
      <point x="584" y="663" type="curve" smooth="yes"/>
      <point x="621" y="626"/>
      <point x="635" y="574"/>
      <point x="627" y="506" type="curve"/>
      <point x="497" y="506" type="line"/>
      <point x="501" y="540"/>
      <point x="494" y="565"/>
      <point x="476" y="581" type="curve" smooth="yes"/>
      <point x="457" y="596"/>
      <point x="426" y="604"/>
      <point x="381" y="604" type="curve" smooth="yes"/>
      <point x="336" y="604"/>
      <point x="301" y="596"/>
      <point x="276" y="581" type="curve" smooth="yes"/>
      <point x="249" y="565"/>
      <point x="234" y="543"/>
      <point x="228" y="514" type="curve" smooth="yes"/>
      <point x="222" y="488"/>
      <point x="228" y="468"/>
      <point x="245" y="454" type="curve" smooth="yes"/>
      <point x="262" y="439"/>
      <point x="292" y="429"/>
      <point x="334" y="424" type="curve" smooth="yes"/>
      <point x="417" y="413" type="line" smooth="yes"/>
      <point x="482" y="404"/>
      <point x="529" y="383"/>
      <point x="557" y="350" type="curve" smooth="yes"/>
      <point x="585" y="317"/>
      <point x="592" y="271"/>
      <point x="581" y="214" type="curve" smooth="yes"/>
      <point x="566" y="143"/>
      <point x="530" y="89"/>
      <point x="471" y="51" type="curve" smooth="yes"/>
      <point x="412" y="13"/>
      <point x="339" y="-6"/>
      <point x="251" y="-6" type="curve" smooth="yes"/>
      <point x="165" y="-6"/>
      <point x="103" y="13"/>
      <point x="64" y="51" type="curve" smooth="yes"/>
      <point x="25" y="89"/>
      <point x="9" y="144"/>
    </contour>
  </outline>
</glyph>
<glyph name="T" format="2">
  <advance width="570"/>
  <unicode hex="0054"/>
  <outline>
    <contour>
      <point x="163" y="0" type="line"/>
      <point x="297" y="0" type="line"/>
      <point x="420" y="590" type="line"/>
      <point x="632" y="590" type="line"/>
      <point x="656" y="707" type="line"/>
      <point x="98" y="707" type="line"/>
      <point x="74" y="590" type="line"/>
      <point x="286" y="590" type="line"/>
    </contour>
  </outline>
</glyph>
<glyph name="U" format="2">
  <advance width="692"/>
  <unicode hex="0055"/>
  <outline>
    <contour>
      <point x="289" y="-6" type="curve" smooth="yes"/>
      <point x="346" y="-6"/>
      <point x="399" y="5"/>
      <point x="446" y="26" type="curve" smooth="yes"/>
      <point x="494" y="47"/>
      <point x="534" y="77"/>
      <point x="566" y="116" type="curve" smooth="yes"/>
      <point x="597" y="155"/>
      <point x="619" y="201"/>
      <point x="630" y="254" type="curve" smooth="yes"/>
      <point x="724" y="707" type="line"/>
      <point x="590" y="707" type="line"/>
      <point x="497" y="258" type="line" smooth="yes"/>
      <point x="487" y="210"/>
      <point x="466" y="174"/>
      <point x="434" y="149" type="curve" smooth="yes"/>
      <point x="402" y="124"/>
      <point x="362" y="111"/>
      <point x="313" y="111" type="curve" smooth="yes"/>
      <point x="264" y="111"/>
      <point x="230" y="124"/>
      <point x="210" y="149" type="curve" smooth="yes"/>
      <point x="189" y="174"/>
      <point x="184" y="210"/>
      <point x="194" y="258" type="curve" smooth="yes"/>
      <point x="287" y="707" type="line"/>
      <point x="152" y="707" type="line"/>
      <point x="58" y="254" type="line" smooth="yes"/>
      <point x="47" y="201"/>
      <point x="49" y="155"/>
      <point x="65" y="116" type="curve" smooth="yes"/>
      <point x="80" y="77"/>
      <point x="108" y="47"/>
      <point x="146" y="26" type="curve" smooth="yes"/>
      <point x="185" y="5"/>
      <point x="232" y="-6"/>
    </contour>
  </outline>
</glyph>
<glyph name="V" format="2">
  <advance width="637"/>
  <unicode hex="0056"/>
  <outline>
    <contour>
      <point x="209" y="0" type="line"/>
      <point x="317" y="0" type="line"/>
      <point x="726" y="707" type="line"/>
      <point x="582" y="707" type="line"/>
      <point x="304" y="198" type="line"/>
      <point x="239" y="707" type="line"/>
      <point x="96" y="707" type="line"/>
    </contour>
  </outline>
</glyph>
<glyph name="W" format="2">
  <advance width="958"/>
  <unicode hex="0057"/>
  <outline>
    <contour>
      <point x="1046" y="707" type="line"/>
      <point x="702" y="0" type="line"/>
      <point x="579" y="0" type="line"/>
      <point x="540" y="544" type="line"/>
      <point x="275" y="0" type="line"/>
      <point x="153" y="0" type="line"/>
      <point x="96" y="707" type="line"/>
      <point x="233" y="707" type="line"/>
      <point x="259" y="189" type="line"/>
      <point x="491" y="707" type="line"/>
      <point x="657" y="707" type="line"/>
      <point x="685" y="189" type="line"/>
      <point x="914" y="707" type="line"/>
    </contour>
  </outline>
</glyph>
<glyph name="X" format="2">
  <advance width="681"/>
  <unicode hex="0058"/>
  <outline>
    <contour>
      <point x="-51" y="0" type="line"/>
      <point x="111" y="0" type="line"/>
      <point x="336" y="265" type="line"/>
      <point x="458" y="0" type="line"/>
      <point x="623" y="0" type="line"/>
      <point x="443" y="373" type="line"/>
      <point x="744" y="707" type="line"/>
      <point x="582" y="707" type="line"/>
      <point x="387" y="473" type="line"/>
      <point x="279" y="707" type="line"/>
      <point x="115" y="707" type="line"/>
      <point x="280" y="367" type="line"/>
    </contour>
  </outline>
</glyph>
<glyph name="Y" format="2">
  <advance width="622"/>
  <unicode hex="0059"/>
  <outline>
    <contour>
      <point x="190" y="0" type="line"/>
      <point x="324" y="0" type="line"/>
      <point x="385" y="292" type="line"/>
      <point x="710" y="707" type="line"/>
      <point x="559" y="707" type="line"/>
      <point x="341" y="411" type="line"/>
      <point x="248" y="707" type="line"/>
      <point x="96" y="707" type="line"/>
      <point x="251" y="291" type="line"/>
    </contour>
  </outline>
</glyph>
<glyph name="Z" format="2">
  <advance width="574"/>
  <unicode hex="005A"/>
  <outline>
    <contour>
      <point x="-24" y="0" type="line"/>
      <point x="492" y="0" type="line"/>
      <point x="517" y="118" type="line"/>
      <point x="155" y="118" type="line"/>
      <point x="605" y="590" type="line"/>
      <point x="629" y="707" type="line"/>
      <point x="130" y="707" type="line"/>
      <point x="106" y="590" type="line"/>
      <point x="451" y="590" type="line"/>
      <point x="1" y="118" type="line"/>
    </contour>
  </outline>
</glyph>
<glyph name="bracketleft" format="2">
  <advance width="349"/>
  <unicode hex="005B"/>
  <outline>
    <contour>
      <point x="-13" y="-86" type="line"/>
      <point x="230" y="-86" type="line"/>
      <point x="255" y="32" type="line"/>
      <point x="139" y="32" type="line"/>
      <point x="265" y="641" type="line"/>
      <point x="381" y="641" type="line"/>
      <point x="406" y="759" type="line"/>
      <point x="163" y="759" type="line"/>
    </contour>
  </outline>
</glyph>
<glyph name="backslash" format="2">
  <advance width="455"/>
  <unicode hex="005C"/>
  <outline>
    <contour>
      <point x="47" y="712" type="line"/>
      <point x="154" y="712" type="line"/>
      <point x="410" y="-10" type="line"/>
      <point x="303" y="-10" type="line"/>
    </contour>
  </outline>
</glyph>
<glyph name="bracketright" format="2">
  <advance width="350"/>
  <unicode hex="005D"/>
  <outline>
    <contour>
      <point x="-1" y="32" type="line"/>
      <point x="115" y="32" type="line"/>
      <point x="241" y="640" type="line"/>
      <point x="125" y="640" type="line"/>
      <point x="149" y="757" type="line"/>
      <point x="392" y="757" type="line"/>
      <point x="217" y="-86" type="line"/>
      <point x="-26" y="-86" type="line"/>
    </contour>
  </outline>
</glyph>
<glyph name="underscore" format="2">
  <advance width="576"/>
  <unicode hex="005F"/>
  <outline>
    <contour>
      <point x="-81" y="-124" type="line"/>
      <point x="496" y="-124" type="line"/>
      <point x="513" y="-41" type="line"/>
      <point x="-64" y="-41" type="line"/>
    </contour>
  </outline>
</glyph>
<glyph name="grave" format="2">
  <advance width="512"/>
  <unicode hex="0060"/>
  <outline>
    <contour>
      <point x="146" y="738" type="line"/>
      <point x="311" y="738" type="line"/>
      <point x="418" y="602" type="line"/>
      <point x="298" y="602" type="line"/>
    </contour>
  </outline>
</glyph>
<glyph name="a" format="2">
  <advance width="566"/>
  <unicode hex="0061"/>
  <outline>
    <contour>
      <point x="448" y="524" type="line"/>
      <point x="571" y="524" type="line"/>
      <point x="462" y="0" type="line"/>
      <point x="339" y="0" type="line"/>
      <point x="349" y="46" type="line"/>
      <point x="343" y="38"/>
      <point x="316" y="19"/>
      <point x="282" y="4"/>
      <point x="243" y="-6"/>
      <point x="226" y="-6" type="qcurve"/>
      <point x="213" y="-6" type="line"/>
      <point x="155" y="-6"/>
      <point x="72" y="29"/>
      <point x="23" y="93"/>
      <point x="10" y="185"/>
      <point x="22" y="242" type="qcurve"/>
      <point x="32" y="290" type="line"/>
      <point x="57" y="410"/>
      <point x="205" y="530"/>
      <point x="325" y="532" type="qcurve"/>
      <point x="341" y="532"/>
      <point x="377" y="521"/>
      <point x="410" y="504"/>
      <point x="434" y="484"/>
      <point x="437" y="473" type="qcurve"/>
    </contour>
    <contour>
      <point x="147" y="244" type="line"/>
      <point x="118" y="108"/>
      <point x="236" y="108" type="qcurve"/>
      <point x="257" y="108" type="line"/>
      <point x="313" y="108"/>
      <point x="374" y="176"/>
      <point x="385" y="227" type="qcurve"/>
      <point x="396" y="278" type="line"/>
      <point x="408" y="339"/>
      <point x="364" y="417"/>
      <point x="301" y="417" type="qcurve"/>
      <point x="243" y="416"/>
      <point x="170" y="354"/>
      <point x="156" y="288" type="qcurve"/>
    </contour>
  </outline>
</glyph>
<glyph name="c" format="2">
  <advance width="572"/>
  <unicode hex="0063"/>
  <outline>
    <contour>
      <point x="41" y="236" type="curve" smooth="yes"/>
      <point x="54" y="299" type="line" smooth="yes"/>
      <point x="71" y="378"/>
      <point x="105" y="439"/>
      <point x="157" y="480" type="curve" smooth="yes"/>
      <point x="208" y="521"/>
      <point x="272" y="542"/>
      <point x="348" y="542" type="curve" smooth="yes"/>
      <point x="423" y="542"/>
      <point x="477" y="525"/>
      <point x="511" y="490" type="curve" smooth="yes"/>
      <point x="545" y="455"/>
      <point x="555" y="406"/>
      <point x="543" y="345" type="curve" smooth="yes"/>
      <point x="541" y="339" type="line"/>
      <point x="417" y="339" type="line"/>
      <point x="418" y="343" type="line" smooth="yes"/>
      <point x="424" y="370"/>
      <point x="418" y="391"/>
      <point x="402" y="406" type="curve" smooth="yes"/>
      <point x="387" y="421"/>
      <point x="361" y="429"/>
      <point x="327" y="429" type="curve" smooth="yes"/>
      <point x="288" y="429"/>
      <point x="256" y="419"/>
      <point x="232" y="398" type="curve" smooth="yes"/>
      <point x="206" y="377"/>
      <point x="189" y="343"/>
      <point x="180" y="297" type="curve" smooth="yes"/>
      <point x="167" y="237" type="line" smooth="yes"/>
      <point x="158" y="190"/>
      <point x="161" y="157"/>
      <point x="177" y="136" type="curve" smooth="yes"/>
      <point x="193" y="115"/>
      <point x="222" y="104"/>
      <point x="263" y="104" type="curve" smooth="yes"/>
      <point x="296" y="104"/>
      <point x="322" y="111"/>
      <point x="344" y="126" type="curve" smooth="yes"/>
      <point x="366" y="141"/>
      <point x="379" y="161"/>
      <point x="385" y="186" type="curve" smooth="yes"/>
      <point x="386" y="190" type="line"/>
      <point x="510" y="190" type="line"/>
      <point x="509" y="186" type="line" smooth="yes"/>
      <point x="496" y="125"/>
      <point x="465" y="78"/>
      <point x="417" y="43" type="curve" smooth="yes"/>
      <point x="368" y="8"/>
      <point x="306" y="-9"/>
      <point x="233" y="-9" type="curve" smooth="yes"/>
      <point x="157" y="-9"/>
      <point x="103" y="12"/>
      <point x="68" y="54" type="curve" smooth="yes"/>
      <point x="34" y="95"/>
      <point x="24" y="156"/>
    </contour>
  </outline>
</glyph>
<glyph name="d" format="2">
  <advance width="584"/>
  <unicode hex="0064"/>
  <outline>
    <contour>
      <point x="363" y="57" type="curve"/>
      <point x="351" y="0" type="line"/>
      <point x="474" y="0" type="line"/>
      <point x="621" y="707" type="line"/>
      <point x="495" y="707" type="line"/>
      <point x="447" y="475" type="line"/>
      <point x="419" y="520"/>
      <point x="374" y="542"/>
      <point x="311" y="542" type="curve" smooth="yes"/>
      <point x="271" y="542"/>
      <point x="233" y="533"/>
      <point x="198" y="514" type="curve" smooth="yes"/>
      <point x="163" y="495"/>
      <point x="132" y="467"/>
      <point x="108" y="431" type="curve" smooth="yes"/>
      <point x="83" y="395"/>
      <point x="65" y="351"/>
      <point x="54" y="300" type="curve" smooth="yes"/>
      <point x="40" y="233" type="line" smooth="yes"/>
      <point x="24" y="155"/>
      <point x="31" y="95"/>
      <point x="60" y="54" type="curve" smooth="yes"/>
      <point x="90" y="12"/>
      <point x="135" y="-9"/>
      <point x="198" y="-9" type="curve" smooth="yes"/>
      <point x="264" y="-10"/>
      <point x="319" y="12"/>
    </contour>
    <contour>
      <point x="177" y="138" type="curve" smooth="yes"/>
      <point x="162" y="160"/>
      <point x="159" y="194"/>
      <point x="169" y="239" type="curve" smooth="yes"/>
      <point x="180" y="294" type="line" smooth="yes"/>
      <point x="189" y="339"/>
      <point x="207" y="373"/>
      <point x="231" y="396" type="curve" smooth="yes"/>
      <point x="255" y="418"/>
      <point x="285" y="429"/>
      <point x="321" y="429" type="curve" smooth="yes"/>
      <point x="358" y="429"/>
      <point x="384" y="418"/>
      <point x="400" y="395" type="curve" smooth="yes"/>
      <point x="415" y="372"/>
      <point x="419" y="340"/>
      <point x="410" y="299" type="curve" smooth="yes"/>
      <point x="396" y="231" type="line" smooth="yes"/>
      <point x="388" y="192"/>
      <point x="370" y="161"/>
      <point x="345" y="138" type="curve" smooth="yes"/>
      <point x="319" y="115"/>
      <point x="288" y="104"/>
      <point x="251" y="104" type="curve" smooth="yes"/>
      <point x="216" y="104"/>
      <point x="191" y="115"/>
    </contour>
  </outline>
</glyph>
<glyph name="e" format="2">
  <advance width="584"/>
  <unicode hex="0065"/>
  <outline>
    <contour>
      <point x="166" y="231" type="line"/>
      <point x="166" y="229" type="line" smooth="yes"/>
      <point x="148" y="144"/>
      <point x="183" y="101"/>
      <point x="270" y="101" type="curve" smooth="yes"/>
      <point x="299" y="101"/>
      <point x="324" y="107"/>
      <point x="346" y="118" type="curve" smooth="yes"/>
      <point x="367" y="129"/>
      <point x="381" y="144"/>
      <point x="388" y="164" type="curve" smooth="yes"/>
      <point x="390" y="167" type="line"/>
      <point x="514" y="167" type="line"/>
      <point x="512" y="161" type="line" smooth="yes"/>
      <point x="499" y="110"/>
      <point x="467" y="69"/>
      <point x="419" y="38" type="curve" smooth="yes"/>
      <point x="369" y="7"/>
      <point x="311" y="-9"/>
      <point x="242" y="-9" type="curve" smooth="yes"/>
      <point x="163" y="-9"/>
      <point x="107" y="13"/>
      <point x="71" y="56" type="curve" smooth="yes"/>
      <point x="35" y="99"/>
      <point x="25" y="161"/>
      <point x="43" y="244" type="curve" smooth="yes"/>
      <point x="52" y="290" type="line" smooth="yes"/>
      <point x="69" y="371"/>
      <point x="104" y="434"/>
      <point x="157" y="477" type="curve" smooth="yes"/>
      <point x="209" y="520"/>
      <point x="274" y="542"/>
      <point x="351" y="542" type="curve" smooth="yes"/>
      <point x="428" y="542"/>
      <point x="483" y="521"/>
      <point x="518" y="478" type="curve" smooth="yes"/>
      <point x="552" y="435"/>
      <point x="562" y="373"/>
      <point x="545" y="293" type="curve" smooth="yes"/>
      <point x="532" y="231" type="line"/>
    </contour>
    <contour>
      <point x="184" y="318" type="curve"/>
      <point x="423" y="318" type="line"/>
      <point x="425" y="326" type="line" smooth="yes"/>
      <point x="432" y="361"/>
      <point x="427" y="388"/>
      <point x="409" y="406" type="curve" smooth="yes"/>
      <point x="391" y="424"/>
      <point x="364" y="433"/>
      <point x="328" y="433" type="curve" smooth="yes"/>
      <point x="253" y="433"/>
      <point x="205" y="395"/>
    </contour>
  </outline>
</glyph>
<glyph name="f" format="2">
  <advance width="376"/>
  <unicode hex="0066"/>
  <outline>
    <contour>
      <point x="295" y="559" type="curve" smooth="yes"/>
      <point x="290" y="532" type="line"/>
      <point x="405" y="532" type="line"/>
      <point x="386" y="443" type="line"/>
      <point x="271" y="443" type="line"/>
      <point x="179" y="0" type="line"/>
      <point x="54" y="0" type="line"/>
      <point x="146" y="443" type="line"/>
      <point x="74" y="443" type="line"/>
      <point x="93" y="532" type="line"/>
      <point x="165" y="532" type="line"/>
      <point x="169" y="554" type="line" smooth="yes"/>
      <point x="180" y="605"/>
      <point x="201" y="643"/>
      <point x="233" y="669" type="curve" smooth="yes"/>
      <point x="264" y="694"/>
      <point x="306" y="707"/>
      <point x="358" y="707" type="curve" smooth="yes"/>
      <point x="441" y="707" type="line"/>
      <point x="423" y="621" type="line"/>
      <point x="376" y="621" type="line" smooth="yes"/>
      <point x="351" y="621"/>
      <point x="333" y="616"/>
      <point x="321" y="607" type="curve" smooth="yes"/>
      <point x="308" y="597"/>
      <point x="300" y="581"/>
    </contour>
  </outline>
</glyph>
<glyph name="g" format="2">
  <advance width="584"/>
  <unicode hex="0067"/>
  <outline>
    <contour>
      <point x="190" y="-168" type="curve" smooth="yes"/>
      <point x="268" y="-168"/>
      <point x="333" y="-149"/>
      <point x="385" y="-110" type="curve" smooth="yes"/>
      <point x="437" y="-71"/>
      <point x="470" y="-18"/>
      <point x="484" y="49" type="curve" smooth="yes"/>
      <point x="585" y="532" type="line"/>
      <point x="460" y="532" type="line"/>
      <point x="448" y="475" type="line"/>
      <point x="418" y="520"/>
      <point x="373" y="542"/>
      <point x="311" y="542" type="curve" smooth="yes"/>
      <point x="250" y="542"/>
      <point x="196" y="522"/>
      <point x="149" y="481" type="curve" smooth="yes"/>
      <point x="102" y="440"/>
      <point x="71" y="382"/>
      <point x="56" y="308" type="curve" smooth="yes"/>
      <point x="48" y="267" type="line" smooth="yes"/>
      <point x="32" y="191"/>
      <point x="39" y="133"/>
      <point x="68" y="92" type="curve" smooth="yes"/>
      <point x="98" y="51"/>
      <point x="143" y="30"/>
      <point x="206" y="30" type="curve" smooth="yes"/>
      <point x="271" y="29"/>
      <point x="326" y="51"/>
      <point x="369" y="96" type="curve"/>
      <point x="358" y="41" type="line" smooth="yes"/>
      <point x="351" y="8"/>
      <point x="337" y="-18"/>
      <point x="318" y="-36" type="curve" smooth="yes"/>
      <point x="293" y="-57"/>
      <point x="260" y="-68"/>
      <point x="217" y="-68" type="curve" smooth="yes"/>
      <point x="187" y="-68"/>
      <point x="164" y="-63"/>
      <point x="149" y="-53" type="curve" smooth="yes"/>
      <point x="133" y="-43"/>
      <point x="125" y="-29"/>
      <point x="124" y="-11" type="curve"/>
      <point x="2" y="-11" type="line"/>
      <point x="-7" y="-62"/>
      <point x="6" y="-101"/>
      <point x="39" y="-128" type="curve" smooth="yes"/>
      <point x="73" y="-155"/>
      <point x="123" y="-168"/>
    </contour>
    <contour>
      <point x="183" y="175" type="curve" smooth="yes"/>
      <point x="169" y="196"/>
      <point x="167" y="229"/>
      <point x="176" y="272" type="curve" smooth="yes"/>
      <point x="182" y="302" type="line" smooth="yes"/>
      <point x="191" y="345"/>
      <point x="207" y="377"/>
      <point x="232" y="398" type="curve" smooth="yes"/>
      <point x="255" y="419"/>
      <point x="285" y="429"/>
      <point x="320" y="429" type="curve" smooth="yes"/>
      <point x="356" y="429"/>
      <point x="383" y="418"/>
      <point x="399" y="396" type="curve" smooth="yes"/>
      <point x="416" y="374"/>
      <point x="420" y="344"/>
      <point x="412" y="307" type="curve" smooth="yes"/>
      <point x="403" y="265" type="line" smooth="yes"/>
      <point x="395" y="228"/>
      <point x="378" y="198"/>
      <point x="353" y="176" type="curve" smooth="yes"/>
      <point x="327" y="154"/>
      <point x="296" y="143"/>
      <point x="259" y="143" type="curve" smooth="yes"/>
      <point x="223" y="143"/>
      <point x="198" y="154"/>
    </contour>
  </outline>
</glyph>
<glyph name="h" format="2">
  <advance width="585"/>
  <unicode hex="0068"/>
  <outline>
    <contour>
      <point x="147" y="707" type="line"/>
      <point x="274" y="707" type="line"/>
      <point x="226" y="476" type="line"/>
      <point x="249" y="497"/>
      <point x="274" y="512"/>
      <point x="304" y="523" type="curve" smooth="yes"/>
      <point x="333" y="534"/>
      <point x="362" y="539"/>
      <point x="393" y="539" type="curve" smooth="yes"/>
      <point x="454" y="539"/>
      <point x="498" y="521"/>
      <point x="525" y="485" type="curve" smooth="yes"/>
      <point x="551" y="448"/>
      <point x="558" y="397"/>
      <point x="544" y="332" type="curve" smooth="yes"/>
      <point x="475" y="0" type="line"/>
      <point x="348" y="0" type="line"/>
      <point x="412" y="306" type="line" smooth="yes"/>
      <point x="428" y="386"/>
      <point x="402" y="426"/>
      <point x="332" y="426" type="curve" smooth="yes"/>
      <point x="296" y="426"/>
      <point x="265" y="416"/>
      <point x="240" y="395" type="curve" smooth="yes"/>
      <point x="215" y="374"/>
      <point x="198" y="343"/>
      <point x="190" y="301" type="curve" smooth="yes"/>
      <point x="127" y="0" type="line"/>
      <point x="0" y="0" type="line"/>
    </contour>
  </outline>
</glyph>
<glyph name="i" format="2">
  <advance width="246"/>
  <unicode hex="0069"/>
  <outline>
    <contour>
      <point x="131" y="608" type="line"/>
      <point x="257" y="608" type="line"/>
      <point x="279" y="710" type="line"/>
      <point x="153" y="710" type="line"/>
    </contour>
    <contour>
      <point x="5" y="0" type="line"/>
      <point x="131" y="0" type="line"/>
      <point x="242" y="532" type="line"/>
      <point x="116" y="532" type="line"/>
    </contour>
  </outline>
</glyph>
<glyph name="j" format="2">
  <advance width="246"/>
  <unicode hex="006A"/>
  <outline>
    <contour>
      <point x="-149" y="-160" type="line"/>
      <point x="-83" y="-160" type="line" smooth="yes"/>
      <point x="-21" y="-160"/>
      <point x="28" y="-146"/>
      <point x="62" y="-118" type="curve" smooth="yes"/>
      <point x="97" y="-90"/>
      <point x="121" y="-47"/>
      <point x="134" y="12" type="curve" smooth="yes"/>
      <point x="242" y="532" type="line"/>
      <point x="116" y="532" type="line"/>
      <point x="9" y="20" type="line" smooth="yes"/>
      <point x="4" y="-6"/>
      <point x="-5" y="-24"/>
      <point x="-17" y="-34" type="curve" smooth="yes"/>
      <point x="-30" y="-45"/>
      <point x="-50" y="-50"/>
      <point x="-78" y="-50" type="curve" smooth="yes"/>
      <point x="-126" y="-50" type="line"/>
    </contour>
    <contour>
      <point x="131" y="608" type="line"/>
      <point x="257" y="608" type="line"/>
      <point x="279" y="710" type="line"/>
      <point x="153" y="710" type="line"/>
    </contour>
  </outline>
</glyph>
<glyph name="k" format="2">
  <advance width="590"/>
  <unicode hex="006B"/>
  <outline>
    <contour>
      <point x="0" y="0" type="line"/>
      <point x="127" y="0" type="line"/>
      <point x="161" y="165" type="line"/>
      <point x="253" y="239" type="line"/>
      <point x="361" y="0" type="line"/>
      <point x="522" y="0" type="line"/>
      <point x="360" y="325" type="line"/>
      <point x="617" y="532" type="line"/>
      <point x="454" y="532" type="line"/>
      <point x="191" y="307" type="line"/>
      <point x="274" y="707" type="line"/>
      <point x="147" y="707" type="line"/>
    </contour>
  </outline>
</glyph>
<glyph name="l" format="2">
  <advance width="321"/>
  <unicode hex="006C"/>
  <outline>
    <contour>
      <point x="36" y="172" type="curve" smooth="yes"/>
      <point x="147" y="707" type="line"/>
      <point x="274" y="707" type="line"/>
      <point x="164" y="180" type="line" smooth="yes"/>
      <point x="159" y="154"/>
      <point x="160" y="136"/>
      <point x="169" y="126" type="curve" smooth="yes"/>
      <point x="178" y="115"/>
      <point x="196" y="110"/>
      <point x="223" y="110" type="curve" smooth="yes"/>
      <point x="271" y="110" type="line"/>
      <point x="248" y="0" type="line"/>
      <point x="177" y="0" type="line" smooth="yes"/>
      <point x="117" y="0"/>
      <point x="76" y="14"/>
      <point x="53" y="43" type="curve" smooth="yes"/>
      <point x="30" y="71"/>
      <point x="24" y="114"/>
    </contour>
  </outline>
</glyph>
<glyph name="m" format="2">
  <advance width="917"/>
  <unicode hex="006D"/>
  <outline>
    <contour>
      <point x="111" y="532" type="line"/>
      <point x="235" y="532" type="line"/>
      <point x="223" y="475" type="line"/>
      <point x="246" y="496"/>
      <point x="271" y="512"/>
      <point x="301" y="523" type="curve" smooth="yes"/>
      <point x="330" y="534"/>
      <point x="358" y="539"/>
      <point x="387" y="539" type="curve" smooth="yes"/>
      <point x="419" y="539"/>
      <point x="447" y="533"/>
      <point x="471" y="521" type="curve" smooth="yes"/>
      <point x="496" y="509"/>
      <point x="514" y="491"/>
      <point x="526" y="467" type="curve"/>
      <point x="581" y="515"/>
      <point x="643" y="539"/>
      <point x="712" y="539" type="curve" smooth="yes"/>
      <point x="777" y="539"/>
      <point x="824" y="521"/>
      <point x="854" y="484" type="curve" smooth="yes"/>
      <point x="882" y="447"/>
      <point x="890" y="397"/>
      <point x="876" y="332" type="curve" smooth="yes"/>
      <point x="807" y="0" type="line"/>
      <point x="680" y="0" type="line"/>
      <point x="744" y="306" type="line" smooth="yes"/>
      <point x="752" y="345"/>
      <point x="749" y="375"/>
      <point x="736" y="396" type="curve" smooth="yes"/>
      <point x="723" y="416"/>
      <point x="700" y="426"/>
      <point x="667" y="426" type="curve" smooth="yes"/>
      <point x="632" y="426"/>
      <point x="602" y="415"/>
      <point x="579" y="394" type="curve" smooth="yes"/>
      <point x="554" y="372"/>
      <point x="538" y="342"/>
      <point x="530" y="303" type="curve" smooth="yes"/>
      <point x="467" y="0" type="line"/>
      <point x="340" y="0" type="line"/>
      <point x="405" y="311" type="line" smooth="yes"/>
      <point x="413" y="349"/>
      <point x="410" y="378"/>
      <point x="397" y="397" type="curve" smooth="yes"/>
      <point x="383" y="416"/>
      <point x="361" y="426"/>
      <point x="328" y="426" type="curve" smooth="yes"/>
      <point x="293" y="426"/>
      <point x="262" y="415"/>
      <point x="239" y="394" type="curve" smooth="yes"/>
      <point x="214" y="372"/>
      <point x="198" y="341"/>
      <point x="190" y="301" type="curve" smooth="yes"/>
      <point x="127" y="0" type="line"/>
      <point x="0" y="0" type="line"/>
    </contour>
  </outline>
</glyph>
<glyph name="n" format="2">
  <advance width="585"/>
  <unicode hex="006E"/>
  <outline>
    <contour>
      <point x="111" y="532" type="line"/>
      <point x="235" y="532" type="line"/>
      <point x="223" y="475" type="line"/>
      <point x="246" y="496"/>
      <point x="273" y="512"/>
      <point x="303" y="523" type="curve" smooth="yes"/>
      <point x="332" y="534"/>
      <point x="362" y="539"/>
      <point x="393" y="539" type="curve" smooth="yes"/>
      <point x="454" y="539"/>
      <point x="498" y="521"/>
      <point x="525" y="484" type="curve" smooth="yes"/>
      <point x="551" y="447"/>
      <point x="558" y="397"/>
      <point x="544" y="332" type="curve" smooth="yes"/>
      <point x="475" y="0" type="line"/>
      <point x="348" y="0" type="line"/>
      <point x="412" y="306" type="line" smooth="yes"/>
      <point x="428" y="386"/>
      <point x="402" y="426"/>
      <point x="332" y="426" type="curve" smooth="yes"/>
      <point x="296" y="426"/>
      <point x="265" y="416"/>
      <point x="240" y="395" type="curve" smooth="yes"/>
      <point x="215" y="374"/>
      <point x="198" y="343"/>
      <point x="190" y="301" type="curve" smooth="yes"/>
      <point x="127" y="0" type="line"/>
      <point x="0" y="0" type="line"/>
    </contour>
  </outline>
</glyph>
<glyph name="o" format="2">
  <advance width="576"/>
  <unicode hex="006F"/>
  <outline>
    <contour>
      <point x="233" y="-9" type="curve" smooth="yes"/>
      <point x="308" y="-9"/>
      <point x="371" y="12"/>
      <point x="422" y="54" type="curve" smooth="yes"/>
      <point x="474" y="95"/>
      <point x="507" y="156"/>
      <point x="524" y="236" type="curve" smooth="yes"/>
      <point x="537" y="299" type="line" smooth="yes"/>
      <point x="554" y="378"/>
      <point x="545" y="438"/>
      <point x="512" y="480" type="curve" smooth="yes"/>
      <point x="477" y="521"/>
      <point x="423" y="542"/>
      <point x="348" y="542" type="curve" smooth="yes"/>
      <point x="272" y="542"/>
      <point x="208" y="521"/>
      <point x="157" y="480" type="curve" smooth="yes"/>
      <point x="105" y="439"/>
      <point x="71" y="378"/>
      <point x="54" y="299" type="curve" smooth="yes"/>
      <point x="41" y="236" type="line" smooth="yes"/>
      <point x="24" y="156"/>
      <point x="34" y="95"/>
      <point x="68" y="54" type="curve" smooth="yes"/>
      <point x="103" y="12"/>
      <point x="157" y="-9"/>
    </contour>
    <contour>
      <point x="257" y="104" type="curve" smooth="yes"/>
      <point x="179" y="105"/>
      <point x="149" y="149"/>
      <point x="167" y="237" type="curve" smooth="yes"/>
      <point x="180" y="297" type="line" smooth="yes"/>
      <point x="198" y="385"/>
      <point x="246" y="429"/>
      <point x="324" y="429" type="curve" smooth="yes"/>
      <point x="361" y="429"/>
      <point x="387" y="418"/>
      <point x="403" y="397" type="curve" smooth="yes"/>
      <point x="417" y="376"/>
      <point x="420" y="342"/>
      <point x="411" y="297" type="curve" smooth="yes"/>
      <point x="398" y="237" type="line" smooth="yes"/>
      <point x="380" y="149"/>
      <point x="333" y="105"/>
    </contour>
  </outline>
</glyph>
<glyph name="p" format="2">
  <advance width="584"/>
  <unicode hex="0070"/>
  <outline>
    <contour>
      <point x="111" y="532" type="line"/>
      <point x="235" y="532" type="line"/>
      <point x="222" y="472" type="line"/>
      <point x="271" y="519"/>
      <point x="327" y="542"/>
      <point x="389" y="542" type="curve" smooth="yes"/>
      <point x="452" y="542"/>
      <point x="499" y="522"/>
      <point x="528" y="481" type="curve" smooth="yes"/>
      <point x="556" y="440"/>
      <point x="563" y="380"/>
      <point x="547" y="303" type="curve" smooth="yes"/>
      <point x="533" y="237" type="line" smooth="yes"/>
      <point x="523" y="186"/>
      <point x="504" y="141"/>
      <point x="479" y="104" type="curve" smooth="yes"/>
      <point x="452" y="67"/>
      <point x="421" y="39"/>
      <point x="386" y="20" type="curve" smooth="yes"/>
      <point x="351" y="1"/>
      <point x="313" y="-9"/>
      <point x="273" y="-9" type="curve" smooth="yes"/>
      <point x="210" y="-9"/>
      <point x="165" y="12"/>
      <point x="138" y="54" type="curve"/>
      <point x="94" y="-160" type="line"/>
      <point x="-33" y="-160" type="line"/>
    </contour>
    <contour>
      <point x="407" y="242" type="curve" smooth="yes"/>
      <point x="419" y="297" type="line" smooth="yes"/>
      <point x="437" y="385"/>
      <point x="408" y="429"/>
      <point x="332" y="429" type="curve" smooth="yes"/>
      <point x="296" y="429"/>
      <point x="266" y="418"/>
      <point x="240" y="395" type="curve" smooth="yes"/>
      <point x="214" y="372"/>
      <point x="198" y="340"/>
      <point x="189" y="299" type="curve" smooth="yes"/>
      <point x="175" y="231" type="line" smooth="yes"/>
      <point x="167" y="192"/>
      <point x="172" y="162"/>
      <point x="188" y="139" type="curve" smooth="yes"/>
      <point x="204" y="116"/>
      <point x="231" y="104"/>
      <point x="267" y="104" type="curve" smooth="yes"/>
      <point x="303" y="104"/>
      <point x="333" y="116"/>
      <point x="357" y="139" type="curve" smooth="yes"/>
      <point x="381" y="162"/>
      <point x="398" y="196"/>
    </contour>
  </outline>
</glyph>
<glyph name="q" format="2">
  <advance width="584"/>
  <unicode hex="0071"/>
  <outline>
    <contour>
      <point x="315" y="-160" type="line"/>
      <point x="441" y="-160" type="line"/>
      <point x="585" y="532" type="line"/>
      <point x="462" y="532" type="line"/>
      <point x="450" y="475" type="line"/>
      <point x="419" y="520"/>
      <point x="374" y="542"/>
      <point x="313" y="542" type="curve" smooth="yes"/>
      <point x="251" y="542"/>
      <point x="196" y="521"/>
      <point x="150" y="479" type="curve" smooth="yes"/>
      <point x="102" y="436"/>
      <point x="70" y="377"/>
      <point x="54" y="300" type="curve" smooth="yes"/>
      <point x="40" y="233" type="line" smooth="yes"/>
      <point x="24" y="155"/>
      <point x="31" y="95"/>
      <point x="60" y="54" type="curve" smooth="yes"/>
      <point x="90" y="12"/>
      <point x="135" y="-9"/>
      <point x="198" y="-9" type="curve" smooth="yes"/>
      <point x="263" y="-10"/>
      <point x="317" y="12"/>
      <point x="360" y="57" type="curve"/>
    </contour>
    <contour>
      <point x="177" y="138" type="curve" smooth="yes"/>
      <point x="162" y="160"/>
      <point x="159" y="194"/>
      <point x="169" y="239" type="curve" smooth="yes"/>
      <point x="180" y="294" type="line" smooth="yes"/>
      <point x="189" y="339"/>
      <point x="207" y="373"/>
      <point x="231" y="396" type="curve" smooth="yes"/>
      <point x="255" y="418"/>
      <point x="285" y="429"/>
      <point x="321" y="429" type="curve" smooth="yes"/>
      <point x="358" y="429"/>
      <point x="384" y="418"/>
      <point x="400" y="395" type="curve" smooth="yes"/>
      <point x="415" y="372"/>
      <point x="419" y="340"/>
      <point x="410" y="299" type="curve" smooth="yes"/>
      <point x="396" y="231" type="line" smooth="yes"/>
      <point x="388" y="192"/>
      <point x="370" y="161"/>
      <point x="345" y="138" type="curve" smooth="yes"/>
      <point x="319" y="115"/>
      <point x="288" y="104"/>
      <point x="251" y="104" type="curve" smooth="yes"/>
      <point x="216" y="104"/>
      <point x="191" y="115"/>
    </contour>
  </outline>
</glyph>
<glyph name="r" format="2">
  <advance width="403"/>
  <unicode hex="0072"/>
  <outline>
    <contour>
      <point x="0" y="0" type="line"/>
      <point x="127" y="0" type="line"/>
      <point x="188" y="295" type="line" smooth="yes"/>
      <point x="197" y="339"/>
      <point x="216" y="373"/>
      <point x="244" y="397" type="curve" smooth="yes"/>
      <point x="270" y="420"/>
      <point x="304" y="432"/>
      <point x="344" y="432" type="curve" smooth="yes"/>
      <point x="371" y="432"/>
      <point x="396" y="428"/>
      <point x="417" y="419" type="curve"/>
      <point x="442" y="540" type="line"/>
      <point x="430" y="543"/>
      <point x="413" y="544"/>
      <point x="393" y="544" type="curve" smooth="yes"/>
      <point x="361" y="544"/>
      <point x="331" y="538"/>
      <point x="301" y="526" type="curve" smooth="yes"/>
      <point x="272" y="514"/>
      <point x="245" y="496"/>
      <point x="222" y="472" type="curve"/>
      <point x="235" y="532" type="line"/>
      <point x="111" y="532" type="line"/>
    </contour>
  </outline>
</glyph>
<glyph name="s" format="2">
  <advance width="538"/>
  <unicode hex="0073"/>
  <outline>
    <contour>
      <point x="211" y="-6" type="curve" smooth="yes"/>
      <point x="285" y="-6"/>
      <point x="346" y="9"/>
      <point x="395" y="38" type="curve" smooth="yes"/>
      <point x="444" y="67"/>
      <point x="474" y="110"/>
      <point x="485" y="165" type="curve" smooth="yes"/>
      <point x="494" y="209"/>
      <point x="487" y="244"/>
      <point x="463" y="270" type="curve" smooth="yes"/>
      <point x="439" y="295"/>
      <point x="397" y="311"/>
      <point x="337" y="318" type="curve" smooth="yes"/>
      <point x="254" y="329" type="line" smooth="yes"/>
      <point x="228" y="332"/>
      <point x="209" y="337"/>
      <point x="200" y="346" type="curve" smooth="yes"/>
      <point x="190" y="355"/>
      <point x="186" y="367"/>
      <point x="189" y="382" type="curve" smooth="yes"/>
      <point x="193" y="401"/>
      <point x="204" y="415"/>
      <point x="223" y="425" type="curve" smooth="yes"/>
      <point x="242" y="434"/>
      <point x="268" y="439"/>
      <point x="303" y="439" type="curve" smooth="yes"/>
      <point x="340" y="439"/>
      <point x="367" y="434"/>
      <point x="384" y="423" type="curve" smooth="yes"/>
      <point x="400" y="412"/>
      <point x="406" y="397"/>
      <point x="401" y="376" type="curve" smooth="yes"/>
      <point x="401" y="373" type="line"/>
      <point x="519" y="373" type="line"/>
      <point x="519" y="377" type="line" smooth="yes"/>
      <point x="530" y="428"/>
      <point x="518" y="467"/>
      <point x="483" y="496" type="curve" smooth="yes"/>
      <point x="448" y="525"/>
      <point x="396" y="539"/>
      <point x="325" y="539" type="curve" smooth="yes"/>
      <point x="256" y="539"/>
      <point x="199" y="525"/>
      <point x="154" y="496" type="curve" smooth="yes"/>
      <point x="108" y="467"/>
      <point x="80" y="427"/>
      <point x="69" y="374" type="curve" smooth="yes"/>
      <point x="59" y="329"/>
      <point x="66" y="294"/>
      <point x="90" y="270" type="curve" smooth="yes"/>
      <point x="113" y="245"/>
      <point x="154" y="229"/>
      <point x="212" y="222" type="curve" smooth="yes"/>
      <point x="289" y="213" type="line" smooth="yes"/>
      <point x="319" y="210"/>
      <point x="339" y="204"/>
      <point x="351" y="195" type="curve" smooth="yes"/>
      <point x="362" y="186"/>
      <point x="366" y="174"/>
      <point x="363" y="157" type="curve" smooth="yes"/>
      <point x="358" y="137"/>
      <point x="346" y="122"/>
      <point x="325" y="112" type="curve" smooth="yes"/>
      <point x="304" y="101"/>
      <point x="275" y="96"/>
      <point x="239" y="96" type="curve" smooth="yes"/>
      <point x="200" y="96"/>
      <point x="172" y="102"/>
      <point x="156" y="115" type="curve" smooth="yes"/>
      <point x="138" y="127"/>
      <point x="132" y="144"/>
      <point x="136" y="165" type="curve" smooth="yes"/>
      <point x="137" y="167" type="line"/>
      <point x="18" y="167" type="line"/>
      <point x="17" y="164" type="line" smooth="yes"/>
      <point x="6" y="110"/>
      <point x="17" y="68"/>
      <point x="52" y="39" type="curve" smooth="yes"/>
      <point x="86" y="9"/>
      <point x="139" y="-6"/>
    </contour>
  </outline>
</glyph>
<glyph name="t" format="2">
  <advance width="404"/>
  <unicode hex="0074"/>
  <outline>
    <contour>
      <point x="231" y="0" type="curve" smooth="yes"/>
      <point x="299" y="0" type="line"/>
      <point x="321" y="108" type="line"/>
      <point x="276" y="108" type="line" smooth="yes"/>
      <point x="253" y="108"/>
      <point x="238" y="113"/>
      <point x="231" y="123" type="curve" smooth="yes"/>
      <point x="222" y="132"/>
      <point x="221" y="149"/>
      <point x="226" y="172" type="curve" smooth="yes"/>
      <point x="282" y="443" type="line"/>
      <point x="403" y="443" type="line"/>
      <point x="422" y="532" type="line"/>
      <point x="301" y="532" type="line"/>
      <point x="332" y="681" type="line"/>
      <point x="196" y="637" type="line"/>
      <point x="175" y="532" type="line"/>
      <point x="82" y="532" type="line"/>
      <point x="63" y="443" type="line"/>
      <point x="156" y="443" type="line"/>
      <point x="98" y="164" type="line" smooth="yes"/>
      <point x="87" y="111"/>
      <point x="93" y="71"/>
      <point x="116" y="43" type="curve" smooth="yes"/>
      <point x="139" y="14"/>
      <point x="177" y="0"/>
    </contour>
  </outline>
</glyph>
<glyph name="u" format="2">
  <advance width="585"/>
  <unicode hex="0075"/>
  <outline>
    <contour>
      <point x="46" y="223" type="curve" smooth="yes"/>
      <point x="111" y="532" type="line"/>
      <point x="238" y="532" type="line"/>
      <point x="175" y="229" type="line" smooth="yes"/>
      <point x="166" y="188"/>
      <point x="169" y="157"/>
      <point x="181" y="136" type="curve" smooth="yes"/>
      <point x="194" y="115"/>
      <point x="221" y="104"/>
      <point x="260" y="104" type="curve" smooth="yes"/>
      <point x="299" y="104"/>
      <point x="330" y="115"/>
      <point x="351" y="136" type="curve" smooth="yes"/>
      <point x="373" y="157"/>
      <point x="387" y="188"/>
      <point x="396" y="229" type="curve" smooth="yes"/>
      <point x="459" y="532" type="line"/>
      <point x="586" y="532" type="line"/>
      <point x="521" y="223" type="line" smooth="yes"/>
      <point x="505" y="146"/>
      <point x="473" y="88"/>
      <point x="426" y="49" type="curve" smooth="yes"/>
      <point x="378" y="10"/>
      <point x="315" y="-9"/>
      <point x="236" y="-9" type="curve" smooth="yes"/>
      <point x="157" y="-9"/>
      <point x="102" y="11"/>
      <point x="70" y="50" type="curve" smooth="yes"/>
      <point x="39" y="89"/>
      <point x="31" y="147"/>
    </contour>
  </outline>
</glyph>
<glyph name="v" format="2">
  <advance width="551"/>
  <unicode hex="0076"/>
  <outline>
    <contour>
      <point x="168" y="0" type="line"/>
      <point x="273" y="0" type="line"/>
      <point x="599" y="532" type="line"/>
      <point x="462" y="532" type="line"/>
      <point x="257" y="171" type="line"/>
      <point x="202" y="532" type="line"/>
      <point x="65" y="532" type="line"/>
    </contour>
  </outline>
</glyph>
<glyph name="w" format="2">
  <advance width="845"/>
  <unicode hex="0077"/>
  <outline>
    <contour>
      <point x="136" y="0" type="line"/>
      <point x="244" y="0" type="line"/>
      <point x="443" y="360" type="line"/>
      <point x="491" y="0" type="line"/>
      <point x="598" y="0" type="line"/>
      <point x="893" y="532" type="line"/>
      <point x="757" y="532" type="line"/>
      <point x="578" y="176" type="line"/>
      <point x="526" y="532" type="line"/>
      <point x="431" y="532" type="line"/>
      <point x="233" y="176" type="line"/>
      <point x="199" y="532" type="line"/>
      <point x="65" y="532" type="line"/>
    </contour>
  </outline>
</glyph>
<glyph name="x" format="2">
  <advance width="526"/>
  <unicode hex="0078"/>
  <outline>
    <contour>
      <point x="324" y="0" type="line"/>
      <point x="241" y="178" type="line"/>
      <point x="93" y="0" type="line"/>
      <point x="-46" y="0" type="line"/>
      <point x="196" y="274" type="line"/>
      <point x="75" y="532" type="line"/>
      <point x="215" y="532" type="line"/>
      <point x="289" y="371" type="line"/>
      <point x="425" y="532" type="line"/>
      <point x="563" y="532" type="line"/>
      <point x="333" y="278" type="line"/>
      <point x="462" y="0" type="line"/>
    </contour>
  </outline>
</glyph>
<glyph name="y" format="2">
  <advance width="552"/>
  <unicode hex="0079"/>
  <outline>
    <contour>
      <point x="-1" y="-158" type="line"/>
      <point x="48" y="-158" type="line" smooth="yes"/>
      <point x="95" y="-158"/>
      <point x="136" y="-149"/>
      <point x="169" y="-131" type="curve" smooth="yes"/>
      <point x="202" y="-113"/>
      <point x="229" y="-85"/>
      <point x="252" y="-46" type="curve" smooth="yes"/>
      <point x="600" y="532" type="line"/>
      <point x="468" y="532" type="line"/>
      <point x="267" y="176" type="line"/>
      <point x="202" y="532" type="line"/>
      <point x="65" y="532" type="line"/>
      <point x="173" y="11" type="line"/>
      <point x="168" y="2" type="line" smooth="yes"/>
      <point x="158" y="-16"/>
      <point x="146" y="-28"/>
      <point x="134" y="-34" type="curve" smooth="yes"/>
      <point x="121" y="-41"/>
      <point x="103" y="-44"/>
      <point x="78" y="-44" type="curve" smooth="yes"/>
      <point x="23" y="-44" type="line"/>
    </contour>
  </outline>
</glyph>
<glyph name="z" format="2">
  <advance width="513"/>
  <unicode hex="007A"/>
  <outline>
    <contour>
      <point x="501" y="426" type="line"/>
      <point x="160" y="106" type="line"/>
      <point x="434" y="106" type="line"/>
      <point x="412" y="0" type="line"/>
      <point x="-8" y="0" type="line"/>
      <point x="14" y="106" type="line"/>
      <point x="355" y="426" type="line"/>
      <point x="81" y="426" type="line"/>
      <point x="103" y="532" type="line"/>
      <point x="523" y="532" type="line"/>
    </contour>
  </outline>
</glyph>
<glyph name="braceleft" format="2">
  <advance width="409"/>
  <unicode hex="007B"/>
  <outline>
    <contour>
      <point x="210" y="-86" type="curve" smooth="yes"/>
      <point x="291" y="-86" type="line"/>
      <point x="312" y="16" type="line"/>
      <point x="271" y="16" type="line" smooth="yes"/>
      <point x="248" y="16"/>
      <point x="232" y="20"/>
      <point x="225" y="28" type="curve" smooth="yes"/>
      <point x="216" y="35"/>
      <point x="214" y="48"/>
      <point x="218" y="67" type="curve" smooth="yes"/>
      <point x="247" y="208" type="line" smooth="yes"/>
      <point x="255" y="246"/>
      <point x="256" y="275"/>
      <point x="249" y="295" type="curve" smooth="yes"/>
      <point x="242" y="314"/>
      <point x="226" y="329"/>
      <point x="202" y="338" type="curve"/>
      <point x="230" y="347"/>
      <point x="252" y="362"/>
      <point x="267" y="382" type="curve" smooth="yes"/>
      <point x="282" y="401"/>
      <point x="293" y="430"/>
      <point x="301" y="468" type="curve" smooth="yes"/>
      <point x="330" y="605" type="line" smooth="yes"/>
      <point x="334" y="624"/>
      <point x="341" y="637"/>
      <point x="353" y="644" type="curve" smooth="yes"/>
      <point x="363" y="651"/>
      <point x="381" y="655"/>
      <point x="404" y="655" type="curve" smooth="yes"/>
      <point x="445" y="655" type="line"/>
      <point x="467" y="758" type="line"/>
      <point x="386" y="758" type="line" smooth="yes"/>
      <point x="290" y="758"/>
      <point x="233" y="715"/>
      <point x="215" y="628" type="curve" smooth="yes"/>
      <point x="183" y="474" type="line" smooth="yes"/>
      <point x="177" y="445"/>
      <point x="165" y="424"/>
      <point x="149" y="411" type="curve" smooth="yes"/>
      <point x="133" y="398"/>
      <point x="108" y="392"/>
      <point x="74" y="392" type="curve"/>
      <point x="51" y="284" type="line"/>
      <point x="85" y="284"/>
      <point x="108" y="278"/>
      <point x="119" y="265" type="curve" smooth="yes"/>
      <point x="129" y="252"/>
      <point x="132" y="231"/>
      <point x="126" y="202" type="curve" smooth="yes"/>
      <point x="93" y="45" type="line" smooth="yes"/>
      <point x="75" y="-42"/>
      <point x="114" y="-86"/>
    </contour>
  </outline>
</glyph>
<glyph name="bar" format="2">
  <advance width="303"/>
  <unicode hex="007C"/>
  <outline>
    <contour>
      <point x="93" y="758" type="line"/>
      <point x="211" y="758" type="line"/>
      <point x="211" y="-86" type="line"/>
      <point x="93" y="-86" type="line"/>
    </contour>
  </outline>
</glyph>
<glyph name="braceright" format="2">
  <advance width="409"/>
  <unicode hex="007D"/>
  <outline>
    <contour>
      <point x="-26" y="-86" type="line"/>
      <point x="55" y="-86" type="line" smooth="yes"/>
      <point x="150" y="-86"/>
      <point x="206" y="-42"/>
      <point x="224" y="45" type="curve" smooth="yes"/>
      <point x="257" y="202" type="line" smooth="yes"/>
      <point x="263" y="231"/>
      <point x="274" y="252"/>
      <point x="291" y="265" type="curve" smooth="yes"/>
      <point x="308" y="278"/>
      <point x="333" y="284"/>
      <point x="368" y="284" type="curve"/>
      <point x="391" y="392" type="line"/>
      <point x="356" y="392"/>
      <point x="332" y="399"/>
      <point x="322" y="412" type="curve" smooth="yes"/>
      <point x="310" y="425"/>
      <point x="308" y="445"/>
      <point x="314" y="474" type="curve" smooth="yes"/>
      <point x="346" y="628" type="line" smooth="yes"/>
      <point x="364" y="715"/>
      <point x="326" y="758"/>
      <point x="231" y="758" type="curve" smooth="yes"/>
      <point x="150" y="758" type="line"/>
      <point x="128" y="655" type="line"/>
      <point x="168" y="655" type="line" smooth="yes"/>
      <point x="192" y="655"/>
      <point x="208" y="651"/>
      <point x="217" y="644" type="curve" smooth="yes"/>
      <point x="224" y="637"/>
      <point x="227" y="624"/>
      <point x="223" y="605" type="curve" smooth="yes"/>
      <point x="194" y="468" type="line" smooth="yes"/>
      <point x="186" y="430"/>
      <point x="185" y="401"/>
      <point x="192" y="382" type="curve" smooth="yes"/>
      <point x="199" y="362"/>
      <point x="214" y="347"/>
      <point x="238" y="338" type="curve"/>
      <point x="210" y="329"/>
      <point x="189" y="314"/>
      <point x="174" y="295" type="curve" smooth="yes"/>
      <point x="159" y="275"/>
      <point x="148" y="246"/>
      <point x="140" y="208" type="curve" smooth="yes"/>
      <point x="111" y="67" type="line" smooth="yes"/>
      <point x="107" y="49"/>
      <point x="99" y="36"/>
      <point x="88" y="28" type="curve" smooth="yes"/>
      <point x="76" y="20"/>
      <point x="58" y="16"/>
      <point x="35" y="16" type="curve" smooth="yes"/>
      <point x="-5" y="16" type="line"/>
    </contour>
  </outline>
</glyph>
<glyph name="cent" format="2">
  <advance width="572"/>
  <unicode hex="00A2"/>
  <outline>
    <contour>
      <point x="417" y="339" type="line"/>
      <point x="418" y="343" type="line" smooth="yes"/>
      <point x="424" y="370"/>
      <point x="418" y="391"/>
      <point x="402" y="406" type="curve" smooth="yes"/>
      <point x="387" y="421"/>
      <point x="361" y="429"/>
      <point x="327" y="429" type="curve" smooth="yes"/>
      <point x="288" y="429"/>
      <point x="256" y="419"/>
      <point x="232" y="398" type="curve" smooth="yes"/>
      <point x="206" y="377"/>
      <point x="189" y="343"/>
      <point x="180" y="297" type="curve" smooth="yes"/>
      <point x="167" y="237" type="line" smooth="yes"/>
      <point x="158" y="190"/>
      <point x="161" y="157"/>
      <point x="177" y="136" type="curve" smooth="yes"/>
      <point x="193" y="115"/>
      <point x="222" y="104"/>
      <point x="263" y="104" type="curve" smooth="yes"/>
      <point x="296" y="104"/>
      <point x="322" y="111"/>
      <point x="344" y="126" type="curve" smooth="yes"/>
      <point x="366" y="141"/>
      <point x="379" y="161"/>
      <point x="385" y="186" type="curve" smooth="yes"/>
      <point x="386" y="190" type="line"/>
      <point x="510" y="190" type="line"/>
      <point x="509" y="186" type="line" smooth="yes"/>
      <point x="497" y="131"/>
      <point x="471" y="86"/>
      <point x="430" y="53" type="curve" smooth="yes"/>
      <point x="388" y="19"/>
      <point x="336" y="-1"/>
      <point x="274" y="-7" type="curve"/>
      <point x="254" y="-102" type="line"/>
      <point x="180" y="-102" type="line"/>
      <point x="199" y="-8" type="line"/>
      <point x="135" y="-2"/>
      <point x="89" y="22"/>
      <point x="60" y="63" type="curve" smooth="yes"/>
      <point x="32" y="104"/>
      <point x="26" y="162"/>
      <point x="41" y="236" type="curve" smooth="yes"/>
      <point x="54" y="299" type="line" smooth="yes"/>
      <point x="69" y="372"/>
      <point x="100" y="429"/>
      <point x="146" y="470" type="curve" smooth="yes"/>
      <point x="191" y="511"/>
      <point x="247" y="534"/>
      <point x="313" y="541" type="curve"/>
      <point x="333" y="633" type="line"/>
      <point x="407" y="633" type="line"/>
      <point x="387" y="540" type="line"/>
      <point x="448" y="534"/>
      <point x="492" y="514"/>
      <point x="520" y="480" type="curve" smooth="yes"/>
      <point x="547" y="446"/>
      <point x="554" y="401"/>
      <point x="543" y="345" type="curve" smooth="yes"/>
      <point x="541" y="339" type="line"/>
    </contour>
  </outline>
</glyph>
<glyph name="sterling" format="2">
  <advance width="530"/>
  <unicode hex="00A3"/>
  <outline>
    <contour>
      <point x="-6" y="0" type="line"/>
      <point x="453" y="0" type="line"/>
      <point x="477" y="116" type="line"/>
      <point x="168" y="116" type="line"/>
      <point x="183" y="128"/>
      <point x="195" y="142"/>
      <point x="204" y="159" type="curve" smooth="yes"/>
      <point x="213" y="176"/>
      <point x="220" y="196"/>
      <point x="225" y="219" type="curve" smooth="yes"/>
      <point x="238" y="283" type="line"/>
      <point x="404" y="283" type="line"/>
      <point x="428" y="399" type="line"/>
      <point x="262" y="399" type="line"/>
      <point x="289" y="529" type="line" smooth="yes"/>
      <point x="294" y="553"/>
      <point x="305" y="571"/>
      <point x="320" y="584" type="curve" smooth="yes"/>
      <point x="336" y="597"/>
      <point x="355" y="603"/>
      <point x="380" y="603" type="curve" smooth="yes"/>
      <point x="404" y="603"/>
      <point x="421" y="598"/>
      <point x="432" y="588" type="curve" smooth="yes"/>
      <point x="442" y="577"/>
      <point x="445" y="562"/>
      <point x="441" y="542" type="curve"/>
      <point x="566" y="542" type="line"/>
      <point x="577" y="597"/>
      <point x="568" y="640"/>
      <point x="540" y="671" type="curve" smooth="yes"/>
      <point x="510" y="702"/>
      <point x="464" y="717"/>
      <point x="402" y="717" type="curve" smooth="yes"/>
      <point x="336" y="717"/>
      <point x="281" y="699"/>
      <point x="238" y="664" type="curve" smooth="yes"/>
      <point x="194" y="628"/>
      <point x="165" y="578"/>
      <point x="152" y="514" type="curve" smooth="yes"/>
      <point x="128" y="399" type="line"/>
      <point x="57" y="399" type="line"/>
      <point x="33" y="283" type="line"/>
      <point x="104" y="283" type="line"/>
      <point x="88" y="206" type="line" smooth="yes"/>
      <point x="82" y="179"/>
      <point x="74" y="158"/>
      <point x="64" y="144" type="curve" smooth="yes"/>
      <point x="53" y="129"/>
      <point x="38" y="118"/>
      <point x="17" y="111" type="curve"/>
    </contour>
  </outline>
</glyph>
<glyph name="currency" format="2">
  <advance width="609"/>
  <unicode hex="00A4"/>
  <outline>
    <contour>
      <point x="387" y="143" type="line"/>
      <point x="351" y="124"/>
      <point x="313" y="114"/>
      <point x="273" y="115" type="curve" smooth="yes"/>
      <point x="234" y="115"/>
      <point x="200" y="124"/>
      <point x="172" y="143" type="curve"/>
      <point x="91" y="77" type="line"/>
      <point x="32" y="152" type="line"/>
      <point x="114" y="219" type="line"/>
      <point x="102" y="249"/>
      <point x="100" y="284"/>
      <point x="108" y="324" type="curve" smooth="yes"/>
      <point x="116" y="361"/>
      <point x="132" y="395"/>
      <point x="158" y="428" type="curve"/>
      <point x="103" y="497" type="line"/>
      <point x="194" y="571" type="line"/>
      <point x="248" y="504" type="line"/>
      <point x="285" y="523"/>
      <point x="322" y="532"/>
      <point x="359" y="531" type="curve" smooth="yes"/>
      <point x="397" y="531"/>
      <point x="432" y="522"/>
      <point x="461" y="504" type="curve"/>
      <point x="543" y="571" type="line"/>
      <point x="601" y="497" type="line"/>
      <point x="519" y="428" type="line"/>
      <point x="531" y="395"/>
      <point x="533" y="361"/>
      <point x="525" y="324" type="curve" smooth="yes"/>
      <point x="517" y="285"/>
      <point x="501" y="250"/>
      <point x="476" y="218" type="curve"/>
      <point x="530" y="151" type="line"/>
      <point x="440" y="76" type="line"/>
    </contour>
    <contour>
      <point x="422" y="324" type="curve" smooth="yes"/>
      <point x="429" y="355"/>
      <point x="424" y="380"/>
      <point x="408" y="401" type="curve" smooth="yes"/>
      <point x="393" y="421"/>
      <point x="370" y="431"/>
      <point x="339" y="431" type="curve" smooth="yes"/>
      <point x="309" y="431"/>
      <point x="282" y="421"/>
      <point x="258" y="401" type="curve" smooth="yes"/>
      <point x="234" y="380"/>
      <point x="219" y="355"/>
      <point x="212" y="324" type="curve" smooth="yes"/>
      <point x="206" y="293"/>
      <point x="211" y="268"/>
      <point x="226" y="247" type="curve" smooth="yes"/>
      <point x="241" y="226"/>
      <point x="264" y="215"/>
      <point x="294" y="215" type="curve" smooth="yes"/>
      <point x="325" y="215"/>
      <point x="352" y="226"/>
      <point x="376" y="247" type="curve" smooth="yes"/>
      <point x="401" y="268"/>
      <point x="416" y="293"/>
    </contour>
  </outline>
</glyph>
<glyph name="yen" format="2">
  <advance width="571"/>
  <unicode hex="00A5"/>
  <outline>
    <contour>
      <point x="164" y="0" type="line"/>
      <point x="297" y="0" type="line"/>
      <point x="322" y="120" type="line"/>
      <point x="480" y="120" type="line"/>
      <point x="499" y="210" type="line"/>
      <point x="341" y="210" type="line"/>
      <point x="352" y="266" type="line"/>
      <point x="510" y="266" type="line"/>
      <point x="529" y="356" type="line"/>
      <point x="394" y="356" type="line"/>
      <point x="656" y="707" type="line"/>
      <point x="511" y="707" type="line"/>
      <point x="322" y="423" type="line"/>
      <point x="245" y="707" type="line"/>
      <point x="99" y="707" type="line"/>
      <point x="216" y="356" type="line"/>
      <point x="80" y="356" type="line"/>
      <point x="61" y="266" type="line"/>
      <point x="219" y="266" type="line"/>
      <point x="208" y="210" type="line"/>
      <point x="50" y="210" type="line"/>
      <point x="31" y="120" type="line"/>
      <point x="189" y="120" type="line"/>
    </contour>
  </outline>
</glyph>
<glyph name="section" format="2">
  <advance width="573"/>
  <unicode hex="00A7"/>
  <outline>
    <contour>
      <point x="192" y="-172" type="curve" smooth="yes"/>
      <point x="255" y="-172"/>
      <point x="308" y="-157"/>
      <point x="353" y="-127" type="curve" smooth="yes"/>
      <point x="396" y="-97"/>
      <point x="423" y="-57"/>
      <point x="434" y="-6" type="curve" smooth="yes"/>
      <point x="440" y="25"/>
      <point x="440" y="51"/>
      <point x="433" y="73" type="curve" smooth="yes"/>
      <point x="426" y="94"/>
      <point x="409" y="112"/>
      <point x="383" y="127" type="curve"/>
      <point x="417" y="140"/>
      <point x="445" y="161"/>
      <point x="470" y="189" type="curve" smooth="yes"/>
      <point x="494" y="216"/>
      <point x="510" y="249"/>
      <point x="518" y="288" type="curve" smooth="yes"/>
      <point x="538" y="385"/>
      <point x="495" y="448"/>
      <point x="388" y="477" type="curve" smooth="yes"/>
      <point x="340" y="490"/>
      <point x="307" y="502"/>
      <point x="290" y="514" type="curve" smooth="yes"/>
      <point x="272" y="525"/>
      <point x="266" y="543"/>
      <point x="271" y="567" type="curve" smooth="yes"/>
      <point x="275" y="587"/>
      <point x="285" y="602"/>
      <point x="302" y="613" type="curve" smooth="yes"/>
      <point x="319" y="624"/>
      <point x="340" y="629"/>
      <point x="366" y="629" type="curve" smooth="yes"/>
      <point x="395" y="629"/>
      <point x="416" y="623"/>
      <point x="428" y="611" type="curve" smooth="yes"/>
      <point x="440" y="598"/>
      <point x="444" y="581"/>
      <point x="439" y="558" type="curve"/>
      <point x="554" y="558" type="line"/>
      <point x="565" y="612"/>
      <point x="557" y="655"/>
      <point x="529" y="686" type="curve" smooth="yes"/>
      <point x="500" y="717"/>
      <point x="453" y="733"/>
      <point x="388" y="733" type="curve" smooth="yes"/>
      <point x="347" y="733"/>
      <point x="310" y="726"/>
      <point x="276" y="712" type="curve" smooth="yes"/>
      <point x="242" y="698"/>
      <point x="215" y="679"/>
      <point x="193" y="654" type="curve" smooth="yes"/>
      <point x="171" y="629"/>
      <point x="156" y="600"/>
      <point x="149" y="568" type="curve" smooth="yes"/>
      <point x="137" y="509"/>
      <point x="153" y="466"/>
      <point x="197" y="439" type="curve"/>
      <point x="162" y="424"/>
      <point x="133" y="404"/>
      <point x="110" y="377" type="curve" smooth="yes"/>
      <point x="87" y="350"/>
      <point x="71" y="317"/>
      <point x="63" y="280" type="curve" smooth="yes"/>
      <point x="43" y="181"/>
      <point x="86" y="117"/>
      <point x="193" y="88" type="curve" smooth="yes"/>
      <point x="241" y="77"/>
      <point x="275" y="65"/>
      <point x="293" y="52" type="curve" smooth="yes"/>
      <point x="311" y="39"/>
      <point x="318" y="20"/>
      <point x="313" y="-5" type="curve" smooth="yes"/>
      <point x="309" y="-25"/>
      <point x="299" y="-40"/>
      <point x="281" y="-51" type="curve" smooth="yes"/>
      <point x="264" y="-62"/>
      <point x="242" y="-68"/>
      <point x="215" y="-68" type="curve" smooth="yes"/>
      <point x="185" y="-68"/>
      <point x="163" y="-62"/>
      <point x="151" y="-49" type="curve" smooth="yes"/>
      <point x="138" y="-37"/>
      <point x="134" y="-19"/>
      <point x="139" y="4" type="curve"/>
      <point x="23" y="4" type="line"/>
      <point x="11" y="-52"/>
      <point x="20" y="-95"/>
      <point x="50" y="-126" type="curve" smooth="yes"/>
      <point x="78" y="-157"/>
      <point x="126" y="-172"/>
    </contour>
    <contour>
      <point x="200" y="217" type="curve" smooth="yes"/>
      <point x="185" y="232"/>
      <point x="181" y="254"/>
      <point x="187" y="283" type="curve" smooth="yes"/>
      <point x="193" y="312"/>
      <point x="207" y="335"/>
      <point x="228" y="350" type="curve" smooth="yes"/>
      <point x="249" y="365"/>
      <point x="277" y="373"/>
      <point x="311" y="373" type="curve" smooth="yes"/>
      <point x="344" y="373"/>
      <point x="368" y="365"/>
      <point x="382" y="350" type="curve" smooth="yes"/>
      <point x="396" y="335"/>
      <point x="400" y="312"/>
      <point x="394" y="283" type="curve" smooth="yes"/>
      <point x="388" y="254"/>
      <point x="374" y="232"/>
      <point x="354" y="217" type="curve" smooth="yes"/>
      <point x="334" y="201"/>
      <point x="306" y="193"/>
      <point x="273" y="193" type="curve" smooth="yes"/>
      <point x="239" y="193"/>
      <point x="215" y="201"/>
    </contour>
  </outline>
</glyph>
<glyph name="dieresis" format="2">
  <advance width="512"/>
  <unicode hex="00A8"/>
  <outline>
    <contour>
      <point x="179" y="720" type="line"/>
      <point x="289" y="720" type="line"/>
      <point x="264" y="601" type="line"/>
      <point x="154" y="601" type="line"/>
    </contour>
    <contour>
      <point x="413" y="720" type="line"/>
      <point x="523" y="720" type="line"/>
      <point x="498" y="601" type="line"/>
      <point x="388" y="601" type="line"/>
    </contour>
  </outline>
</glyph>
<glyph name="ordfeminine" format="2">
  <advance width="386"/>
  <unicode hex="00AA"/>
  <outline>
    <contour>
      <point x="195" y="436" type="curve" smooth="yes"/>
      <point x="216" y="436"/>
      <point x="233" y="439"/>
      <point x="250" y="445" type="curve" smooth="yes"/>
      <point x="266" y="450"/>
      <point x="280" y="459"/>
      <point x="296" y="471" type="curve"/>
      <point x="289" y="440" type="line"/>
      <point x="377" y="440" type="line"/>
      <point x="419" y="639" type="line" smooth="yes"/>
      <point x="437" y="724"/>
      <point x="394" y="766"/>
      <point x="291" y="766" type="curve" smooth="yes"/>
      <point x="246" y="766"/>
      <point x="209" y="757"/>
      <point x="182" y="739" type="curve" smooth="yes"/>
      <point x="154" y="720"/>
      <point x="137" y="696"/>
      <point x="130" y="665" type="curve" smooth="yes"/>
      <point x="130" y="663" type="line"/>
      <point x="214" y="663" type="line"/>
      <point x="214" y="665" type="line" smooth="yes"/>
      <point x="216" y="674"/>
      <point x="222" y="682"/>
      <point x="232" y="689" type="curve" smooth="yes"/>
      <point x="243" y="695"/>
      <point x="257" y="698"/>
      <point x="276" y="698" type="curve" smooth="yes"/>
      <point x="298" y="698"/>
      <point x="313" y="694"/>
      <point x="323" y="686" type="curve" smooth="yes"/>
      <point x="331" y="677"/>
      <point x="333" y="664"/>
      <point x="329" y="645" type="curve" smooth="yes"/>
      <point x="327" y="634" type="line"/>
      <point x="244" y="634" type="line" smooth="yes"/>
      <point x="201" y="634"/>
      <point x="166" y="626"/>
      <point x="142" y="610" type="curve" smooth="yes"/>
      <point x="117" y="594"/>
      <point x="101" y="571"/>
      <point x="94" y="540" type="curve" smooth="yes"/>
      <point x="88" y="508"/>
      <point x="93" y="483"/>
      <point x="110" y="464" type="curve" smooth="yes"/>
      <point x="128" y="445"/>
      <point x="156" y="436"/>
    </contour>
    <contour>
      <point x="192" y="518" type="curve" smooth="yes"/>
      <point x="184" y="524"/>
      <point x="181" y="532"/>
      <point x="183" y="543" type="curve" smooth="yes"/>
      <point x="187" y="564"/>
      <point x="207" y="574"/>
      <point x="242" y="574" type="curve" smooth="yes"/>
      <point x="314" y="574" type="line"/>
      <point x="312" y="565" type="line" smooth="yes"/>
      <point x="305" y="527"/>
      <point x="277" y="508"/>
      <point x="230" y="508" type="curve" smooth="yes"/>
      <point x="213" y="508"/>
      <point x="199" y="511"/>
    </contour>
  </outline>
</glyph>
<glyph name="guillemotleft" format="2">
  <advance width="595"/>
  <unicode hex="00AB"/>
  <outline>
    <contour>
      <point x="19" y="270" type="line"/>
      <point x="330" y="503" type="line"/>
      <point x="303" y="375" type="line"/>
      <point x="162" y="270" type="line"/>
      <point x="260" y="166" type="line"/>
      <point x="233" y="38" type="line"/>
    </contour>
    <contour>
      <point x="281" y="270" type="line"/>
      <point x="591" y="503" type="line"/>
      <point x="564" y="375" type="line"/>
      <point x="422" y="270" type="line"/>
      <point x="521" y="166" type="line"/>
      <point x="494" y="38" type="line"/>
    </contour>
  </outline>
</glyph>
<glyph name="registered" format="2">
  <advance width="506"/>
  <unicode hex="00AE"/>
  <outline>
    <contour>
      <point x="60" y="512" type="curve" smooth="yes"/>
      <point x="60" y="549"/>
      <point x="69" y="582"/>
      <point x="86" y="612" type="curve" smooth="yes"/>
      <point x="103" y="641"/>
      <point x="126" y="665"/>
      <point x="155" y="682" type="curve" smooth="yes"/>
      <point x="184" y="699"/>
      <point x="217" y="708"/>
      <point x="253" y="708" type="curve" smooth="yes"/>
      <point x="290" y="708"/>
      <point x="323" y="699"/>
      <point x="352" y="682" type="curve" smooth="yes"/>
      <point x="381" y="665"/>
      <point x="404" y="641"/>
      <point x="421" y="611" type="curve" smooth="yes"/>
      <point x="438" y="581"/>
      <point x="446" y="548"/>
      <point x="446" y="512" type="curve" smooth="yes"/>
      <point x="446" y="475"/>
      <point x="438" y="442"/>
      <point x="421" y="412" type="curve" smooth="yes"/>
      <point x="404" y="382"/>
      <point x="381" y="358"/>
      <point x="352" y="341" type="curve" smooth="yes"/>
      <point x="323" y="324"/>
      <point x="290" y="315"/>
      <point x="253" y="315" type="curve" smooth="yes"/>
      <point x="216" y="315"/>
      <point x="184" y="324"/>
      <point x="155" y="341" type="curve" smooth="yes"/>
      <point x="126" y="358"/>
      <point x="103" y="382"/>
      <point x="86" y="412" type="curve" smooth="yes"/>
      <point x="69" y="442"/>
      <point x="60" y="475"/>
    </contour>
    <contour>
      <point x="402" y="512" type="curve" smooth="yes"/>
      <point x="402" y="558"/>
      <point x="388" y="595"/>
      <point x="360" y="624" type="curve" smooth="yes"/>
      <point x="332" y="653"/>
      <point x="296" y="667"/>
      <point x="253" y="667" type="curve" smooth="yes"/>
      <point x="209" y="667"/>
      <point x="173" y="653"/>
      <point x="145" y="624" type="curve" smooth="yes"/>
      <point x="117" y="595"/>
      <point x="103" y="558"/>
      <point x="103" y="512" type="curve" smooth="yes"/>
      <point x="103" y="466"/>
      <point x="117" y="429"/>
      <point x="145" y="400" type="curve" smooth="yes"/>
      <point x="173" y="371"/>
      <point x="209" y="356"/>
      <point x="253" y="356" type="curve" smooth="yes"/>
      <point x="297" y="356"/>
      <point x="333" y="371"/>
      <point x="361" y="400" type="curve" smooth="yes"/>
      <point x="388" y="429"/>
      <point x="402" y="466"/>
    </contour>
    <contour>
      <point x="174" y="622" type="line"/>
      <point x="264" y="622" type="line" smooth="yes"/>
      <point x="289" y="622"/>
      <point x="309" y="616"/>
      <point x="323" y="605" type="curve" smooth="yes"/>
      <point x="336" y="593"/>
      <point x="343" y="576"/>
      <point x="343" y="554" type="curve" smooth="yes"/>
      <point x="343" y="525"/>
      <point x="330" y="505"/>
      <point x="305" y="493" type="curve"/>
      <point x="348" y="404" type="line"/>
      <point x="291" y="404" type="line"/>
      <point x="253" y="484" type="line"/>
      <point x="227" y="484" type="line"/>
      <point x="227" y="404" type="line"/>
      <point x="174" y="404" type="line"/>
    </contour>
    <contour>
      <point x="261" y="529" type="line" smooth="yes"/>
      <point x="280" y="529"/>
      <point x="290" y="537"/>
      <point x="290" y="553" type="curve" smooth="yes"/>
      <point x="290" y="569"/>
      <point x="280" y="577"/>
      <point x="261" y="577" type="curve" smooth="yes"/>
      <point x="227" y="577" type="line"/>
      <point x="227" y="529" type="line"/>
    </contour>
  </outline>
</glyph>
<glyph name="macron" format="2">
  <advance width="512"/>
  <unicode hex="00AF"/>
  <outline>
    <contour>
      <point x="164" y="604" type="line"/>
      <point x="490" y="604" type="line"/>
      <point x="513" y="717" type="line"/>
      <point x="187" y="717" type="line"/>
    </contour>
  </outline>
</glyph>
<glyph name="acute" format="2">
  <advance width="512"/>
  <unicode hex="00B4"/>
  <outline>
    <contour>
      <point x="339" y="738" type="line"/>
      <point x="479" y="738" type="line"/>
      <point x="310" y="602" type="line"/>
      <point x="200" y="602" type="line"/>
    </contour>
  </outline>
</glyph>
<glyph name="mu" format="2">
  <advance width="585"/>
  <unicode hex="00B5"/>
  <outline>
    <contour>
      <point x="111" y="532" type="line"/>
      <point x="238" y="532" type="line"/>
      <point x="174" y="226" type="line" smooth="yes"/>
      <point x="166" y="186"/>
      <point x="168" y="156"/>
      <point x="183" y="136" type="curve" smooth="yes"/>
      <point x="197" y="116"/>
      <point x="221" y="106"/>
      <point x="255" y="106" type="curve" smooth="yes"/>
      <point x="290" y="106"/>
      <point x="320" y="117"/>
      <point x="346" y="138" type="curve" smooth="yes"/>
      <point x="371" y="159"/>
      <point x="388" y="190"/>
      <point x="396" y="231" type="curve" smooth="yes"/>
      <point x="459" y="532" type="line"/>
      <point x="586" y="532" type="line"/>
      <point x="475" y="0" type="line"/>
      <point x="352" y="0" type="line"/>
      <point x="364" y="57" type="line"/>
      <point x="347" y="37"/>
      <point x="326" y="22"/>
      <point x="298" y="11" type="curve" smooth="yes"/>
      <point x="271" y="0"/>
      <point x="244" y="-6"/>
      <point x="215" y="-6" type="curve" smooth="yes"/>
      <point x="181" y="-6"/>
      <point x="152" y="1"/>
      <point x="130" y="14" type="curve"/>
      <point x="94" y="-160" type="line"/>
      <point x="-33" y="-160" type="line"/>
    </contour>
  </outline>
</glyph>
<glyph name="paragraph" format="2">
  <advance width="714"/>
  <unicode hex="00B6"/>
  <outline>
    <contour>
      <point x="312" y="269" type="line"/>
      <point x="310" y="269" type="line" smooth="yes"/>
      <point x="231" y="269"/>
      <point x="173" y="288"/>
      <point x="138" y="327" type="curve" smooth="yes"/>
      <point x="103" y="365"/>
      <point x="92" y="419"/>
      <point x="106" y="488" type="curve" smooth="yes"/>
      <point x="121" y="557"/>
      <point x="154" y="611"/>
      <point x="205" y="650" type="curve" smooth="yes"/>
      <point x="256" y="688"/>
      <point x="321" y="707"/>
      <point x="398" y="707" type="curve" smooth="yes"/>
      <point x="716" y="707" type="line"/>
      <point x="536" y="-160" type="line"/>
      <point x="424" y="-160" type="line"/>
      <point x="583" y="604" type="line"/>
      <point x="495" y="604" type="line"/>
      <point x="336" y="-160" type="line"/>
      <point x="223" y="-160" type="line"/>
    </contour>
  </outline>
</glyph>
<glyph name="ordmasculine" format="2">
  <advance width="387"/>
  <unicode hex="00BA"/>
  <outline>
    <contour>
      <point x="106" y="587" type="curve" smooth="yes"/>
      <point x="113" y="620" type="line" smooth="yes"/>
      <point x="123" y="667"/>
      <point x="144" y="704"/>
      <point x="177" y="729" type="curve" smooth="yes"/>
      <point x="209" y="754"/>
      <point x="249" y="766"/>
      <point x="298" y="766" type="curve" smooth="yes"/>
      <point x="347" y="766"/>
      <point x="383" y="753"/>
      <point x="404" y="728" type="curve" smooth="yes"/>
      <point x="426" y="703"/>
      <point x="432" y="667"/>
      <point x="422" y="620" type="curve" smooth="yes"/>
      <point x="415" y="587" type="line" smooth="yes"/>
      <point x="405" y="538"/>
      <point x="383" y="501"/>
      <point x="351" y="475" type="curve" smooth="yes"/>
      <point x="317" y="449"/>
      <point x="277" y="436"/>
      <point x="230" y="436" type="curve" smooth="yes"/>
      <point x="181" y="436"/>
      <point x="145" y="449"/>
      <point x="124" y="475" type="curve" smooth="yes"/>
      <point x="102" y="500"/>
      <point x="96" y="538"/>
    </contour>
    <contour>
      <point x="324" y="588" type="curve" smooth="yes"/>
      <point x="331" y="620" type="line" smooth="yes"/>
      <point x="335" y="641"/>
      <point x="333" y="657"/>
      <point x="324" y="668" type="curve" smooth="yes"/>
      <point x="315" y="679"/>
      <point x="300" y="684"/>
      <point x="281" y="684" type="curve" smooth="yes"/>
      <point x="261" y="684"/>
      <point x="244" y="679"/>
      <point x="231" y="668" type="curve" smooth="yes"/>
      <point x="218" y="657"/>
      <point x="208" y="641"/>
      <point x="204" y="620" type="curve" smooth="yes"/>
      <point x="197" y="588" type="line" smooth="yes"/>
      <point x="192" y="565"/>
      <point x="195" y="548"/>
      <point x="203" y="536" type="curve" smooth="yes"/>
      <point x="212" y="524"/>
      <point x="227" y="518"/>
      <point x="247" y="518" type="curve" smooth="yes"/>
      <point x="266" y="518"/>
      <point x="283" y="524"/>
      <point x="296" y="536" type="curve" smooth="yes"/>
      <point x="310" y="548"/>
      <point x="319" y="565"/>
    </contour>
  </outline>
</glyph>
<glyph name="guillemotright" format="2">
  <advance width="595"/>
  <unicode hex="00BB"/>
  <outline>
    <contour>
      <point x="8" y="38" type="line"/>
      <point x="35" y="166" type="line"/>
      <point x="176" y="270" type="line"/>
      <point x="78" y="375" type="line"/>
      <point x="105" y="503" type="line"/>
      <point x="317" y="270" type="line"/>
    </contour>
    <contour>
      <point x="296" y="166" type="line"/>
      <point x="436" y="270" type="line"/>
      <point x="339" y="375" type="line"/>
      <point x="366" y="503" type="line"/>
      <point x="579" y="270" type="line"/>
      <point x="269" y="38" type="line"/>
    </contour>
  </outline>
</glyph>
<glyph name="onequarter" format="2">
  <advance width="879"/>
  <unicode hex="00BC"/>
  <outline>
    <contour>
      <point x="777" y="712" type="line"/>
      <point x="174" y="0" type="line"/>
      <point x="71" y="0" type="line"/>
      <point x="673" y="712" type="line"/>
    </contour>
    <contour>
      <point x="126" y="278" type="line"/>
      <point x="192" y="597" type="line"/>
      <point x="91" y="547" type="line"/>
      <point x="113" y="655" type="line"/>
      <point x="215" y="707" type="line"/>
      <point x="320" y="707" type="line"/>
      <point x="231" y="278" type="line"/>
    </contour>
    <contour>
      <point x="807" y="58" type="line"/>
      <point x="776" y="58" type="line"/>
      <point x="764" y="0" type="line"/>
      <point x="659" y="0" type="line"/>
      <point x="671" y="58" type="line"/>
      <point x="471" y="58" type="line"/>
      <point x="490" y="150" type="line"/>
      <point x="685" y="429" type="line"/>
      <point x="793" y="429" type="line"/>
      <point x="598" y="150" type="line"/>
      <point x="690" y="150" type="line"/>
      <point x="709" y="240" type="line"/>
      <point x="814" y="240" type="line"/>
      <point x="795" y="150" type="line"/>
      <point x="826" y="150" type="line"/>
    </contour>
  </outline>
</glyph>
<glyph name="onehalf" format="2">
  <advance width="903"/>
  <unicode hex="00BD"/>
  <outline>
    <contour>
      <point x="500" y="0" type="line"/>
      <point x="801" y="0" type="line"/>
      <point x="820" y="91" type="line"/>
      <point x="667" y="91" type="line"/>
      <point x="767" y="176" type="line" smooth="yes"/>
      <point x="797" y="199"/>
      <point x="820" y="220"/>
      <point x="835" y="239" type="curve" smooth="yes"/>
      <point x="849" y="257"/>
      <point x="859" y="278"/>
      <point x="864" y="303" type="curve" smooth="yes"/>
      <point x="866" y="311" type="line" smooth="yes"/>
      <point x="873" y="348"/>
      <point x="866" y="379"/>
      <point x="844" y="402" type="curve" smooth="yes"/>
      <point x="821" y="425"/>
      <point x="786" y="436"/>
      <point x="739" y="436" type="curve" smooth="yes"/>
      <point x="691" y="436"/>
      <point x="651" y="425"/>
      <point x="620" y="402" type="curve" smooth="yes"/>
      <point x="588" y="379"/>
      <point x="569" y="349"/>
      <point x="560" y="310" type="curve" smooth="yes"/>
      <point x="559" y="301" type="line"/>
      <point x="660" y="301" type="line"/>
      <point x="661" y="307" type="line" smooth="yes"/>
      <point x="664" y="320"/>
      <point x="670" y="331"/>
      <point x="679" y="338" type="curve" smooth="yes"/>
      <point x="689" y="345"/>
      <point x="701" y="348"/>
      <point x="717" y="348" type="curve" smooth="yes"/>
      <point x="750" y="348"/>
      <point x="763" y="334"/>
      <point x="758" y="306" type="curve" smooth="yes"/>
      <point x="756" y="300" type="line" smooth="yes"/>
      <point x="755" y="291"/>
      <point x="749" y="281"/>
      <point x="743" y="272" type="curve" smooth="yes"/>
      <point x="735" y="263"/>
      <point x="723" y="252"/>
      <point x="708" y="241" type="curve" smooth="yes"/>
      <point x="517" y="82" type="line"/>
    </contour>
    <contour>
      <point x="71" y="0" type="line"/>
      <point x="174" y="0" type="line"/>
      <point x="777" y="712" type="line"/>
      <point x="673" y="712" type="line"/>
    </contour>
    <contour>
      <point x="126" y="278" type="line"/>
      <point x="231" y="278" type="line"/>
      <point x="320" y="707" type="line"/>
      <point x="215" y="707" type="line"/>
      <point x="113" y="655" type="line"/>
      <point x="91" y="547" type="line"/>
      <point x="192" y="597" type="line"/>
    </contour>
  </outline>
</glyph>
<glyph name="threequarters" format="2">
  <advance width="974"/>
  <unicode hex="00BE"/>
  <outline>
    <contour>
      <point x="197" y="270" type="curve" smooth="yes"/>
      <point x="242" y="270"/>
      <point x="282" y="282"/>
      <point x="315" y="306" type="curve" smooth="yes"/>
      <point x="347" y="329"/>
      <point x="368" y="361"/>
      <point x="376" y="400" type="curve" smooth="yes"/>
      <point x="378" y="409" type="line" smooth="yes"/>
      <point x="383" y="433"/>
      <point x="381" y="454"/>
      <point x="374" y="472" type="curve" smooth="yes"/>
      <point x="367" y="489"/>
      <point x="352" y="501"/>
      <point x="332" y="506" type="curve"/>
      <point x="353" y="513"/>
      <point x="369" y="525"/>
      <point x="382" y="540" type="curve" smooth="yes"/>
      <point x="395" y="555"/>
      <point x="404" y="571"/>
      <point x="407" y="589" type="curve" smooth="yes"/>
      <point x="409" y="596" type="line" smooth="yes"/>
      <point x="416" y="632"/>
      <point x="409" y="661"/>
      <point x="389" y="682" type="curve" smooth="yes"/>
      <point x="367" y="703"/>
      <point x="333" y="714"/>
      <point x="288" y="714" type="curve" smooth="yes"/>
      <point x="240" y="714"/>
      <point x="201" y="703"/>
      <point x="172" y="682" type="curve" smooth="yes"/>
      <point x="141" y="661"/>
      <point x="122" y="630"/>
      <point x="113" y="589" type="curve" smooth="yes"/>
      <point x="112" y="583" type="line"/>
      <point x="206" y="583" type="line"/>
      <point x="208" y="590" type="line" smooth="yes"/>
      <point x="213" y="615"/>
      <point x="233" y="628"/>
      <point x="266" y="628" type="curve" smooth="yes"/>
      <point x="299" y="628"/>
      <point x="312" y="615"/>
      <point x="306" y="588" type="curve" smooth="yes"/>
      <point x="305" y="581" type="line" smooth="yes"/>
      <point x="298" y="554"/>
      <point x="277" y="541"/>
      <point x="240" y="541" type="curve" smooth="yes"/>
      <point x="217" y="541" type="line"/>
      <point x="199" y="454" type="line"/>
      <point x="223" y="454" type="line" smooth="yes"/>
      <point x="264" y="454"/>
      <point x="282" y="438"/>
      <point x="276" y="407" type="curve" smooth="yes"/>
      <point x="274" y="399" type="line" smooth="yes"/>
      <point x="271" y="386"/>
      <point x="265" y="375"/>
      <point x="255" y="368" type="curve" smooth="yes"/>
      <point x="244" y="360"/>
      <point x="230" y="356"/>
      <point x="213" y="356" type="curve" smooth="yes"/>
      <point x="176" y="356"/>
      <point x="161" y="369"/>
      <point x="166" y="395" type="curve" smooth="yes"/>
      <point x="167" y="401" type="line"/>
      <point x="72" y="401" type="line"/>
      <point x="71" y="393" type="line" smooth="yes"/>
      <point x="62" y="353"/>
      <point x="69" y="323"/>
      <point x="91" y="302" type="curve" smooth="yes"/>
      <point x="111" y="281"/>
      <point x="147" y="270"/>
    </contour>
    <contour>
      <point x="754" y="0" type="line"/>
      <point x="859" y="0" type="line"/>
      <point x="871" y="58" type="line"/>
      <point x="902" y="58" type="line"/>
      <point x="921" y="150" type="line"/>
      <point x="890" y="150" type="line"/>
      <point x="909" y="240" type="line"/>
      <point x="804" y="240" type="line"/>
      <point x="785" y="150" type="line"/>
      <point x="693" y="150" type="line"/>
      <point x="888" y="429" type="line"/>
      <point x="780" y="429" type="line"/>
      <point x="585" y="150" type="line"/>
      <point x="566" y="58" type="line"/>
      <point x="766" y="58" type="line"/>
    </contour>
    <contour>
      <point x="166" y="0" type="line"/>
      <point x="270" y="0" type="line"/>
      <point x="872" y="712" type="line"/>
      <point x="768" y="712" type="line"/>
    </contour>
  </outline>
</glyph>
<glyph name="questiondown" format="2">
  <advance width="512"/>
  <unicode hex="00BF"/>
  <outline>
    <contour>
      <point x="172" y="-170" type="curve" smooth="yes"/>
      <point x="317" y="-170"/>
      <point x="404" y="-104"/>
      <point x="435" y="27" type="curve"/>
      <point x="311" y="27" type="line"/>
      <point x="304" y="0"/>
      <point x="292" y="-21"/>
      <point x="274" y="-34" type="curve" smooth="yes"/>
      <point x="256" y="-48"/>
      <point x="231" y="-55"/>
      <point x="198" y="-55" type="curve" smooth="yes"/>
      <point x="166" y="-55"/>
      <point x="143" y="-49"/>
      <point x="129" y="-36" type="curve" smooth="yes"/>
      <point x="114" y="-23"/>
      <point x="110" y="-5"/>
      <point x="115" y="20" type="curve" smooth="yes"/>
      <point x="118" y="36"/>
      <point x="126" y="51"/>
      <point x="135" y="64" type="curve" smooth="yes"/>
      <point x="145" y="77"/>
      <point x="162" y="93"/>
      <point x="185" y="110" type="curve" smooth="yes"/>
      <point x="243" y="156" type="line" smooth="yes"/>
      <point x="273" y="179"/>
      <point x="295" y="200"/>
      <point x="308" y="220" type="curve" smooth="yes"/>
      <point x="320" y="239"/>
      <point x="329" y="266"/>
      <point x="336" y="300" type="curve" smooth="yes"/>
      <point x="343" y="333" type="line"/>
      <point x="216" y="333" type="line"/>
      <point x="212" y="315" type="line" smooth="yes"/>
      <point x="208" y="292"/>
      <point x="201" y="274"/>
      <point x="192" y="260" type="curve" smooth="yes"/>
      <point x="183" y="246"/>
      <point x="168" y="230"/>
      <point x="145" y="213" type="curve" smooth="yes"/>
      <point x="83" y="165" type="line" smooth="yes"/>
      <point x="53" y="141"/>
      <point x="30" y="117"/>
      <point x="15" y="92" type="curve" smooth="yes"/>
      <point x="-1" y="67"/>
      <point x="-12" y="40"/>
      <point x="-17" y="12" type="curve" smooth="yes"/>
      <point x="-29" y="-45"/>
      <point x="-18" y="-89"/>
      <point x="16" y="-121" type="curve" smooth="yes"/>
      <point x="49" y="-154"/>
      <point x="101" y="-170"/>
    </contour>
    <contour>
      <point x="226" y="401" type="line"/>
      <point x="360" y="401" type="line"/>
      <point x="388" y="532" type="line"/>
      <point x="254" y="532" type="line"/>
    </contour>
  </outline>
</glyph>
<glyph name="Aring" format="2">
  <advance width="697"/>
  <unicode hex="00C5"/>
  <outline>
    <contour>
      <point x="-51" y="0" type="line"/>
      <point x="92" y="0" type="line"/>
      <point x="172" y="137" type="line"/>
      <point x="472" y="137" type="line"/>
      <point x="495" y="0" type="line"/>
      <point x="638" y="0" type="line"/>
      <point x="495" y="706" type="line"/>
      <point x="513" y="715"/>
      <point x="528" y="727"/>
      <point x="540" y="743" type="curve" smooth="yes"/>
      <point x="553" y="759"/>
      <point x="562" y="777"/>
      <point x="566" y="797" type="curve" smooth="yes"/>
      <point x="572" y="828"/>
      <point x="567" y="853"/>
      <point x="552" y="873" type="curve" smooth="yes"/>
      <point x="535" y="893"/>
      <point x="512" y="903"/>
      <point x="482" y="903" type="curve" smooth="yes"/>
      <point x="452" y="903"/>
      <point x="425" y="893"/>
      <point x="401" y="873" type="curve" smooth="yes"/>
      <point x="376" y="853"/>
      <point x="361" y="828"/>
      <point x="355" y="797" type="curve" smooth="yes"/>
      <point x="351" y="777"/>
      <point x="351" y="759"/>
      <point x="357" y="744" type="curve" smooth="yes"/>
      <point x="362" y="728"/>
      <point x="372" y="715"/>
      <point x="386" y="706" type="curve"/>
    </contour>
    <contour>
      <point x="238" y="249" type="line"/>
      <point x="405" y="537" type="line"/>
      <point x="454" y="249" type="line"/>
    </contour>
    <contour>
      <point x="420" y="763" type="curve" smooth="yes"/>
      <point x="413" y="772"/>
      <point x="410" y="784"/>
      <point x="413" y="797" type="curve" smooth="yes"/>
      <point x="416" y="811"/>
      <point x="423" y="823"/>
      <point x="434" y="833" type="curve" smooth="yes"/>
      <point x="445" y="842"/>
      <point x="457" y="847"/>
      <point x="470" y="847" type="curve" smooth="yes"/>
      <point x="484" y="847"/>
      <point x="495" y="842"/>
      <point x="502" y="833" type="curve" smooth="yes"/>
      <point x="509" y="824"/>
      <point x="511" y="812"/>
      <point x="508" y="797" type="curve" smooth="yes"/>
      <point x="505" y="783"/>
      <point x="497" y="771"/>
      <point x="486" y="762" type="curve" smooth="yes"/>
      <point x="476" y="753"/>
      <point x="463" y="748"/>
      <point x="450" y="748" type="curve" smooth="yes"/>
      <point x="437" y="748"/>
      <point x="427" y="753"/>
    </contour>
  </outline>
</glyph>
<glyph name="AE" format="2">
  <advance width="1018"/>
  <unicode hex="00C6"/>
  <outline>
    <contour>
      <point x="-51" y="0" type="line"/>
      <point x="99" y="0" type="line"/>
      <point x="208" y="144" type="line"/>
      <point x="457" y="144" type="line"/>
      <point x="427" y="0" type="line"/>
      <point x="928" y="0" type="line"/>
      <point x="952" y="117" type="line"/>
      <point x="586" y="117" type="line"/>
      <point x="624" y="298" type="line"/>
      <point x="938" y="298" type="line"/>
      <point x="962" y="415" type="line"/>
      <point x="648" y="415" type="line"/>
      <point x="685" y="590" type="line"/>
      <point x="1051" y="590" type="line"/>
      <point x="1075" y="707" type="line"/>
      <point x="505" y="707" type="line"/>
    </contour>
    <contour>
      <point x="293" y="256" type="line"/>
      <point x="551" y="594" type="line"/>
      <point x="480" y="256" type="line"/>
    </contour>
  </outline>
</glyph>
<glyph name="Ccedilla" format="2">
  <advance width="689"/>
  <unicode hex="00C7"/>
  <outline>
    <contour>
      <point x="552" y="470" type="line"/>
      <point x="553" y="474" type="line" smooth="yes"/>
      <point x="561" y="513"/>
      <point x="554" y="545"/>
      <point x="532" y="568" type="curve" smooth="yes"/>
      <point x="510" y="591"/>
      <point x="475" y="602"/>
      <point x="428" y="602" type="curve" smooth="yes"/>
      <point x="372" y="602"/>
      <point x="327" y="586"/>
      <point x="293" y="553" type="curve" smooth="yes"/>
      <point x="258" y="520"/>
      <point x="234" y="470"/>
      <point x="220" y="402" type="curve" smooth="yes"/>
      <point x="199" y="301" type="line" smooth="yes"/>
      <point x="185" y="236"/>
      <point x="189" y="188"/>
      <point x="211" y="157" type="curve" smooth="yes"/>
      <point x="232" y="126"/>
      <point x="271" y="110"/>
      <point x="327" y="110" type="curve" smooth="yes"/>
      <point x="374" y="110"/>
      <point x="413" y="121"/>
      <point x="445" y="143" type="curve" smooth="yes"/>
      <point x="475" y="165"/>
      <point x="495" y="195"/>
      <point x="503" y="234" type="curve" smooth="yes"/>
      <point x="504" y="240" type="line"/>
      <point x="637" y="240" type="line"/>
      <point x="636" y="234" type="line" smooth="yes"/>
      <point x="622" y="167"/>
      <point x="592" y="113"/>
      <point x="544" y="72" type="curve" smooth="yes"/>
      <point x="496" y="30"/>
      <point x="438" y="4"/>
      <point x="369" y="-6" type="curve"/>
      <point x="274" y="-160" type="line"/>
      <point x="153" y="-160" type="line"/>
      <point x="260" y="-9" type="line"/>
      <point x="179" y="-2"/>
      <point x="121" y="27"/>
      <point x="86" y="79" type="curve" smooth="yes"/>
      <point x="51" y="130"/>
      <point x="43" y="204"/>
      <point x="63" y="299" type="curve" smooth="yes"/>
      <point x="86" y="410" type="line" smooth="yes"/>
      <point x="108" y="513"/>
      <point x="151" y="591"/>
      <point x="215" y="643" type="curve" smooth="yes"/>
      <point x="278" y="694"/>
      <point x="358" y="720"/>
      <point x="453" y="720" type="curve" smooth="yes"/>
      <point x="540" y="720"/>
      <point x="604" y="699"/>
      <point x="647" y="656" type="curve" smooth="yes"/>
      <point x="689" y="613"/>
      <point x="703" y="554"/>
      <point x="687" y="478" type="curve" smooth="yes"/>
      <point x="686" y="470" type="line"/>
    </contour>
  </outline>
</glyph>
<glyph name="Eth" format="2">
  <advance width="710"/>
  <unicode hex="00D0"/>
  <outline>
    <contour>
      <point x="693" y="397" type="curve" smooth="yes"/>
      <point x="674" y="310" type="line" smooth="yes"/>
      <point x="653" y="205"/>
      <point x="610" y="127"/>
      <point x="547" y="76" type="curve" smooth="yes"/>
      <point x="483" y="25"/>
      <point x="404" y="0"/>
      <point x="309" y="0" type="curve" smooth="yes"/>
      <point x="38" y="0" type="line"/>
      <point x="101" y="301" type="line"/>
      <point x="36" y="301" type="line"/>
      <point x="60" y="419" type="line"/>
      <point x="125" y="419" type="line"/>
      <point x="185" y="707" type="line"/>
      <point x="461" y="707" type="line" smooth="yes"/>
      <point x="555" y="707"/>
      <point x="623" y="682"/>
      <point x="664" y="631" type="curve" smooth="yes"/>
      <point x="705" y="580"/>
      <point x="714" y="502"/>
    </contour>
    <contour>
      <point x="556" y="390" type="line" smooth="yes"/>
      <point x="570" y="459"/>
      <point x="568" y="510"/>
      <point x="549" y="542" type="curve" smooth="yes"/>
      <point x="528" y="574"/>
      <point x="491" y="590"/>
      <point x="436" y="590" type="curve" smooth="yes"/>
      <point x="295" y="590" type="line"/>
      <point x="259" y="419" type="line"/>
      <point x="420" y="419" type="line"/>
      <point x="396" y="301" type="line"/>
      <point x="235" y="301" type="line"/>
      <point x="196" y="117" type="line"/>
      <point x="337" y="117" type="line" smooth="yes"/>
      <point x="392" y="117"/>
      <point x="437" y="133"/>
      <point x="470" y="164" type="curve" smooth="yes"/>
      <point x="503" y="195"/>
      <point x="526" y="243"/>
      <point x="539" y="310" type="curve" smooth="yes"/>
    </contour>
  </outline>
</glyph>
<glyph name="multiply" format="2">
  <advance width="541"/>
  <unicode hex="00D7"/>
  <outline>
    <contour>
      <point x="148" y="82" type="line"/>
      <point x="271" y="205" type="line"/>
      <point x="393" y="82" type="line"/>
      <point x="471" y="161" type="line"/>
      <point x="349" y="283" type="line"/>
      <point x="471" y="404" type="line"/>
      <point x="393" y="483" type="line"/>
      <point x="271" y="361" type="line"/>
      <point x="148" y="483" type="line"/>
      <point x="71" y="406" type="line"/>
      <point x="193" y="283" type="line"/>
      <point x="71" y="161" type="line"/>
    </contour>
  </outline>
</glyph>
<glyph name="Oslash" format="2">
  <advance width="689"/>
  <unicode hex="00D8"/>
  <outline>
    <contour>
      <point x="-3" y="-20" type="line"/>
      <point x="81" y="-20" type="line"/>
      <point x="128" y="33" type="line"/>
      <point x="168" y="4"/>
      <point x="222" y="-11"/>
      <point x="291" y="-11" type="curve" smooth="yes"/>
      <point x="382" y="-11"/>
      <point x="460" y="15"/>
      <point x="524" y="67" type="curve" smooth="yes"/>
      <point x="588" y="119"/>
      <point x="630" y="196"/>
      <point x="651" y="299" type="curve" smooth="yes"/>
      <point x="674" y="410" type="line" smooth="yes"/>
      <point x="694" y="507"/>
      <point x="686" y="582"/>
      <point x="650" y="635" type="curve"/>
      <point x="735" y="732" type="line"/>
      <point x="653" y="732" type="line"/>
      <point x="606" y="679" type="line"/>
      <point x="566" y="706"/>
      <point x="513" y="720"/>
      <point x="447" y="720" type="curve" smooth="yes"/>
      <point x="355" y="720"/>
      <point x="277" y="694"/>
      <point x="215" y="643" type="curve" smooth="yes"/>
      <point x="151" y="591"/>
      <point x="109" y="513"/>
      <point x="87" y="410" type="curve" smooth="yes"/>
      <point x="64" y="299" type="line" smooth="yes"/>
      <point x="45" y="206"/>
      <point x="52" y="133"/>
      <point x="85" y="80" type="curve"/>
    </contour>
    <contour>
      <point x="222" y="141" type="curve"/>
      <point x="545" y="513" type="line"/>
      <point x="549" y="482"/>
      <point x="548" y="445"/>
      <point x="539" y="402" type="curve" smooth="yes"/>
      <point x="518" y="301" type="line" smooth="yes"/>
      <point x="491" y="174"/>
      <point x="425" y="110"/>
      <point x="320" y="110" type="curve" smooth="yes"/>
      <point x="276" y="109"/>
      <point x="243" y="120"/>
    </contour>
    <contour>
      <point x="194" y="205" type="line"/>
      <point x="190" y="231"/>
      <point x="193" y="263"/>
      <point x="201" y="301" type="curve" smooth="yes"/>
      <point x="222" y="402" type="line" smooth="yes"/>
      <point x="236" y="470"/>
      <point x="259" y="520"/>
      <point x="292" y="553" type="curve" smooth="yes"/>
      <point x="325" y="586"/>
      <point x="368" y="602"/>
      <point x="422" y="602" type="curve" smooth="yes"/>
      <point x="463" y="602"/>
      <point x="494" y="592"/>
      <point x="515" y="572" type="curve"/>
    </contour>
  </outline>
</glyph>
<glyph name="Thorn" format="2">
  <advance width="643"/>
  <unicode hex="00DE"/>
  <outline>
    <contour>
      <point x="5" y="0" type="line"/>
      <point x="140" y="0" type="line"/>
      <point x="172" y="153" type="line"/>
      <point x="337" y="153" type="line" smooth="yes"/>
      <point x="420" y="153"/>
      <point x="487" y="172"/>
      <point x="540" y="210" type="curve" smooth="yes"/>
      <point x="593" y="248"/>
      <point x="626" y="301"/>
      <point x="640" y="369" type="curve" smooth="yes"/>
      <point x="654" y="440"/>
      <point x="644" y="495"/>
      <point x="607" y="533" type="curve" smooth="yes"/>
      <point x="570" y="571"/>
      <point x="513" y="590"/>
      <point x="434" y="590" type="curve" smooth="yes"/>
      <point x="263" y="590" type="line"/>
      <point x="287" y="707" type="line"/>
      <point x="152" y="707" type="line"/>
    </contour>
    <contour>
      <point x="196" y="269" type="line"/>
      <point x="238" y="473" type="line"/>
      <point x="414" y="473" type="line" smooth="yes"/>
      <point x="450" y="473"/>
      <point x="477" y="465"/>
      <point x="493" y="448" type="curve" smooth="yes"/>
      <point x="509" y="431"/>
      <point x="513" y="405"/>
      <point x="506" y="370" type="curve" smooth="yes"/>
      <point x="492" y="303"/>
      <point x="447" y="270"/>
      <point x="372" y="269" type="curve" smooth="yes"/>
    </contour>
  </outline>
</glyph>
<glyph name="germandbls" format="2">
  <advance width="590"/>
  <unicode hex="00DF"/>
  <outline>
    <contour>
      <point x="230" y="-4" type="line"/>
      <point x="277" y="-4" type="line" smooth="yes"/>
      <point x="331" y="-4"/>
      <point x="375" y="4"/>
      <point x="409" y="20" type="curve" smooth="yes"/>
      <point x="442" y="36"/>
      <point x="470" y="61"/>
      <point x="490" y="96" type="curve" smooth="yes"/>
      <point x="510" y="131"/>
      <point x="527" y="177"/>
      <point x="539" y="236" type="curve" smooth="yes"/>
      <point x="551" y="291"/>
      <point x="553" y="333"/>
      <point x="548" y="362" type="curve" smooth="yes"/>
      <point x="542" y="391"/>
      <point x="526" y="413"/>
      <point x="498" y="428" type="curve"/>
      <point x="525" y="440"/>
      <point x="547" y="456"/>
      <point x="562" y="476" type="curve" smooth="yes"/>
      <point x="577" y="495"/>
      <point x="588" y="519"/>
      <point x="594" y="548" type="curve" smooth="yes"/>
      <point x="605" y="603"/>
      <point x="594" y="645"/>
      <point x="559" y="674" type="curve" smooth="yes"/>
      <point x="524" y="703"/>
      <point x="469" y="717"/>
      <point x="393" y="717" type="curve" smooth="yes"/>
      <point x="309" y="717"/>
      <point x="243" y="699"/>
      <point x="197" y="664" type="curve" smooth="yes"/>
      <point x="151" y="628"/>
      <point x="119" y="573"/>
      <point x="104" y="500" type="curve" smooth="yes"/>
      <point x="0" y="0" type="line"/>
      <point x="127" y="0" type="line"/>
      <point x="233" y="511" type="line" smooth="yes"/>
      <point x="241" y="546"/>
      <point x="255" y="571"/>
      <point x="277" y="586" type="curve" smooth="yes"/>
      <point x="299" y="601"/>
      <point x="330" y="608"/>
      <point x="371" y="608" type="curve" smooth="yes"/>
      <point x="408" y="608"/>
      <point x="434" y="603"/>
      <point x="450" y="592" type="curve" smooth="yes"/>
      <point x="466" y="581"/>
      <point x="471" y="564"/>
      <point x="466" y="541" type="curve" smooth="yes"/>
      <point x="458" y="498"/>
      <point x="424" y="476"/>
      <point x="366" y="476" type="curve" smooth="yes"/>
      <point x="330" y="476" type="line"/>
      <point x="308" y="371" type="line"/>
      <point x="334" y="371" type="line" smooth="yes"/>
      <point x="363" y="371"/>
      <point x="384" y="367"/>
      <point x="397" y="358" type="curve" smooth="yes"/>
      <point x="411" y="349"/>
      <point x="419" y="335"/>
      <point x="421" y="316" type="curve" smooth="yes"/>
      <point x="423" y="297"/>
      <point x="420" y="270"/>
      <point x="413" y="236" type="curve" smooth="yes"/>
      <point x="406" y="201"/>
      <point x="397" y="175"/>
      <point x="388" y="156" type="curve" smooth="yes"/>
      <point x="379" y="137"/>
      <point x="367" y="124"/>
      <point x="352" y="115" type="curve" smooth="yes"/>
      <point x="337" y="106"/>
      <point x="316" y="102"/>
      <point x="289" y="102" type="curve" smooth="yes"/>
      <point x="252" y="102" type="line"/>
    </contour>
  </outline>
</glyph>
<glyph name="ae" format="2">
  <advance width="921"/>
  <unicode hex="00E6"/>
  <outline>
    <contour>
      <point x="407" y="63" type="curve"/>
      <point x="443" y="15"/>
      <point x="502" y="-9"/>
      <point x="584" y="-9" type="curve" smooth="yes"/>
      <point x="630" y="-9"/>
      <point x="672" y="-2"/>
      <point x="709" y="13" type="curve" smooth="yes"/>
      <point x="745" y="28"/>
      <point x="775" y="48"/>
      <point x="799" y="74" type="curve" smooth="yes"/>
      <point x="824" y="100"/>
      <point x="840" y="129"/>
      <point x="848" y="161" type="curve" smooth="yes"/>
      <point x="851" y="167" type="line"/>
      <point x="728" y="167" type="line"/>
      <point x="725" y="164" type="line"/>
      <point x="718" y="144"/>
      <point x="704" y="129"/>
      <point x="684" y="118" type="curve" smooth="yes"/>
      <point x="662" y="107"/>
      <point x="637" y="101"/>
      <point x="607" y="101" type="curve" smooth="yes"/>
      <point x="520" y="101"/>
      <point x="486" y="144"/>
      <point x="504" y="229" type="curve"/>
      <point x="869" y="229" type="line"/>
      <point x="882" y="291" type="line" smooth="yes"/>
      <point x="898" y="372"/>
      <point x="889" y="434"/>
      <point x="855" y="477" type="curve" smooth="yes"/>
      <point x="820" y="520"/>
      <point x="765" y="542"/>
      <point x="689" y="542" type="curve" smooth="yes"/>
      <point x="616" y="541"/>
      <point x="554" y="521"/>
      <point x="501" y="480" type="curve"/>
      <point x="468" y="519"/>
      <point x="411" y="539"/>
      <point x="332" y="539" type="curve" smooth="yes"/>
      <point x="265" y="539"/>
      <point x="208" y="525"/>
      <point x="162" y="496" type="curve" smooth="yes"/>
      <point x="116" y="467"/>
      <point x="88" y="427"/>
      <point x="77" y="376" type="curve" smooth="yes"/>
      <point x="77" y="373" type="line"/>
      <point x="198" y="373" type="line"/>
      <point x="198" y="376" type="line" smooth="yes"/>
      <point x="202" y="395"/>
      <point x="213" y="410"/>
      <point x="231" y="423" type="curve" smooth="yes"/>
      <point x="248" y="435"/>
      <point x="275" y="441"/>
      <point x="309" y="441" type="curve" smooth="yes"/>
      <point x="384" y="441"/>
      <point x="415" y="409"/>
      <point x="402" y="346" type="curve" smooth="yes"/>
      <point x="396" y="316" type="line"/>
      <point x="254" y="316" type="line" smooth="yes"/>
      <point x="187" y="316"/>
      <point x="134" y="303"/>
      <point x="94" y="277" type="curve" smooth="yes"/>
      <point x="53" y="251"/>
      <point x="27" y="212"/>
      <point x="16" y="161" type="curve" smooth="yes"/>
      <point x="5" y="108"/>
      <point x="16" y="67"/>
      <point x="47" y="37" type="curve" smooth="yes"/>
      <point x="77" y="6"/>
      <point x="127" y="-9"/>
      <point x="195" y="-9" type="curve" smooth="yes"/>
      <point x="281" y="-10"/>
      <point x="352" y="14"/>
    </contour>
    <contour>
      <point x="140" y="165" type="curve" smooth="yes"/>
      <point x="145" y="188"/>
      <point x="157" y="204"/>
      <point x="177" y="214" type="curve" smooth="yes"/>
      <point x="196" y="224"/>
      <point x="223" y="229"/>
      <point x="259" y="229" type="curve" smooth="yes"/>
      <point x="378" y="229" type="line"/>
      <point x="371" y="198" type="line" smooth="yes"/>
      <point x="364" y="164"/>
      <point x="349" y="138"/>
      <point x="325" y="121" type="curve" smooth="yes"/>
      <point x="301" y="104"/>
      <point x="268" y="95"/>
      <point x="226" y="95" type="curve" smooth="yes"/>
      <point x="159" y="95"/>
      <point x="131" y="118"/>
    </contour>
    <contour>
      <point x="522" y="316" type="line"/>
      <point x="542" y="394"/>
      <point x="590" y="433"/>
      <point x="666" y="433" type="curve" smooth="yes"/>
      <point x="702" y="433"/>
      <point x="729" y="424"/>
      <point x="747" y="406" type="curve" smooth="yes"/>
      <point x="764" y="387"/>
      <point x="770" y="360"/>
      <point x="763" y="325" type="curve" smooth="yes"/>
      <point x="761" y="316" type="line"/>
    </contour>
  </outline>
</glyph>
<glyph name="ccedilla" format="2">
  <advance width="572"/>
  <unicode hex="00E7"/>
  <outline>
    <contour>
      <point x="89" y="-160" type="line"/>
      <point x="211" y="-160" type="line"/>
      <point x="309" y="-2" type="line"/>
      <point x="362" y="8"/>
      <point x="405" y="29"/>
      <point x="441" y="62" type="curve" smooth="yes"/>
      <point x="476" y="95"/>
      <point x="498" y="136"/>
      <point x="509" y="186" type="curve" smooth="yes"/>
      <point x="510" y="190" type="line"/>
      <point x="386" y="190" type="line"/>
      <point x="385" y="186" type="line" smooth="yes"/>
      <point x="379" y="161"/>
      <point x="366" y="141"/>
      <point x="344" y="126" type="curve" smooth="yes"/>
      <point x="322" y="111"/>
      <point x="296" y="104"/>
      <point x="263" y="104" type="curve" smooth="yes"/>
      <point x="222" y="104"/>
      <point x="193" y="115"/>
      <point x="177" y="136" type="curve" smooth="yes"/>
      <point x="161" y="157"/>
      <point x="158" y="190"/>
      <point x="167" y="237" type="curve" smooth="yes"/>
      <point x="180" y="297" type="line" smooth="yes"/>
      <point x="189" y="343"/>
      <point x="206" y="377"/>
      <point x="232" y="398" type="curve" smooth="yes"/>
      <point x="256" y="419"/>
      <point x="288" y="429"/>
      <point x="327" y="429" type="curve" smooth="yes"/>
      <point x="361" y="429"/>
      <point x="387" y="421"/>
      <point x="402" y="406" type="curve" smooth="yes"/>
      <point x="418" y="391"/>
      <point x="424" y="370"/>
      <point x="418" y="343" type="curve" smooth="yes"/>
      <point x="417" y="339" type="line"/>
      <point x="541" y="339" type="line"/>
      <point x="543" y="345" type="line" smooth="yes"/>
      <point x="555" y="406"/>
      <point x="545" y="455"/>
      <point x="511" y="490" type="curve" smooth="yes"/>
      <point x="477" y="525"/>
      <point x="423" y="542"/>
      <point x="348" y="542" type="curve" smooth="yes"/>
      <point x="272" y="542"/>
      <point x="208" y="521"/>
      <point x="157" y="480" type="curve" smooth="yes"/>
      <point x="105" y="439"/>
      <point x="71" y="378"/>
      <point x="54" y="299" type="curve" smooth="yes"/>
      <point x="41" y="236" type="line" smooth="yes"/>
      <point x="26" y="162"/>
      <point x="32" y="104"/>
      <point x="60" y="63" type="curve" smooth="yes"/>
      <point x="89" y="22"/>
      <point x="135" y="-2"/>
      <point x="199" y="-7" type="curve"/>
    </contour>
  </outline>
</glyph>
<glyph name="eth" format="2">
  <advance width="575"/>
  <unicode hex="00F0"/>
  <outline>
    <contour>
      <point x="527" y="256" type="curve" smooth="yes"/>
      <point x="522" y="230" type="line" smooth="yes"/>
      <point x="506" y="155"/>
      <point x="472" y="96"/>
      <point x="420" y="53" type="curve" smooth="yes"/>
      <point x="368" y="10"/>
      <point x="305" y="-11"/>
      <point x="231" y="-11" type="curve" smooth="yes"/>
      <point x="155" y="-11"/>
      <point x="100" y="10"/>
      <point x="67" y="52" type="curve" smooth="yes"/>
      <point x="32" y="93"/>
      <point x="23" y="150"/>
      <point x="38" y="223" type="curve" smooth="yes"/>
      <point x="44" y="251" type="line" smooth="yes"/>
      <point x="58" y="318"/>
      <point x="88" y="373"/>
      <point x="133" y="414" type="curve" smooth="yes"/>
      <point x="179" y="455"/>
      <point x="232" y="476"/>
      <point x="293" y="476" type="curve" smooth="yes"/>
      <point x="327" y="476"/>
      <point x="354" y="471"/>
      <point x="375" y="461" type="curve"/>
      <point x="320" y="552" type="line"/>
      <point x="187" y="517" type="line"/>
      <point x="179" y="598" type="line"/>
      <point x="278" y="624" type="line"/>
      <point x="224" y="712" type="line"/>
      <point x="362" y="712" type="line"/>
      <point x="397" y="654" type="line"/>
      <point x="522" y="686" type="line"/>
      <point x="530" y="606" type="line"/>
      <point x="441" y="583" type="line"/>
      <point x="470" y="536" type="line" smooth="yes"/>
      <point x="500" y="485"/>
      <point x="519" y="438"/>
      <point x="529" y="395" type="curve" smooth="yes"/>
      <point x="538" y="352"/>
      <point x="537" y="305"/>
    </contour>
    <contour>
      <point x="408" y="252" type="line" smooth="yes"/>
      <point x="416" y="289"/>
      <point x="411" y="319"/>
      <point x="395" y="341" type="curve" smooth="yes"/>
      <point x="378" y="363"/>
      <point x="351" y="374"/>
      <point x="312" y="374" type="curve" smooth="yes"/>
      <point x="272" y="374"/>
      <point x="238" y="363"/>
      <point x="213" y="342" type="curve" smooth="yes"/>
      <point x="188" y="321"/>
      <point x="171" y="291"/>
      <point x="163" y="253" type="curve" smooth="yes"/>
      <point x="157" y="227" type="line" smooth="yes"/>
      <point x="149" y="187"/>
      <point x="153" y="156"/>
      <point x="170" y="133" type="curve" smooth="yes"/>
      <point x="186" y="110"/>
      <point x="214" y="99"/>
      <point x="255" y="99" type="curve" smooth="yes"/>
      <point x="294" y="99"/>
      <point x="327" y="110"/>
      <point x="353" y="133" type="curve" smooth="yes"/>
      <point x="378" y="156"/>
      <point x="395" y="187"/>
      <point x="403" y="227" type="curve" smooth="yes"/>
    </contour>
  </outline>
</glyph>
<glyph name="oslash" format="2">
  <advance width="576"/>
  <unicode hex="00F8"/>
  <outline>
    <contour>
      <point x="515" y="474" type="line"/>
      <point x="545" y="433"/>
      <point x="553" y="374"/>
      <point x="537" y="299" type="curve" smooth="yes"/>
      <point x="524" y="236" type="line" smooth="yes"/>
      <point x="507" y="156"/>
      <point x="474" y="95"/>
      <point x="422" y="54" type="curve" smooth="yes"/>
      <point x="371" y="12"/>
      <point x="308" y="-9"/>
      <point x="233" y="-9" type="curve" smooth="yes"/>
      <point x="180" y="-9"/>
      <point x="137" y="1"/>
      <point x="105" y="22" type="curve"/>
      <point x="58" y="-30" type="line"/>
      <point x="-14" y="-30" type="line"/>
      <point x="65" y="57" type="line"/>
      <point x="33" y="98"/>
      <point x="26" y="158"/>
      <point x="41" y="236" type="curve" smooth="yes"/>
      <point x="54" y="299" type="line" smooth="yes"/>
      <point x="71" y="378"/>
      <point x="105" y="439"/>
      <point x="157" y="480" type="curve" smooth="yes"/>
      <point x="208" y="521"/>
      <point x="272" y="542"/>
      <point x="348" y="542" type="curve" smooth="yes"/>
      <point x="402" y="542"/>
      <point x="444" y="531"/>
      <point x="476" y="510" type="curve"/>
      <point x="521" y="559" type="line"/>
      <point x="591" y="559" type="line"/>
    </contour>
    <contour>
      <point x="164" y="167" type="curve"/>
      <point x="387" y="412" type="line"/>
      <point x="372" y="423"/>
      <point x="351" y="429"/>
      <point x="324" y="429" type="curve" smooth="yes"/>
      <point x="246" y="429"/>
      <point x="198" y="385"/>
      <point x="180" y="297" type="curve" smooth="yes"/>
      <point x="167" y="237" type="line" smooth="yes"/>
      <point x="162" y="210"/>
      <point x="161" y="186"/>
    </contour>
    <contour>
      <point x="415" y="364" type="curve"/>
      <point x="193" y="120" type="line"/>
      <point x="210" y="110"/>
      <point x="231" y="105"/>
      <point x="257" y="104" type="curve" smooth="yes"/>
      <point x="290" y="104"/>
      <point x="317" y="112"/>
      <point x="339" y="128" type="curve" smooth="yes"/>
      <point x="368" y="150"/>
      <point x="388" y="186"/>
      <point x="398" y="237" type="curve" smooth="yes"/>
      <point x="411" y="297" type="line" smooth="yes"/>
      <point x="416" y="322"/>
      <point x="418" y="345"/>
    </contour>
  </outline>
</glyph>
<glyph name="Aogonek" format="2">
  <advance width="697"/>
  <unicode hex="0104"/>
  <outline>
    <component base="A"/>
    <contour>
      <point x="592" y="-218" type="curve"/>
      <point x="617" y="-98" type="line"/>
      <point x="558" y="-97"/>
      <point x="522" y="-101"/>
      <point x="494" y="-66" type="curve"/>
      <point x="637" y="0" type="line"/>
      <point x="498" y="0" type="line"/>
      <point x="354" y="-55" type="line"/>
      <point x="360" y="-93"/>
      <point x="371" y="-124"/>
      <point x="394" y="-147" type="curve" smooth="yes"/>
      <point x="437" y="-193"/>
      <point x="504" y="-216"/>
    </contour>
  </outline>
</glyph>
<glyph name="dcroat" format="2">
  <advance width="584"/>
  <unicode hex="0111"/>
  <outline>
    <component base="d"/>
    <contour>
      <point x="349" y="654" type="line"/>
      <point x="675" y="654" type="line"/>
      <point x="660" y="581" type="line"/>
      <point x="334" y="581" type="line"/>
    </contour>
  </outline>
</glyph>
<glyph name="eogonek" format="2">
  <advance width="584"/>
  <unicode hex="0119"/>
  <outline>
    <component base="e"/>
    <contour>
      <point x="409" y="38" type="line"/>
      <point x="258" y="-66" type="line"/>
      <point x="286" y="-101"/>
      <point x="322" y="-97"/>
      <point x="381" y="-98" type="curve"/>
      <point x="356" y="-217" type="line"/>
      <point x="268" y="-216"/>
      <point x="201" y="-193"/>
      <point x="159" y="-146" type="curve" smooth="yes"/>
      <point x="135" y="-124"/>
      <point x="124" y="-93"/>
      <point x="118" y="-55" type="curve"/>
    </contour>
  </outline>
</glyph>
<glyph name="gcommaaccent" format="2">
  <advance width="584"/>
  <unicode hex="0123"/>
  <outline>
    <component base="g"/>
    <contour>
      <point x="394" y="564" type="line"/>
      <point x="294" y="564" type="line"/>
      <point x="307" y="626" type="line"/>
      <point x="424" y="707" type="line"/>
    </contour>
  </outline>
</glyph>
<glyph name="hbar" format="2">
  <advance width="585"/>
  <unicode hex="0127"/>
  <outline>
    <component base="h"/>
    <contour>
      <point x="81" y="653" type="line"/>
      <point x="398" y="653" type="line"/>
      <point x="384" y="585" type="line"/>
      <point x="67" y="585" type="line"/>
    </contour>
  </outline>
</glyph>
<glyph name="IJ" format="2">
  <advance width="692"/>
  <unicode hex="0132"/>
  <outline>
    <contour>
      <point x="289" y="-6" type="curve" smooth="yes"/>
      <point x="346" y="-6"/>
      <point x="399" y="5"/>
      <point x="446" y="26" type="curve" smooth="yes"/>
      <point x="494" y="47"/>
      <point x="534" y="77"/>
      <point x="566" y="116" type="curve" smooth="yes"/>
      <point x="597" y="155"/>
      <point x="619" y="201"/>
      <point x="630" y="254" type="curve" smooth="yes"/>
      <point x="724" y="707" type="line"/>
      <point x="590" y="707" type="line"/>
      <point x="497" y="258" type="line" smooth="yes"/>
      <point x="487" y="210"/>
      <point x="466" y="174"/>
      <point x="434" y="149" type="curve" smooth="yes"/>
      <point x="402" y="124"/>
      <point x="362" y="111"/>
      <point x="313" y="111" type="curve" smooth="yes"/>
      <point x="264" y="111"/>
      <point x="230" y="124"/>
      <point x="210" y="149" type="curve" smooth="yes"/>
      <point x="201" y="159"/>
      <point x="196" y="171"/>
      <point x="192" y="185" type="curve"/>
      <point x="51" y="185" type="line"/>
      <point x="52" y="160"/>
      <point x="56" y="137"/>
      <point x="65" y="116" type="curve" smooth="yes"/>
      <point x="80" y="77"/>
      <point x="108" y="47"/>
      <point x="146" y="26" type="curve" smooth="yes"/>
      <point x="185" y="5"/>
      <point x="232" y="-6"/>
    </contour>
    <contour>
      <point x="78" y="352" type="line"/>
      <point x="213" y="352" type="line"/>
      <point x="287" y="707" type="line"/>
      <point x="152" y="707" type="line"/>
    </contour>
  </outline>
</glyph>
<glyph name="ij" format="2">
  <advance width="532"/>
  <unicode hex="0133"/>
  <outline>
    <contour>
      <point x="168" y="-168" type="curve" smooth="yes"/>
      <point x="246" y="-168"/>
      <point x="281" y="-149"/>
      <point x="333" y="-110" type="curve" smooth="yes"/>
      <point x="385" y="-71"/>
      <point x="418" y="-18"/>
      <point x="432" y="49" type="curve" smooth="yes"/>
      <point x="532" y="531" type="line"/>
      <point x="406" y="531" type="line"/>
      <point x="351" y="265" type="line" smooth="yes"/>
      <point x="336" y="191"/>
      <point x="313" y="153"/>
      <point x="239" y="153" type="curve" smooth="yes"/>
      <point x="167" y="153"/>
      <point x="166" y="186"/>
      <point x="184" y="272" type="curve" smooth="yes"/>
      <point x="237" y="531" type="line"/>
      <point x="110" y="531" type="line"/>
      <point x="56" y="267" type="line" smooth="yes"/>
      <point x="40" y="191"/>
      <point x="47" y="133"/>
      <point x="76" y="92" type="curve" smooth="yes"/>
      <point x="106" y="51"/>
      <point x="153" y="40"/>
      <point x="216" y="40" type="curve" smooth="yes"/>
      <point x="281" y="39"/>
      <point x="291" y="53"/>
      <point x="317" y="96" type="curve"/>
      <point x="306" y="41" type="line" smooth="yes"/>
      <point x="290" y="-32"/>
      <point x="274" y="-68"/>
      <point x="195" y="-68" type="curve" smooth="yes"/>
      <point x="134" y="-68"/>
      <point x="134" y="-46"/>
      <point x="132" y="-11" type="curve"/>
      <point x="10" y="-11" type="line"/>
      <point x="1" y="-62"/>
      <point x="14" y="-101"/>
      <point x="47" y="-128" type="curve" smooth="yes"/>
      <point x="81" y="-155"/>
      <point x="101" y="-168"/>
    </contour>
    <contour>
      <point x="127" y="608" type="line"/>
      <point x="253" y="608" type="line"/>
      <point x="275" y="710" type="line"/>
      <point x="149" y="710" type="line"/>
    </contour>
    <contour>
      <point x="422" y="608" type="line"/>
      <point x="548" y="608" type="line"/>
      <point x="570" y="710" type="line"/>
      <point x="444" y="710" type="line"/>
    </contour>
  </outline>
</glyph>
<glyph name="Lslash" format="2">
  <advance width="583"/>
  <unicode hex="0141"/>
  <outline>
    <component base="L"/>
    <contour>
      <point x="23" y="279" type="line"/>
      <point x="48" y="392" type="line"/>
      <point x="452" y="559" type="line"/>
      <point x="429" y="446" type="line"/>
    </contour>
  </outline>
</glyph>
<glyph name="lslash" format="2">
  <advance width="321"/>
  <unicode hex="0142"/>
  <outline>
    <component base="l"/>
    <contour>
      <point x="23" y="279" type="line"/>
      <point x="48" y="392" type="line"/>
      <point x="319" y="509" type="line"/>
      <point x="295" y="396" type="line"/>
    </contour>
  </outline>
</glyph>
<glyph name="Eng" format="2">
  <advance width="715"/>
  <unicode hex="014A"/>
  <outline>
    <contour>
      <point x="152" y="707" type="line"/>
      <point x="287" y="707" type="line"/>
      <point x="515" y="238" type="line"/>
      <point x="613" y="707" type="line"/>
      <point x="747" y="707" type="line"/>
      <point x="600" y="-1" type="line" smooth="yes"/>
      <point x="588" y="-59"/>
      <point x="564" y="-102"/>
      <point x="529" y="-130" type="curve" smooth="yes"/>
      <point x="494" y="-159"/>
      <point x="447" y="-173"/>
      <point x="387" y="-173" type="curve" smooth="yes"/>
      <point x="316" y="-173" type="line"/>
      <point x="339" y="-63" type="line"/>
      <point x="387" y="-63" type="line" smooth="yes"/>
      <point x="414" y="-63"/>
      <point x="434" y="-58"/>
      <point x="447" y="-47" type="curve" smooth="yes"/>
      <point x="459" y="-38"/>
      <point x="461" y="-22"/>
      <point x="466" y="0" type="curve"/>
      <point x="466" y="0" type="line"/>
      <point x="237" y="468" type="line"/>
      <point x="140" y="0" type="line"/>
      <point x="5" y="0" type="line"/>
    </contour>
  </outline>
</glyph>
<glyph name="eng" format="2">
  <advance width="585"/>
  <unicode hex="014B"/>
  <outline>
    <contour>
      <point x="111" y="532" type="line"/>
      <point x="235" y="532" type="line"/>
      <point x="223" y="475" type="line"/>
      <point x="246" y="496"/>
      <point x="273" y="512"/>
      <point x="303" y="523" type="curve" smooth="yes"/>
      <point x="332" y="534"/>
      <point x="362" y="539"/>
      <point x="393" y="539" type="curve" smooth="yes"/>
      <point x="454" y="539"/>
      <point x="498" y="521"/>
      <point x="525" y="484" type="curve" smooth="yes"/>
      <point x="551" y="447"/>
      <point x="558" y="397"/>
      <point x="544" y="332" type="curve" smooth="yes"/>
      <point x="475" y="-1" type="line" smooth="yes"/>
      <point x="463" y="-59"/>
      <point x="439" y="-102"/>
      <point x="404" y="-130" type="curve" smooth="yes"/>
      <point x="369" y="-159"/>
      <point x="322" y="-173"/>
      <point x="262" y="-173" type="curve" smooth="yes"/>
      <point x="191" y="-173" type="line"/>
      <point x="214" y="-63" type="line"/>
      <point x="262" y="-63" type="line" smooth="yes"/>
      <point x="289" y="-63"/>
      <point x="309" y="-58"/>
      <point x="322" y="-47" type="curve" smooth="yes"/>
      <point x="335" y="-37"/>
      <point x="344" y="-19"/>
      <point x="349" y="7" type="curve" smooth="yes"/>
      <point x="412" y="306" type="line" smooth="yes"/>
      <point x="428" y="386"/>
      <point x="402" y="426"/>
      <point x="332" y="426" type="curve" smooth="yes"/>
      <point x="296" y="426"/>
      <point x="265" y="416"/>
      <point x="240" y="395" type="curve" smooth="yes"/>
      <point x="215" y="374"/>
      <point x="198" y="343"/>
      <point x="190" y="301" type="curve" smooth="yes"/>
      <point x="127" y="0" type="line"/>
      <point x="0" y="0" type="line"/>
    </contour>
  </outline>
</glyph>
<glyph name="OE" format="2">
  <advance width="1038"/>
  <unicode hex="0152"/>
  <outline>
    <contour>
      <point x="711" y="590" type="line"/>
      <point x="674" y="415" type="line"/>
      <point x="981" y="415" type="line"/>
      <point x="957" y="298" type="line"/>
      <point x="650" y="298" type="line"/>
      <point x="612" y="117" type="line"/>
      <point x="971" y="117" type="line"/>
      <point x="947" y="0" type="line"/>
      <point x="459" y="0" type="line"/>
      <point x="466" y="36" type="line"/>
      <point x="411" y="5"/>
      <point x="351" y="-11"/>
      <point x="285" y="-11" type="curve" smooth="yes"/>
      <point x="197" y="-11"/>
      <point x="132" y="15"/>
      <point x="92" y="67" type="curve" smooth="yes"/>
      <point x="52" y="119"/>
      <point x="42" y="196"/>
      <point x="63" y="299" type="curve" smooth="yes"/>
      <point x="86" y="410" type="line" smooth="yes"/>
      <point x="108" y="513"/>
      <point x="150" y="590"/>
      <point x="212" y="642" type="curve" smooth="yes"/>
      <point x="275" y="694"/>
      <point x="351" y="720"/>
      <point x="440" y="720" type="curve" smooth="yes"/>
      <point x="505" y="720"/>
      <point x="558" y="705"/>
      <point x="599" y="674" type="curve"/>
      <point x="606" y="707" type="line"/>
      <point x="1094" y="707" type="line"/>
      <point x="1070" y="590" type="line"/>
    </contour>
    <contour>
      <point x="538" y="402" type="line" smooth="yes"/>
      <point x="565" y="535"/>
      <point x="526" y="602"/>
      <point x="421" y="602" type="curve" smooth="yes"/>
      <point x="367" y="602"/>
      <point x="324" y="586"/>
      <point x="291" y="553" type="curve" smooth="yes"/>
      <point x="257" y="520"/>
      <point x="234" y="470"/>
      <point x="220" y="402" type="curve" smooth="yes"/>
      <point x="199" y="301" type="line" smooth="yes"/>
      <point x="185" y="236"/>
      <point x="188" y="188"/>
      <point x="209" y="157" type="curve" smooth="yes"/>
      <point x="228" y="126"/>
      <point x="265" y="110"/>
      <point x="319" y="110" type="curve" smooth="yes"/>
      <point x="424" y="110"/>
      <point x="490" y="174"/>
      <point x="517" y="301" type="curve" smooth="yes"/>
    </contour>
  </outline>
</glyph>
